<svg width="26" height="36" viewBox="0 0 26 36" fill="none" xmlns="http://www.w3.org/2000/svg">
<path d="M1.10227 36V31.4318L13.2216 19.5511C14.3807 18.3807 15.3466 17.3409 16.1193 16.4318C16.892 15.5227 17.4716 14.642 17.858 13.7898C18.2443 12.9375 18.4375 12.0284 18.4375 11.0625C18.4375 9.96023 18.1875 9.01704 17.6875 8.23295C17.1875 7.4375 16.5 6.82386 15.625 6.39205C14.75 5.96023 13.7557 5.74432 12.642 5.74432C11.4943 5.74432 10.4886 5.98295 9.625 6.46023C8.76136 6.92614 8.09091 7.59091 7.61364 8.45455C7.14773 9.31818 6.91477 10.3466 6.91477 11.5398H0.897727C0.897727 9.32386 1.40341 7.39773 2.41477 5.76136C3.42614 4.125 4.81818 2.85795 6.59091 1.96023C8.375 1.0625 10.4205 0.613635 12.7273 0.613635C15.0682 0.613635 17.125 1.05114 18.8977 1.92614C20.6705 2.80114 22.0455 4 23.0227 5.52273C24.0114 7.04545 24.5057 8.78409 24.5057 10.7386C24.5057 12.0455 24.2557 13.3295 23.7557 14.5909C23.2557 15.8523 22.375 17.25 21.1136 18.7841C19.8636 20.3182 18.108 22.1761 15.8466 24.358L9.82955 30.4773V30.7159H25.0341V36H1.10227Z" fill="#343E5C"/>
</svg>
