<svg width="27" height="37" viewBox="0 0 27 37" fill="none" xmlns="http://www.w3.org/2000/svg">
<path d="M13.6307 36.4773C11.1761 36.4773 8.99432 36.0568 7.08523 35.2159C5.1875 34.375 3.6875 33.2045 2.58523 31.7045C1.48295 30.2045 0.897727 28.4716 0.829546 26.5057H7.23864C7.29545 27.4489 7.60795 28.2727 8.17614 28.9773C8.74432 29.6705 9.5 30.2102 10.4432 30.5966C11.3864 30.983 12.4432 31.1761 13.6136 31.1761C14.8636 31.1761 15.9716 30.9602 16.9375 30.5284C17.9034 30.0852 18.6591 29.4716 19.2045 28.6875C19.75 27.9034 20.017 27 20.0057 25.9773C20.017 24.9205 19.7443 23.9886 19.1875 23.1818C18.6307 22.375 17.8239 21.7443 16.767 21.2898C15.7216 20.8352 14.4602 20.608 12.983 20.608H9.89773V15.733H12.983C14.1989 15.733 15.2614 15.5227 16.1705 15.1023C17.0909 14.6818 17.8125 14.0909 18.3352 13.3295C18.858 12.5568 19.1136 11.6648 19.1023 10.6534C19.1136 9.66477 18.892 8.80682 18.4375 8.07955C17.9943 7.34091 17.3636 6.76704 16.5455 6.35795C15.7386 5.94886 14.7898 5.74432 13.6989 5.74432C12.6307 5.74432 11.642 5.9375 10.733 6.32386C9.82386 6.71023 9.09091 7.26136 8.53409 7.97727C7.97727 8.68182 7.68182 9.52273 7.64773 10.5H1.5625C1.60795 8.54545 2.17045 6.82955 3.25 5.35227C4.34091 3.86364 5.79545 2.70454 7.61364 1.875C9.43182 1.03409 11.4716 0.613635 13.733 0.613635C16.0625 0.613635 18.0852 1.05114 19.8011 1.92614C21.5284 2.78977 22.8636 3.95454 23.8068 5.42045C24.75 6.88636 25.2216 8.50568 25.2216 10.2784C25.233 12.2443 24.6534 13.892 23.483 15.2216C22.3239 16.5511 20.8011 17.4205 18.9148 17.8295V18.1023C21.3693 18.4432 23.25 19.3523 24.5568 20.8295C25.875 22.2955 26.5284 24.1193 26.517 26.3011C26.517 28.2557 25.9602 30.0057 24.8466 31.5511C23.7443 33.0852 22.2216 34.2898 20.2784 35.1648C18.3466 36.0398 16.1307 36.4773 13.6307 36.4773Z" fill="#343E5C"/>
</svg>
