<svg width="125" height="73" viewBox="0 0 125 73" fill="none" xmlns="http://www.w3.org/2000/svg">
<path d="M125 16.9785L102.722 23.0619L108.592 0.726609L125 16.9785ZM3.86459 71.3599C3.46441 72.3895 2.30541 72.8997 1.27588 72.4995C0.246349 72.0993 -0.263851 70.9403 0.136314 69.9108L3.86459 71.3599ZM106.637 15.2706C102.802 14.7971 98.7351 14.4745 94.5094 14.3599L94.6179 10.3614C98.9766 10.4796 103.171 10.8123 107.127 11.3008L106.637 15.2706ZM82.3604 14.6265C78.398 14.9129 74.368 15.4056 70.322 16.1441L69.6038 12.2091C73.8017 11.4429 77.9757 10.933 82.0721 10.6369L82.3604 14.6265ZM58.5607 19.0193C54.7594 20.2004 50.9897 21.6338 47.2941 23.3523L45.6075 19.7253C49.475 17.9268 53.4125 16.4303 57.3738 15.1994L58.5607 19.0193ZM36.7564 29.2083C33.4681 31.3661 30.2793 33.8029 27.2247 36.5467L24.5517 33.5708C27.7606 30.6887 31.1099 28.1293 34.5618 25.864L36.7564 29.2083ZM18.8903 45.2472C16.4142 48.2477 14.0696 51.518 11.8825 55.079L8.47401 52.9855C10.7571 49.2683 13.2095 45.8467 15.8052 42.7013L18.8903 45.2472ZM6.21901 65.7652C5.39876 67.5696 4.6132 69.4339 3.86459 71.3599L0.136314 69.9108C0.911488 67.9165 1.72595 65.9833 2.57759 64.1099L6.21901 65.7652Z" fill="#CFA16E"/>
</svg>
