<svg width="75" height="72" viewBox="0 0 75 72" fill="none" xmlns="http://www.w3.org/2000/svg">
<path d="M49.9499 10.6363C45.5972 3.72536 39.4499 0.26718 31.5081 0.261725C23.5663 0.256271 17.4272 3.71445 13.0908 10.6363C9.03808 17.0017 7.01172 25.4181 7.01172 35.8854C7.01172 46.3526 9.02445 54.8072 13.0499 61.249C17.4135 68.2308 23.5663 71.7244 31.5081 71.7299C39.4499 71.7354 45.5972 68.2445 49.9499 61.2572C53.9754 54.8317 55.9881 46.3772 55.9881 35.8935C55.9881 25.4099 53.9754 16.9908 49.9499 10.6363ZM34.3635 27.8754L34.5026 27.9326C34.9363 28.0472 35.2635 27.7035 35.509 27.4172C35.7837 27.1076 36.0405 26.7825 36.2781 26.4435C36.7673 25.7445 37.1814 24.9958 37.5135 24.2099C38.3308 22.1904 38.833 20.0574 39.0026 17.8854C39.0295 17.03 39.3148 16.2028 39.8208 15.5126C40.1493 15.1121 40.596 14.8257 41.0972 14.6945C41.3099 14.6372 42.0954 14.4163 42.2835 14.5554C42.4717 14.6945 42.4963 15.0626 42.5699 15.8235C42.6435 16.5845 42.6844 17.3781 42.6844 18.2045C42.6555 21.0166 41.9512 23.7805 40.6308 26.2635C42.0546 25.5808 43.5621 25.0884 45.1144 24.799C45.9449 24.6409 46.7834 24.5289 47.6263 24.4635C48.4444 24.4063 49.1399 24.3572 49.7863 24.3245L51.0544 24.2754C51.4308 24.2754 51.6681 24.349 51.7663 24.4881C51.8922 24.7178 51.9464 24.98 51.9217 25.2408V26.9999C51.9381 27.3188 51.9381 27.6383 51.9217 27.9572C51.8644 28.4072 51.9217 29.1354 51.5863 29.5035C51.1526 29.9945 50.0972 29.7572 49.549 29.6099C48.5473 29.1869 47.6041 28.637 46.7426 27.9735C45.8432 27.4784 44.8622 27.1486 43.8463 26.9999C42.9008 26.9147 41.95 27.0901 41.0972 27.5072C40.6154 27.716 40.148 27.9566 39.6981 28.2272C39.3054 28.4563 38.6917 28.7426 38.7981 29.3072C38.8329 29.4832 38.9182 29.6452 39.0435 29.7735C40.1282 30.8145 41.4185 31.6171 42.8317 32.1299C43.7327 32.4931 44.6672 32.7672 45.6217 32.9481C46.5381 33.1281 47.4299 33.3408 48.3544 33.4635C49.1531 33.5294 49.9259 33.7786 50.6126 34.1917C51.0231 34.4626 51.3554 34.8363 51.5764 35.2755C51.7975 35.7148 51.8996 36.2043 51.8726 36.6954C51.8726 36.8754 51.8726 36.9735 51.799 36.9981C51.6767 37.0328 51.5495 37.0466 51.4226 37.039L50.1381 37.1126H49.0254C47.6999 37.1278 46.377 36.9933 45.0817 36.7117C43.9212 36.448 42.7954 36.0499 41.7272 35.5254H41.6454H41.5963C41.3181 35.3863 40.7044 35.0835 40.2217 34.8299C39.1875 34.2981 38.2019 33.6766 37.2763 32.9726C36.7894 32.5935 36.325 32.1865 35.8854 31.7535C35.0452 31.1423 34.296 30.4151 33.6599 29.5935C33.2508 29.0781 32.6454 28.2108 31.8354 26.9835C32.0807 26.5741 32.302 26.1506 32.4981 25.7154C32.4981 25.7808 32.5717 25.8381 32.6126 25.9035L33.2017 26.7217C33.4948 27.1908 33.8924 27.5856 34.3635 27.8754ZM11.1272 26.9999V25.2572C11.1025 24.9964 11.1567 24.7342 11.2826 24.5045C11.3808 24.3654 11.6181 24.2917 11.9944 24.2917L13.2626 24.3408C13.909 24.3408 14.629 24.4226 15.4226 24.4799C16.2654 24.5453 17.104 24.6573 17.9344 24.8154C19.8304 25.1642 21.6569 25.8192 23.3426 26.7545C22.4136 25.0755 21.7616 23.2575 21.4117 21.3708C21.2531 20.5432 21.1411 19.7073 21.0763 18.8672C21.019 18.049 20.9781 17.3535 20.9372 16.7072C20.8963 16.0608 20.8881 15.6435 20.8881 15.439C20.8881 15.0626 20.9617 14.8172 21.1008 14.719C21.3359 14.6005 21.5993 14.5495 21.8617 14.5717H23.6208C23.937 14.5554 24.2537 14.5554 24.5699 14.5717C25.0199 14.6208 25.7481 14.5717 26.1163 14.9072C26.4844 15.2426 26.3699 16.3963 26.2308 16.9445C25.8088 17.9466 25.2588 18.8899 24.5944 19.7508C24.1083 20.6367 23.7789 21.6 23.6208 22.5981C23.5351 23.5498 23.7134 24.5067 24.1363 25.3635C24.3451 25.8453 24.5857 26.3127 24.8563 26.7626C25.0854 27.1554 25.3717 27.769 25.9363 27.6626C26.1122 27.6278 26.2743 27.5425 26.4026 27.4172C27.4436 26.3325 28.2462 25.0422 28.759 23.629C29.1173 22.7263 29.3912 21.7923 29.5772 20.839C29.749 19.9226 29.9699 19.0308 30.0844 18.1063C30.1543 17.3084 30.4032 16.5365 30.8126 15.8481C31.0853 15.4394 31.4593 15.1085 31.8981 14.8876C32.337 14.6667 32.8256 14.5635 33.3163 14.5881C33.4963 14.5881 33.5944 14.5881 33.619 14.6617C33.6414 14.7862 33.6414 14.9136 33.619 15.0381L33.6926 16.3226V17.4354C33.7078 18.7608 33.5733 20.0837 33.2917 21.379C33.0274 22.5367 32.6293 23.6597 32.1054 24.7254C32.1093 24.7497 32.1093 24.7746 32.1054 24.799V24.8563C31.9663 25.1345 31.6635 25.7481 31.4099 26.2226C30.8811 27.2586 30.2595 28.2444 29.5526 29.1681C28.8769 30.0288 28.1238 30.8257 27.3026 31.549C26.8215 32.0276 26.3134 32.4784 25.7808 32.899C24.8552 33.603 23.8696 34.2245 22.8354 34.7563C22.3526 35.0099 21.739 35.3126 21.4608 35.4517H21.4117H21.3299C20.2642 35.9756 19.1412 36.3738 17.9835 36.6381C16.6883 36.9197 15.3653 37.0542 14.0399 37.039H12.8617L11.5772 36.9654C11.4503 36.973 11.3231 36.9592 11.2008 36.9245C11.1517 36.9245 11.1272 36.8017 11.1272 36.6217C11.1002 36.1307 11.2023 35.6412 11.4234 35.2019C11.6444 34.7626 11.9767 34.389 12.3872 34.1181C13.0739 33.705 13.8467 33.4558 14.6454 33.3899C15.5699 33.2672 16.4617 33.0545 17.3781 32.8745C18.3326 32.6935 19.267 32.4195 20.1681 32.0563C21.5813 31.5435 22.8716 30.7408 23.9563 29.6999C24.0816 29.5716 24.1669 29.4095 24.2017 29.2335C24.3081 28.669 23.6944 28.4154 23.3017 28.1535C22.8518 27.8829 22.3844 27.6424 21.9026 27.4335C21.0428 27.0417 20.0923 26.8918 19.1535 26.9999C18.1545 27.1542 17.1906 27.4839 16.3063 27.9735C15.4448 28.637 14.5016 29.1869 13.4999 29.6099C12.9517 29.7572 11.8635 29.9945 11.4626 29.5035C11.1435 29.1354 11.1844 28.4072 11.1272 27.9572C11.1108 27.6383 11.1108 27.3188 11.1272 26.9999ZM33.6599 53.509L33.5863 54.8181C33.6082 54.9398 33.6082 55.0645 33.5863 55.1863C33.5863 55.2354 33.4635 55.2599 33.2835 55.2599C32.7861 55.2917 32.2891 55.192 31.8424 54.9709C31.3958 54.7497 31.0152 54.4148 30.739 53.9999C30.3248 53.3137 30.0755 52.5407 30.0108 51.7417C29.8881 50.8172 29.6754 49.9254 29.5035 49.009C29.3176 48.0557 29.0437 47.1217 28.6854 46.219C28.1725 44.8058 27.3699 43.5155 26.329 42.4308C26.2037 42.3028 26.0399 42.2195 25.8626 42.1935C25.2981 42.0872 25.0444 42.6926 24.7826 43.0935C24.5104 43.5398 24.2698 44.0046 24.0626 44.4845C23.6461 45.3404 23.4707 46.2936 23.5554 47.2417C23.7218 48.2323 24.0566 49.187 24.5454 50.0644C25.2071 50.9271 25.7569 51.87 26.1817 52.8708C26.329 53.419 26.5663 54.5072 26.0754 54.9081C25.7072 55.2354 24.979 55.1945 24.529 55.2435C24.213 55.264 23.8959 55.264 23.5799 55.2435H21.8044C21.5447 55.266 21.2839 55.2149 21.0517 55.0963C20.9126 54.9981 20.839 54.7608 20.839 54.3763C20.839 54.1799 20.839 53.7545 20.8881 53.1163C20.9372 52.4781 20.9699 51.7499 21.0272 50.9481C21.092 50.1079 21.204 49.2721 21.3626 48.4445C21.6528 46.9086 22.1367 45.4158 22.8026 44.0017C20.3282 45.3119 17.576 46.0105 14.7763 46.039C13.9581 46.039 13.1399 45.9981 12.3954 45.9245C11.6508 45.8508 11.209 45.7526 11.1272 45.6381C11.0454 45.5235 11.209 44.6563 11.2663 44.4517C11.401 43.9522 11.6868 43.5064 12.0844 43.1754C12.7769 42.6678 13.6072 42.3825 14.4654 42.3572C16.6263 42.1946 18.7503 41.7063 20.7654 40.909C21.5495 40.5765 22.2979 40.1653 22.999 39.6817C23.3402 39.4436 23.668 39.1869 23.9808 38.9126C24.2672 38.6672 24.6026 38.3399 24.4881 37.9063C24.4762 37.8547 24.4569 37.8051 24.4308 37.759C24.1191 37.2853 23.7018 36.8904 23.2117 36.6054L22.3935 36.0245L22.2054 35.9017C22.6472 35.692 23.0737 35.4514 23.4817 35.1817C24.709 35.9999 25.5844 36.5972 26.0999 36.9981C26.9221 37.6496 27.6468 38.4156 28.2517 39.2726C28.6772 39.7087 29.0788 40.1675 29.4544 40.6472C30.1613 41.5709 30.7829 42.5567 31.3117 43.5926C31.5654 44.0672 31.8681 44.6808 32.0072 44.959V45.0163C32.0087 45.0435 32.0087 45.0708 32.0072 45.0981C32.5312 46.1666 32.9293 47.2923 33.1935 48.4526C33.4953 49.7346 33.6518 51.0465 33.6599 52.3635V53.509ZM50.6044 45.9245C49.8435 45.9981 49.0499 46.039 48.2235 46.039C46.9535 46.0289 45.6885 45.8779 44.4517 45.589C43.2446 45.3113 42.0707 44.9054 40.9499 44.3781C41.4678 45.4804 41.8655 46.6352 42.1363 47.8226C42.4249 49.0595 42.5758 50.3244 42.5863 51.5945C42.5863 52.4126 42.5863 53.2308 42.4717 53.9754C42.3572 54.7199 42.2999 55.1617 42.1854 55.2435C42.0708 55.3254 41.2035 55.1617 40.999 55.1045C40.4965 54.9764 40.0488 54.6894 39.7226 54.2863C39.2166 53.5961 38.9314 52.7689 38.9044 51.9135C38.7268 49.742 38.222 47.6097 37.4072 45.589C37.0776 44.8092 36.672 44.0638 36.1963 43.3635C35.959 43.0281 35.6972 42.7008 35.4272 42.3899C35.1572 42.079 34.8544 41.7599 34.4208 41.8745L34.2735 41.9317C33.8001 42.2446 33.4076 42.6652 33.1281 43.159C32.8499 43.5272 32.6535 43.7972 32.539 43.9772L32.4163 44.1654C32.2238 43.7299 32.0052 43.3064 31.7617 42.8972C32.5799 41.6699 33.1772 40.8026 33.5781 40.2872C34.1239 39.6063 34.7472 38.9912 35.4354 38.4545C35.8831 37.945 36.373 37.4743 36.8999 37.0472C37.4154 36.6463 38.2908 36.0408 39.5181 35.2308C39.9253 35.4778 40.349 35.6965 40.7863 35.8854L40.5981 36.0081L39.7799 36.589C39.2898 36.8741 38.8725 37.269 38.5608 37.7426C38.5347 37.7887 38.5154 37.8383 38.5035 37.8899C38.389 38.3235 38.7244 38.6508 39.0108 38.8963C39.3237 39.1705 39.6514 39.4273 39.9926 39.6654C40.6956 40.1551 41.4468 40.5718 42.2344 40.909C44.252 41.7247 46.3817 42.2296 48.5508 42.4063C49.409 42.4315 50.2393 42.7169 50.9317 43.2245C51.3294 43.5555 51.6151 44.0012 51.7499 44.5008C51.8072 44.7054 52.0199 45.4908 51.889 45.6872C51.7581 45.8835 51.3654 45.8181 50.6044 45.9245Z" fill="#343E5C"/>
<path d="M56 34H73" stroke="#343E5C" stroke-width="3" stroke-linecap="round"/>
<path d="M73 33.5C70.5 32.8333 65.4 30.2 65 25" stroke="#343E5C" stroke-width="3" stroke-linecap="round"/>
<path d="M73 34C70.5 34.6667 65.4 37.3 65 42.5" stroke="#343E5C" stroke-width="3" stroke-linecap="round"/>
</svg>
