<svg width="113" height="150" viewBox="0 0 113 150" fill="none" xmlns="http://www.w3.org/2000/svg">
<path d="M0.769531 145.409L18.6848 122.773L29.3303 149.606L0.769531 145.409ZM108.131 1.70021C108.573 0.392058 109.992 -0.310328 111.3 0.131385C112.608 0.573099 113.31 1.99164 112.869 3.29979L108.131 1.70021ZM17.0278 134.423C20.4166 132.193 23.9027 129.624 27.4537 126.728L30.6135 130.603C26.9445 133.595 23.3212 136.267 19.7758 138.6L17.0278 134.423ZM37.2051 118.099C40.2371 115.207 43.2902 112.1 46.3457 108.789L50.0204 112.18C46.8963 115.565 43.7687 118.748 40.6562 121.717L37.2051 118.099ZM54.9369 98.934C57.6463 95.6505 60.3427 92.2123 63.0127 88.6264L67.0231 91.6125C64.3045 95.2637 61.5569 98.7673 58.7935 102.116L54.9369 98.934ZM70.59 77.9375C72.9906 74.3815 75.3578 70.7062 77.6813 66.9169L81.9438 69.5305C79.5824 73.3817 77.1757 77.1184 74.7341 80.7352L70.59 77.9375ZM84.2944 55.6009C86.3909 51.8344 88.4397 47.972 90.4323 44.0181L94.8974 46.2683C92.8738 50.2836 90.7929 54.2065 88.6632 58.0327L84.2944 55.6009ZM96.0942 32.1923C97.8826 28.2543 99.6123 24.2371 101.276 20.1448L105.908 22.0275C104.219 26.1825 102.463 30.2613 100.647 34.2599L96.0942 32.1923ZM105.97 7.89502C106.708 5.8466 107.429 3.78151 108.131 1.70021L112.869 3.29979C112.155 5.41314 111.423 7.50997 110.674 9.58985L105.97 7.89502Z" fill="#CFA16E"/>
</svg>
