<svg width="169" height="75" viewBox="0 0 169 75" fill="none" xmlns="http://www.w3.org/2000/svg">
<path d="M168.729 22.748L140.142 26.7638L150.957 -0.000995548L168.729 22.748ZM5.20206 73.1836C4.54837 74.3998 3.03256 74.8557 1.81639 74.2021C0.60023 73.5484 0.144242 72.0326 0.79794 70.8164L5.20206 73.1836ZM148.776 18.4468C144.658 17.324 140.275 16.3069 135.686 15.4538L136.6 10.538C141.328 11.417 145.845 12.465 150.092 13.623L148.776 18.4468ZM122.379 13.5439C118.019 13.1031 113.542 12.8336 108.99 12.7749L109.054 7.77536C113.761 7.83597 118.384 8.11458 122.882 8.56929L122.379 13.5439ZM95.5951 13.2336C91.197 13.5987 86.7682 14.1856 82.3421 15.0272L81.4081 10.1152C86.0162 9.23898 90.6192 8.62943 95.1815 8.25073L95.5951 13.2336ZM69.3961 18.2576C65.2045 19.567 61.0451 21.1381 56.9467 22.9994L54.8792 18.4469C59.173 16.4968 63.5255 14.8532 67.9051 13.485L69.3961 18.2576ZM45.2073 29.2683C41.5148 31.5587 37.8974 34.128 34.3788 37.0005L31.2168 33.1273C34.9049 30.1164 38.6984 27.4219 42.5718 25.0193L45.2073 29.2683ZM24.6155 46.0529C21.6411 49.1737 18.7626 52.5602 15.9978 56.2307L12.004 53.2225C14.8833 49.3999 17.8865 45.8658 20.9961 42.6032L24.6155 46.0529ZM8.52607 67.3354C7.39156 69.2237 6.28301 71.1725 5.20206 73.1836L0.79794 70.8164C1.91607 68.7361 3.06399 66.718 4.24017 64.7604L8.52607 67.3354Z" fill="#CFA16E"/>
</svg>
