<svg width="175" height="68" viewBox="0 0 175 68" fill="none" xmlns="http://www.w3.org/2000/svg">
<path d="M0 23.748L28.6293 27.4492L17.52 0.804978L0 23.748ZM170.507 67.0098C171.341 68.1103 172.909 68.3265 174.01 67.4926C175.11 66.6587 175.326 65.0906 174.493 63.9902L170.507 67.0098ZM20.142 18.8599C24.2858 17.5613 28.6786 16.3489 33.2791 15.2949L32.1625 10.4212C27.4243 11.5068 22.905 12.7542 18.6468 14.0887L20.142 18.8599ZM46.6502 12.8186C51.039 12.2014 55.5591 11.7614 60.1821 11.5484L59.9519 6.55374C55.1627 6.7744 50.4868 7.22984 45.9538 7.86734L46.6502 12.8186ZM73.7313 11.605C78.1607 11.8523 82.6544 12.3338 87.1902 13.0888L88.0111 8.1566C83.2873 7.37036 78.6122 6.86967 74.0099 6.6128L73.7313 11.605ZM100.393 16.0658C104.632 17.2808 108.889 18.7608 113.149 20.5367L115.073 15.9217C110.631 14.0699 106.191 12.5265 101.771 11.2594L100.393 16.0658ZM125.314 26.4447C129.146 28.5809 132.969 30.9833 136.769 33.6753L139.659 29.5953C135.713 26.7999 131.738 24.3015 127.748 22.0774L125.314 26.4447ZM147.429 42.0667C150.73 44.9377 154.005 48.0516 157.246 51.4248L160.852 47.9612C157.51 44.4825 154.127 41.2652 150.71 38.294L147.429 42.0667ZM166.271 61.6246C167.692 63.3638 169.105 65.1584 170.507 67.0098L174.493 63.9902C173.053 62.0907 171.603 60.248 170.143 58.4608L166.271 61.6246Z" fill="#CFA16E"/>
</svg>
