<svg width="127" height="18" viewBox="0 0 127 18" fill="none" xmlns="http://www.w3.org/2000/svg">
<path d="M126.902 10L111.318 17.5574L112.565 0.281892L126.902 10ZM2.16792 14.007C1.34019 14.041 0.641561 13.3977 0.60748 12.5699C0.5734 11.7422 1.21677 11.0436 2.0445 11.0095L2.16792 14.007ZM108.141 10.3302C103.969 10.1611 100.073 10.0979 95.7362 10.1348L95.7107 7.13487C100.096 7.09756 104.041 7.16153 108.263 7.33268L108.141 10.3302ZM83.2977 10.4417C79.6523 10.5736 75.5632 10.7459 70.8324 10.9571L70.6987 7.96011C75.4328 7.74878 79.5315 7.57605 83.1892 7.44366L83.2977 10.4417ZM58.3762 11.5271C54.5586 11.7038 50.4036 11.8965 45.8576 12.1046L45.7204 9.10776C50.2655 8.89968 54.4196 8.70706 58.2375 8.53032L58.3762 11.5271ZM33.3791 12.6688C29.4827 12.8426 25.3453 13.0246 20.945 13.2148L20.8155 10.2176C25.2143 10.0275 29.3503 9.84549 33.2455 9.6718L33.3791 12.6688ZM8.46553 13.7456C6.41655 13.8313 4.31789 13.9184 2.16792 14.007L2.0445 11.0095C4.1938 10.921 6.29179 10.8339 8.34011 10.7482L8.46553 13.7456Z" fill="#CFA16E"/>
</svg>
