<svg width="125" height="73" viewBox="0 0 125 73" fill="none" xmlns="http://www.w3.org/2000/svg">
<path d="M125 56L102.722 49.9166L108.592 72.2519L125 56ZM3.86459 1.61862C3.46441 0.589094 2.30541 0.0788936 1.27588 0.479059C0.246349 0.879231 -0.263851 2.03823 0.136314 3.06777L3.86459 1.61862ZM106.637 57.7079C102.802 58.1814 98.7351 58.504 94.5094 58.6186L94.6179 62.6172C98.9766 62.499 103.171 62.1662 107.127 61.6778L106.637 57.7079ZM82.3604 58.3521C78.398 58.0657 74.368 57.5729 70.322 56.8344L69.6038 60.7694C73.8017 61.5356 77.9757 62.0456 82.0721 62.3417L82.3604 58.3521ZM58.5607 53.9593C54.7594 52.7782 50.9897 51.3447 47.2941 49.6262L45.6075 53.2533C49.475 55.0517 53.4125 56.5483 57.3738 57.7791L58.5607 53.9593ZM36.7564 43.7703C33.4681 41.6125 30.2793 39.1756 27.2247 36.4319L24.5517 39.4077C27.7606 42.2899 31.1099 44.8493 34.5618 47.1145L36.7564 43.7703ZM18.8903 27.7313C16.4142 24.7308 14.0696 21.4606 11.8825 17.8996L8.47401 19.993C10.7571 23.7102 13.2095 27.1319 15.8052 30.2773L18.8903 27.7313ZM6.21901 7.21336C5.39876 5.40895 4.6132 3.54463 3.86459 1.61862L0.136314 3.06777C0.911488 5.06209 1.72595 6.9952 2.57759 8.86867L6.21901 7.21336Z" fill="#CFA16E"/>
</svg>
