<svg width="88" height="43" viewBox="0 0 88 43" fill="none" xmlns="http://www.w3.org/2000/svg">
<path d="M87.6768 42.4622L71.5226 36.2136L85.0111 25.348L87.6768 42.4622ZM2.45351 6.96911C1.66386 7.21957 0.820672 6.78247 0.570203 5.99282C0.319735 5.20316 0.756835 4.35998 1.54649 4.10951L2.45351 6.96911ZM78.5731 33.6375C76.8478 31.5855 75.0128 29.4827 73.0551 27.3876L75.2471 25.3394C77.2494 27.4823 79.1199 29.6261 80.8694 31.7069L78.5731 33.6375ZM67.1739 21.5258C65.1746 19.6832 63.0666 17.8949 60.8408 16.2051L62.6548 13.8157C64.9656 15.57 67.1466 17.4208 69.207 19.3198L67.1739 21.5258ZM54.0095 11.5972C51.6841 10.2214 49.2466 8.97189 46.6896 7.88523L47.8629 5.12421C50.5505 6.26633 53.106 7.57697 55.537 9.01519L54.0095 11.5972ZM38.94 5.22575C36.37 4.54733 33.6903 4.03582 30.8943 3.72067L31.2303 0.73955C34.174 1.07135 36.9973 1.61014 39.7057 2.32512L38.94 5.22575ZM22.6913 3.37696C20.0599 3.44683 17.333 3.68681 14.5064 4.11735L14.0547 1.15155C17.0015 0.702704 19.8526 0.451271 22.6117 0.378011L22.6913 3.37696ZM6.43095 5.81015C5.12486 6.15653 3.79916 6.54229 2.45351 6.96911L1.54649 4.10951C2.93685 3.6685 4.30857 3.2693 5.66192 2.91039L6.43095 5.81015Z" fill="#CFA16E"/>
</svg>
