<svg width="93" height="47" viewBox="0 0 93 47" fill="none" xmlns="http://www.w3.org/2000/svg">
<path d="M0 17.9297L22.8026 21.587L14.5686 0.0107334L0 17.9297ZM88.7411 45.7726C89.2641 46.7455 90.4768 47.1103 91.4497 46.5874C92.4226 46.0644 92.7874 44.8518 92.2644 43.8788L88.7411 45.7726ZM19.0614 14.4077C23.0577 13.7072 27.3212 13.2417 31.7244 13.135L31.6275 9.13619C27.0071 9.24811 22.5446 9.73618 18.3708 10.4678L19.0614 14.4077ZM44.3806 13.8846C48.4779 14.4926 52.5864 15.4844 56.617 16.9478L57.982 13.1879C53.6767 11.6248 49.3053 10.5716 44.9677 9.92794L44.3806 13.8846ZM67.883 22.5122C71.2682 24.6894 74.5327 27.3118 77.6126 30.4466L80.4658 27.6432C77.1753 24.2941 73.6792 21.4842 70.0468 19.148L67.883 22.5122ZM85.4938 40.2961C86.6194 42.0183 87.7035 43.8421 88.7411 45.7726L92.2644 43.8788C91.1741 41.8502 90.0317 39.928 88.8421 38.1078L85.4938 40.2961Z" fill="#D9BC9B"/>
</svg>
