<svg width="1062" height="1087" viewBox="0 0 1062 1087" fill="none" xmlns="http://www.w3.org/2000/svg">
<path d="M330.79 807.544C332.439 806.41 333.783 804.886 334.702 803.107C335.872 800.89 337.152 798.732 338.538 796.643C341.043 792.844 343.802 789.215 346.373 785.466C347.782 783.579 349.009 781.563 350.036 779.444C350.923 777.4 351.766 775.333 352.601 773.268C354.393 768.832 356.176 764.396 358.339 760.13C362.183 752.51 371.262 749.941 376.531 743.533C381.285 737.744 383.148 730.316 384.397 723.08C385.105 718.966 385.916 714.816 386.44 710.684C386.974 706.117 387.029 701.507 386.604 696.928C386.228 692.336 385.552 687.772 384.893 683.22C384.558 680.78 384.431 678.316 384.514 675.855C384.678 673.571 384.651 671.277 384.432 668.998C383.775 664.414 381.62 660.321 380.459 655.891C380.248 654.807 379.868 653.763 379.333 652.797C378.755 651.858 378.13 650.952 377.558 650.004C376.315 647.905 375.345 645.657 374.673 643.312C374.43 642.233 374.111 641.172 373.719 640.138C373.283 639.194 372.844 638.244 372.444 637.246C371.378 634.659 370.482 632.015 369.496 629.397C368.678 627.148 367.747 624.943 366.705 622.789C365.597 620.587 364.165 618.575 362.895 616.468C352.986 600.057 351.798 580.417 348.667 561.92C347.889 557.36 346.993 552.76 345.81 548.256C345.616 547.331 345.338 546.426 344.98 545.552C344.577 544.696 343.887 543.983 343.513 543.122C342.666 541.246 344.58 540.155 346.107 539.573C354.471 536.405 362.264 542.683 366.558 549.427C371.094 556.525 372.97 564.875 375.215 572.863C376.366 577.197 377.805 581.448 379.522 585.59C380.437 587.632 381.227 589.728 381.886 591.866C382.529 594.096 382.923 596.061 384.22 598.029C385.518 599.997 387.065 601.594 388.42 603.41C389.954 605.465 391.399 607.537 392.782 609.622C395.435 613.688 397.884 617.881 400.313 622.086C401.515 624.206 402.717 626.326 403.987 628.433C405.08 630.238 406.797 631.542 407.989 633.287C409.198 634.909 410.301 636.608 411.289 638.373C412.511 640.926 413.386 643.631 413.891 646.416C414.843 650.942 415.215 655.394 417.324 659.575C419.195 663.26 422.26 666.507 424.895 669.682C430.441 676.361 436.319 682.771 441.594 689.668C446.869 696.565 451.493 704.07 454.388 712.291C457.635 721.73 458.565 731.812 457.1 741.686C456.858 743.876 456.406 746.038 455.752 748.141C454.931 750.478 454.017 752.786 453.198 755.131C452.408 757.332 451.769 759.583 451.285 761.87C450.766 764.351 449.947 766.759 448.845 769.042C446.707 773.672 444.066 778.063 441.533 782.481C438.999 786.898 436.299 791.545 433.729 796.095C428.952 804.528 425.03 813.514 418.875 821.008C415.939 824.617 412.737 827.987 409.702 831.49C406.584 835.119 403.844 839.055 401.523 843.238C399.269 847.239 397.14 851.318 394.502 855.08C392.011 858.633 388.701 862.418 384.528 863.968C383.73 864.266 382.932 864.439 382.167 864.785C381.719 865.072 381.178 865.178 380.654 865.082C378.974 864.525 379.763 860.544 379.948 859.369C380.71 854.93 383 850.914 385.208 847.119C394.847 830.567 407.666 816.25 419.398 801.236C425.672 793.337 432.743 786.104 440.498 779.652C448.032 773.302 456.344 767.67 463.284 760.651C466.935 756.965 470.449 753.14 473.927 749.291C477.051 745.698 479.84 741.826 482.259 737.726C484.752 733.662 487.057 729.478 489.319 725.279C491.581 721.079 494.44 717.038 497.118 713C502.825 704.503 508.001 695.663 513.68 687.147C516.362 683.125 519.353 679.278 521.769 675.103C522.833 673.506 523.784 671.837 524.613 670.106C525.425 668.124 525.678 665.969 526.167 663.902C528.333 654.655 531.644 645.717 534.518 636.677C535.847 632.488 536.869 628.211 538.124 624.005C539.217 620.334 540.98 616.83 541.458 612.989C541.736 611.196 541.563 609.362 540.953 607.654C540.343 605.945 539.316 604.416 537.965 603.204C536.1 601.388 533.66 600.278 531.065 600.067C525.936 599.833 521.541 603.572 518.317 607.151C514.5 611.557 511.208 616.392 508.509 621.559C507.244 623.757 506.139 626.043 505.202 628.399C503.516 632.933 502.119 637.575 500.51 642.14C498.943 646.557 497.365 651.399 494.419 655.12C492.887 657.078 490.73 658.413 488.725 659.844C486.721 661.275 484.855 662.615 482.971 664.061L484.027 663.917C483.631 663.857 483.244 663.751 482.873 663.601C482.598 663.522 482.6 663.529 482.873 663.601C483.27 663.783 483.236 663.53 482.745 662.951C482.59 662.518 482.448 662.075 482.305 661.631C481.706 659.738 481.226 657.814 480.582 655.937C480.142 654.657 477.992 654.749 478.459 656.205C479.194 658.347 479.706 660.555 480.449 662.695C480.647 663.6 481.01 664.461 481.521 665.234C481.996 665.614 482.571 665.847 483.177 665.906C484.823 666.29 486.17 664.588 487.447 663.653C489.511 662.164 491.583 660.712 493.638 659.177C497.538 656.243 499.381 651.427 501.124 647.024C502.972 642.317 504.44 637.472 506.085 632.695C508.13 626.98 510.861 621.535 514.219 616.479C517.333 611.657 521.124 606.246 526.355 603.521C527.388 602.919 528.534 602.534 529.722 602.391C530.91 602.248 532.114 602.35 533.261 602.691C534.99 603.266 536.501 604.354 537.595 605.811C538.688 607.268 539.311 609.024 539.38 610.844C539.402 614.956 537.322 618.845 536.113 622.688C534.814 626.87 533.84 631.107 532.544 635.266C529.64 644.477 526.234 653.606 524.019 663.043C523.52 665.184 523.31 667.432 522.364 669.456C521.416 671.387 520.37 673.267 519.23 675.091C518.019 677.207 516.415 679.156 515.026 681.164C513.486 683.399 511.973 685.653 510.487 687.924C504.763 696.613 499.431 705.539 493.65 714.177C492.282 716.213 490.856 718.229 489.541 720.294C488.227 722.359 487.041 724.838 485.796 727.102C483.401 731.5 480.908 735.807 478.17 739.982C475.232 744.276 471.943 748.319 468.338 752.07C464.809 756.015 461.049 759.747 457.078 763.245C449.444 769.772 441.026 775.503 433.838 782.539C430.254 786.048 426.497 789.394 423.12 793.113C419.742 796.832 416.89 800.825 413.8 804.692C407.632 812.361 401.268 819.95 395.329 827.865C392.394 831.795 389.559 835.801 386.906 839.927C384.218 843.907 381.841 848.087 379.795 852.432C378.302 855.867 376.681 860.569 377.715 864.317C378.52 867.214 380.985 867.806 383.469 866.737C385.098 866.032 386.759 865.65 388.318 864.669C390.181 863.445 391.866 861.969 393.325 860.284C396.505 856.76 398.903 852.692 401.225 848.52C403.548 844.348 405.797 840.002 408.759 836.208C411.721 832.413 414.976 829.111 418.086 825.585C421.197 822.127 423.986 818.392 426.419 814.428C429.072 809.979 431.279 805.217 433.813 800.682C438.934 791.483 444.607 782.537 449.422 773.178C450.495 771.092 451.459 768.952 452.31 766.766C453.227 764.395 453.578 761.906 454.285 759.466C455.622 754.836 457.854 750.446 458.744 745.699C460.629 736.072 460.34 726.146 457.899 716.644C453.272 699.29 441.283 685.888 429.908 672.569C426.999 669.158 424.124 665.717 421.413 662.157C419.983 660.345 418.844 658.322 418.036 656.159C417.178 653.791 416.943 651.197 416.498 648.732C415.587 643.734 414.269 639.147 411.422 634.891C410.392 633.151 409.209 631.507 407.888 629.976C407.143 629.305 406.47 628.558 405.879 627.748C405.117 626.546 404.438 625.289 403.726 624.062C398.7 615.356 393.715 606.572 387.288 598.809C385.824 597.11 384.799 595.078 384.303 592.891C383.675 590.521 382.86 588.204 381.866 585.963C380.951 583.786 379.945 581.627 379.197 579.417C378.449 577.208 377.943 574.951 377.315 572.717C375.023 564.527 373.066 555.964 368.442 548.703C366.309 545.36 363.572 542.025 360.24 539.82C356.908 537.616 352.604 536.097 348.702 536.628C346.14 536.982 342.63 537.946 341.397 540.467C340.691 541.909 341.043 543.144 341.828 544.459C342.376 545.242 342.844 546.079 343.222 546.958C343.627 548.245 343.965 549.552 344.235 550.875C346.523 560.362 347.69 570.062 349.21 579.676C350.706 589.131 352.559 598.562 356.096 607.49C357.915 611.994 360.19 616.301 362.886 620.342C365.814 624.81 367.409 629.972 369.262 634.925C370.133 637.237 371.38 639.505 372.07 641.86C372.678 644.09 373.451 646.273 374.382 648.389C375.306 650.415 376.756 652.117 377.714 654.113C378.168 655.322 378.537 656.562 378.82 657.823C379.217 659.088 379.682 660.332 380.137 661.57C380.891 663.498 381.511 665.476 381.991 667.49C382.569 670.15 382.372 672.828 382.306 675.527C382.21 677.793 382.309 680.062 382.601 682.311C382.954 684.826 383.33 687.337 383.66 689.856C384.388 694.81 384.722 699.814 384.659 704.82C384.538 709.439 383.581 713.924 382.865 718.479C381.668 726.138 380.354 734.204 375.747 740.662C373.209 744.217 369.719 746.685 366.158 749.113C362.84 751.336 359.363 753.708 357.238 757.205C354.78 761.246 353.082 765.876 351.315 770.277C350.453 772.41 349.599 774.541 348.706 776.673C347.634 779.111 346.317 781.433 344.774 783.604C342.215 787.374 339.455 790.996 336.932 794.79C335.652 796.707 334.434 798.667 333.331 800.69C332.874 801.755 332.31 802.771 331.649 803.723C330.917 804.491 330.104 805.178 329.223 805.77C328.166 806.583 329.733 808.365 330.783 807.553L330.79 807.544Z" fill="#D9BC9B"/>
<path d="M480.642 656.483C480.319 654.842 480.188 653.171 479.812 651.54C479.427 649.994 478.87 648.497 478.149 647.075C476.699 644.093 475.048 641.244 473.951 638.097C473.418 636.544 472.983 634.972 472.608 633.381C472.16 631.864 471.539 630.405 470.756 629.031C470.117 627.555 469.668 626.005 469.417 624.416C469.073 622.848 468.562 621.321 467.894 619.861C466.717 617.233 465.679 614.507 463.432 612.584C462.376 611.753 461.187 611.108 459.915 610.675C458.537 610.01 457.063 609.566 455.548 609.357C454.831 609.309 454.1 609.586 453.402 609.472C452.704 609.358 452.096 608.943 451.411 608.772C449.799 608.483 448.167 608.331 446.53 608.317C443.164 608.271 439.805 608.61 436.516 609.326C433.204 609.869 429.924 610.594 426.692 611.499C425.13 612.052 423.536 612.509 421.918 612.869C421.154 612.991 420.403 613.183 419.675 613.443C418.945 613.728 418.238 614.126 417.51 614.418C415.853 614.944 414.149 615.311 412.422 615.512C411.174 615.757 409.949 615.998 408.722 616.31C407.624 616.663 406.484 616.871 405.332 616.929C404.052 616.929 403.651 616.167 402.988 615.19C402.659 614.676 402.241 614.226 401.753 613.861C401.221 613.56 400.727 613.195 400.283 612.775C399.494 611.839 399.308 610.092 399.047 608.926C398.469 605.938 398.093 602.916 397.921 599.878C397.317 592.854 396.304 585.872 394.889 578.966L392.793 568.294C392.464 566.623 392.138 564.959 391.75 563.307C391.305 561.703 390.984 560.067 390.789 558.413C390.516 555.026 391.141 551.612 391.327 548.237C391.512 544.863 391.445 541.443 391.481 538.066C391.502 536.334 391.475 534.595 391.347 532.869C391.195 531.197 390.919 529.54 390.522 527.909C390.237 526.271 390.082 524.612 390.059 522.949C389.925 521.327 389.694 519.715 389.369 518.12C388.75 514.731 388.582 511.276 388.048 507.878C387.514 504.479 386.711 501.071 386.035 497.629C385.746 496.162 385.384 494.717 385.058 493.257C384.802 492.153 384.612 490.988 385.319 489.986C386.907 487.717 390.227 486.979 392.832 486.687C397.051 486.212 399.843 490.384 401.561 493.613C402.608 495.544 403.467 497.559 404.376 499.548C405.784 502.712 407.301 505.839 408.643 509.032C410.001 512.177 411.114 515.422 411.972 518.739C412.829 522.183 413.412 525.706 414.127 529.187C414.842 532.667 415.554 536.094 416.167 539.571C416.779 543.048 416.754 546.36 417.416 549.726C418.104 553.228 418.79 556.722 419.478 560.224C420.143 563.641 421.112 566.991 422.372 570.236C423.588 573.469 425.003 576.632 426.17 579.89C427.336 583.149 428.207 586.662 429.107 590.083C429.554 591.762 430.017 593.439 430.532 595.097C430.971 596.655 431.284 598.246 431.466 599.855C431.674 601.489 432.082 603.092 432.679 604.628C433.231 605.996 433.61 607.446 434.204 608.79C434.619 609.745 435.561 611.179 436.712 611.282C437.005 611.296 437.298 611.25 437.573 611.148C437.847 611.045 438.098 610.888 438.311 610.685C438.523 610.483 438.691 610.239 438.807 609.97C438.922 609.7 438.981 609.41 438.981 609.116C438.986 608.976 438.962 608.837 438.91 608.707C438.858 608.576 438.779 608.459 438.679 608.362C438.578 608.264 438.458 608.189 438.326 608.141C438.194 608.094 438.054 608.074 437.914 608.085C436.285 608.31 434.783 609.061 433.171 609.291C432.921 609.364 432.658 609.376 432.403 609.324C432.148 609.273 431.909 609.161 431.707 608.998C431.044 608.342 431.001 606.921 430.75 606.044C429.935 603.258 428.738 600.603 427.895 597.83C427.07 594.973 426.408 592.072 425.913 589.139C424.752 583.174 424.143 577.114 424.092 571.037C424.134 565.091 423.973 559.152 423.913 553.21C423.786 541.13 423.569 529.028 421.347 517.117C420.218 511.054 418.727 505.063 417.372 499.045C416.713 496.088 416.083 493.124 415.545 490.143C414.945 487.266 414.535 484.352 414.318 481.421C414.186 478.627 415.143 475.823 417.698 474.434C420.045 473.187 422.976 473.311 425.449 474.223C426.926 474.778 428.285 475.606 429.455 476.664C430.73 477.903 431.789 479.347 432.588 480.935C433.906 483.284 435.496 485.461 436.946 487.722C437.661 488.813 438.316 489.943 438.907 491.107C439.5 492.397 440.022 493.718 440.47 495.065C441.474 497.774 442.732 500.339 443.375 503.135C444.019 505.931 444.353 508.834 444.903 511.672C446.092 517.723 447.356 523.837 448.491 529.937C449.567 535.774 449.588 541.717 449.658 547.633C449.686 550.534 449.225 553.422 449.395 556.326C449.565 559.23 449.67 561.967 449.89 564.767C450.448 570.612 451.616 576.383 453.375 581.985C455.098 587.797 456.957 593.582 458.859 599.343C459.821 602.241 460.747 605.154 461.842 608.011C462.429 609.415 462.908 610.862 463.274 612.34C463.555 613.77 463.768 615.212 464.056 616.64C464.635 619.59 465.881 622.291 466.89 625.109C467.373 626.46 467.745 627.847 468.004 629.258C468.171 630.341 468.544 631.382 469.101 632.326C469.766 633.389 470.735 634.244 471.152 635.45C471.491 636.412 471.744 637.462 472.595 638.112C473.271 638.639 474.603 638.26 474.597 637.271C474.475 633.5 474.063 629.744 473.364 626.037C472.728 622.116 472.401 618.174 471.994 614.225C471.173 606.248 469.294 598.44 467.78 590.576C466.994 586.575 466.329 582.55 465.301 578.597C464.253 574.887 462.914 571.265 461.296 567.766C459.729 564.146 458.615 560.437 457.226 556.728C455.838 553.018 454.407 549.371 452.941 545.708C451.392 541.826 451.875 537.403 451.337 533.306C451.16 531.927 448.913 532.643 449.105 533.941C449.325 535.618 449.37 537.329 449.497 539.017C449.557 540.937 449.76 542.851 450.104 544.742C450.526 546.093 451.047 547.411 451.664 548.685C452.419 550.571 453.146 552.47 453.873 554.37C455.266 558.024 456.511 561.762 457.869 565.438C459.228 569.115 461.025 572.422 462.19 576.074C463.325 579.863 464.227 583.717 464.889 587.617C466.38 595.485 468.287 603.312 469.36 611.254C469.964 615.684 470.19 620.156 470.825 624.587C471.44 628.834 472.322 633.044 472.351 637.351L474.361 636.508C473.539 635.884 473.498 634.635 473.036 633.76C472.44 632.565 471.363 631.685 470.817 630.465C470.414 629.268 470.115 628.039 469.923 626.791C469.525 625.35 469.043 623.934 468.477 622.551C467.908 621.092 467.323 619.675 466.889 618.189C466.49 616.733 466.176 615.255 465.949 613.763C465.715 612.235 465.354 610.729 464.869 609.262C464.345 607.794 463.752 606.339 463.221 604.872C461.189 598.93 459.243 592.957 457.383 586.955C455.555 581.085 453.753 575.194 452.769 569.103C452.352 566.135 452.092 563.147 451.992 560.152C451.909 558.731 451.755 557.308 451.694 555.874C451.672 554.43 451.734 552.986 451.881 551.549C452.071 548.518 451.959 545.43 451.897 542.394C451.835 539.359 451.704 536.415 451.38 533.447C451.035 530.372 450.382 527.288 449.781 524.225L447.935 514.831C447.341 511.806 446.807 508.847 446.303 505.843C445.845 502.935 445.059 500.088 443.96 497.357C442.866 494.704 442.047 491.896 440.707 489.355C439.447 486.94 437.821 484.738 436.335 482.453C435.087 480.538 434.128 478.417 432.693 476.633C431.59 475.269 430.248 474.117 428.734 473.232C423.514 470.173 415.655 470.633 412.883 476.754C412.18 478.311 411.862 480.014 411.958 481.72C412.183 484.7 412.589 487.663 413.174 490.593C414.284 496.8 415.8 502.92 417.19 509.073C418.645 515.188 419.739 521.383 420.466 527.627C421.122 533.845 421.342 540.086 421.454 546.333C421.566 552.579 421.563 558.88 421.738 565.129C421.827 568.104 421.633 571.073 421.769 574.046C421.906 577.02 422.187 580.17 422.586 583.202C423.333 589.285 424.381 595.418 426.494 601.216C427.002 602.601 427.539 603.972 428.002 605.374C428.429 606.665 428.645 608.044 429.121 609.309C429.404 610.066 429.95 610.696 430.66 611.084C431.369 611.471 432.194 611.589 432.984 611.418C434.593 611.211 436.068 610.443 437.666 610.223L436.601 609.199C436.616 609.596 437.07 609.107 436.647 609.19L437.491 609.252C436.259 608.575 436.002 607.031 435.567 605.812C434.955 604.362 434.436 602.874 434.016 601.357C433.702 599.761 433.542 598.143 433.243 596.544C432.945 594.945 432.362 593.3 431.911 591.684C430.96 588.281 430.165 584.832 429.118 581.463C428.071 578.095 426.687 574.926 425.392 571.693C424.054 568.5 422.966 565.207 422.138 561.846C421.332 558.344 420.748 554.774 420.057 551.257C419.721 549.548 419.324 547.843 419.124 546.107C418.924 544.371 418.871 542.818 418.696 541.172C418.32 537.656 417.499 534.156 416.794 530.689C416.09 527.222 415.359 523.666 414.653 520.152C413.953 516.863 412.976 513.639 411.731 510.514C410.475 507.281 409.03 504.125 407.579 500.977C406.497 498.629 405.479 496.244 404.332 493.925C402.568 490.344 400.151 486.239 396.137 484.915C393.869 484.166 391.382 484.702 389.147 485.322C386.622 486.022 383.575 487.626 382.711 490.309C382.406 491.457 382.408 492.665 382.716 493.812C383 495.256 383.397 496.679 383.682 498.131C384.353 501.542 385.133 504.915 385.696 508.379C386.258 511.843 386.405 515.309 387.036 518.799C387.373 520.367 387.604 521.957 387.727 523.557C387.738 525.185 387.882 526.809 388.155 528.413C388.565 530.101 388.855 531.816 389.022 533.545C389.14 535.266 389.134 536.995 389.111 538.72C389.065 542.162 389.151 545.64 388.922 549.071C388.693 552.502 388.175 555.745 388.463 559.09C388.658 560.743 388.98 562.379 389.424 563.984C389.827 565.633 390.131 567.301 390.46 568.973C391.832 575.961 393.393 582.944 394.416 589.993C394.931 593.49 395.313 596.997 395.588 600.517C395.756 603.555 396.132 606.578 396.714 609.565C396.925 610.996 397.352 612.388 397.98 613.691C398.608 614.77 399.762 615.085 400.556 615.966C401.349 616.847 401.758 618.086 402.928 618.642C403.983 619.069 405.14 619.178 406.257 618.954C407.429 618.758 408.589 618.493 409.73 618.162C411.074 617.804 412.453 617.627 413.814 617.36C415.451 617.147 417.056 616.74 418.595 616.145C419.26 615.809 419.944 615.512 420.643 615.256C421.518 614.99 422.436 614.904 423.328 614.728C424.947 614.41 426.459 613.713 428.045 613.268C429.631 612.823 431.201 612.498 432.789 612.186C436.153 611.417 439.563 610.862 442.997 610.527C444.693 610.41 446.395 610.435 448.086 610.603C448.824 610.678 449.567 610.705 450.305 610.819C451.042 610.933 451.709 611.368 452.45 611.544C453.154 611.655 453.872 611.644 454.573 611.512C455.366 611.493 456.156 611.634 456.893 611.928C458.293 612.343 459.642 612.91 460.917 613.62C463.402 615.19 464.405 618.017 465.565 620.562C466.264 622.055 466.79 623.622 467.135 625.234C467.412 626.833 467.869 628.395 468.497 629.891C469.263 631.273 469.881 632.731 470.342 634.242C470.727 635.805 471.193 637.347 471.736 638.862C472.928 641.973 474.311 645.006 475.878 647.946C476.602 649.337 477.155 650.811 477.525 652.335C477.874 653.909 478.018 655.522 478.315 657.113C478.584 658.482 480.802 657.779 480.547 656.478L480.642 656.483Z" fill="#D9BC9B"/>
<path d="M822.915 735.41C817.536 732.46 812.702 728.886 807.017 726.46C800.953 723.857 795.222 720.639 789.416 717.514C777.745 711.245 766.031 705.079 753.725 700.175C747.699 697.769 741.738 695.138 735.752 692.654C729.765 690.17 723.538 687.984 717.491 685.472C711.302 682.848 704.955 680.614 698.487 678.782C692.389 677.089 686.195 675.627 680.295 673.306C668.427 668.631 657.939 661.627 647.455 654.488C641.958 650.737 637.477 646.001 633.233 640.912C629.12 635.97 624.987 631.283 621.771 625.67C618.555 620.057 615.033 614.52 612.837 608.424C611.714 605.306 610.759 602.124 609.931 598.909C609.058 595.506 608.573 591.996 607.485 588.659C605.52 582.455 604.508 576.063 603.218 569.695C601.89 563.137 601.146 556.512 600.27 549.85C599.833 546.55 599.804 543.202 599.413 539.893C599.022 536.584 598.322 533.219 597.792 529.882C597.164 526.634 596.78 523.343 596.643 520.038C596.624 516.577 596.249 512.912 596.87 509.514C597.982 503.459 598.26 497.199 598.815 491.065C599.379 484.78 602.195 479.043 602.939 472.793C603.405 469.998 603.53 467.156 603.311 464.331C602.902 460.97 602.839 457.652 602.559 454.267C602.318 451.282 602.106 448.323 601.967 445.334C601.687 441.978 601.169 438.646 600.416 435.364C599.822 432.339 599.461 429.142 598.283 426.263C597.19 423.618 595.624 421.208 594.427 418.631C591.378 412.27 588.346 405.309 587.36 398.292C586.58 392.766 586.668 387.132 586.761 381.568C586.73 376.829 587.028 372.093 587.653 367.395C588.039 364.963 588.606 362.494 589.106 360.079C589.647 357.475 590.416 354.072 592.662 352.35C593.544 351.682 595.36 350.972 596.488 351.316C597.616 351.66 598.002 352.982 598.505 353.865C600.163 356.784 600.511 360.077 601.651 363.2C602.969 366.868 604.105 370.573 605.392 374.247C607.135 378.969 609.188 383.569 611.539 388.02C613.112 390.956 614.516 393.979 615.745 397.075C616.892 400.117 617.93 403.197 619.318 406.145C620.56 408.791 621.893 411.255 622.578 414.145C623.391 417.402 624.617 420.524 625.531 423.777C627.36 430.126 628.468 436.648 629.651 443.147C630.231 446.34 630.694 449.619 631.585 452.751C632.454 455.434 633.526 458.046 634.793 460.565C640.344 472.828 641.925 486.312 646.799 498.81C649.115 504.757 652.164 510.324 654.867 516.124C657.798 522.406 659.686 529.058 662.375 535.426C666.219 544.223 670.508 552.819 675.226 561.18C676.101 562.725 676.891 564.316 677.592 565.947C677.872 566.579 678.098 567.234 678.268 567.904C678.366 568.403 678.207 568.913 678.504 568.745L679.652 568.833C677.807 567.719 677.137 565.706 676.024 563.961C674.68 561.978 673.445 559.924 672.325 557.807C670.16 553.21 668.325 548.465 666.833 543.607C663.724 534.219 660.586 524.883 658.085 515.311C655.46 505.27 653.006 495.014 651.848 484.684C651.317 479.942 650.993 475.174 650.178 470.464C649.311 465.45 648.168 460.475 647.187 455.483C645.168 445.205 643.149 434.926 641.13 424.648C640.165 420.163 638.778 415.78 636.987 411.558C635.174 406.965 632.753 402.641 630.852 398.082C624.874 383.648 620.139 367.54 620.853 351.784C621.016 347.974 620.98 343.833 618.778 340.543C617.044 337.953 613.654 335.414 610.419 335.579C606.895 335.752 604.061 338.681 601.766 341.073C599.601 343.328 597.569 346.1 597.713 349.394C597.816 351.675 598.65 353.923 598.862 356.199C599.073 358.474 599.211 360.694 599.617 362.924C600.174 365.996 600.821 369.05 601.423 372.113C602.881 379.776 604.415 387.345 606.634 394.843C609.544 404.813 612.194 414.865 615.51 424.708C618.699 434.184 622.301 443.523 626.206 452.724C634.157 471.483 643.333 489.68 651.097 508.531C655.072 518.166 658.939 527.853 662.833 537.52C664.587 541.889 666.146 546.389 668.418 550.476C670.69 554.562 673.57 558.026 676.237 561.728C678.678 565.113 681.082 569.275 684.496 571.778C687.91 574.281 692.214 575.76 696.121 577.012C700.566 578.448 705.123 579.493 709.556 580.947C714.243 582.493 718.845 584.244 723.551 585.809C733.153 589.021 742.678 592.444 752.227 595.831C760.924 598.914 769.236 603.117 778.311 605.05C782.926 606.029 787.628 606.291 792.242 607.23C796.857 608.17 801.396 609.36 806.057 610.015C809.955 610.545 813.884 610.834 817.8 611.172C818.581 611.16 819.355 611.325 820.063 611.654L820.303 611.757C820.852 612.073 820.872 612.257 820.407 612.286C820.074 612.588 819.696 612.834 819.286 613.017C817.604 613.792 815.803 614.279 813.96 614.456C809.203 615.155 804.809 614.219 800.181 613.172C795.412 612.09 790.674 610.924 786.004 609.461C776.442 606.493 766.91 603.433 758.003 599.119C749.096 594.804 740.733 589.7 732.043 585.052C723.757 580.771 715.195 577.047 706.413 573.906C697.422 570.558 688.398 568.411 678.778 568.385C673.875 568.374 668.979 568.644 664.08 568.617C658.983 568.582 653.901 568.064 648.809 567.737C638.753 567.089 628.615 566.583 618.69 564.683C608.896 562.813 599.653 559.225 590.562 555.214C578.04 549.693 564.603 543.032 550.513 543.923C544.722 544.275 538.811 546.732 536.764 552.625C534.573 558.908 539.254 564.979 543.713 568.887C548.759 573.3 554.869 576.373 560.135 580.507C566.599 585.58 572.705 591.091 578.411 597.002C583.712 602.473 588.106 608.687 594.479 613.02C597.416 615.012 600.542 616.691 603.483 618.666C607.447 621.328 610.691 624.611 614.019 627.994C615.67 629.681 617.339 631.34 619.01 633.007C620.517 634.518 621.997 636.215 623.801 637.4C625.38 638.441 627.06 639.116 628.577 640.319C629.035 640.748 629.578 641.077 630.171 641.285C630.763 641.494 631.393 641.576 632.019 641.527C633.514 641.383 632.725 639.244 631.378 639.383C630.437 639.474 629.608 638.372 628.881 637.871C628.136 637.37 627.356 636.925 626.546 636.539C624.562 635.374 622.772 633.907 621.238 632.193C617.741 628.709 614.407 625.012 610.768 621.681C605.192 616.571 598.19 613.634 592.408 608.793C589.431 606.314 587.074 603.313 584.533 600.418C582.085 597.632 579.533 594.959 576.856 592.367C571.33 586.914 565.453 581.829 559.263 577.144C553.91 573.129 547.684 570.189 543.059 565.277C540.738 562.818 538.521 559.648 538.511 556.123C538.511 552.761 540.701 549.637 543.562 548.006C549.098 544.837 556.559 545.869 562.494 547.091C568.555 548.383 574.463 550.311 580.12 552.843C588.924 556.714 597.618 560.905 606.795 563.831C615.971 566.757 625.267 568.057 634.741 568.898C644.466 569.737 654.374 570.712 664.171 570.759C673.968 570.806 683.791 569.827 693.492 572.069C702.543 574.155 711.122 577.843 719.687 581.455C728.638 585.273 736.887 590.235 745.412 594.884C753.665 599.39 762.063 603.67 770.973 606.68C780.08 609.737 789.115 612.864 798.521 614.96C805.548 616.54 813.882 618.54 820.666 614.843C821.524 614.376 822.921 613.528 823.03 612.446C823.14 611.364 822.055 610.281 821.215 609.841C818.878 608.541 815.516 608.824 812.922 608.572C808.056 608.164 803.218 607.467 798.435 606.485C794.031 605.423 789.574 604.597 785.082 604.01C780.52 603.517 776.021 602.558 771.654 601.15C767.249 599.721 763.059 597.748 758.742 596.083C749.765 592.615 740.61 589.433 731.505 586.352C722.4 583.27 713.327 579.79 704.053 577.205C699.586 576.063 695.2 574.626 690.923 572.903C688.962 572.167 687.106 571.177 685.403 569.958C683.414 568.393 681.93 566.076 680.45 564.058C677.717 560.345 674.871 556.655 672.312 552.821C669.621 548.802 667.89 544.429 666.093 539.959C658.643 521.51 651.417 502.961 643.112 484.877C634.724 466.612 626.151 448.485 619.432 429.515C616.117 420.159 613.486 410.645 610.711 401.12C608.32 392.949 606.068 384.805 604.454 376.427C603.794 373.069 603.133 369.703 602.517 366.329C601.774 362.547 601.461 358.752 600.975 354.92C600.727 352.981 599.877 351.011 599.987 349.049C600.106 346.897 601.395 345.026 602.817 343.466C603.95 342.176 605.183 340.978 606.504 339.882C608.889 337.945 611.187 337.211 613.942 338.916C617.705 341.24 618.632 345.119 618.633 349.322C618.62 353.252 618.277 357.066 618.708 360.98C619.492 367.946 620.83 374.838 622.71 381.591C625.181 390.226 628.409 398.626 632.355 406.694C634.523 410.982 636.344 415.436 637.8 420.015C639.138 424.544 639.724 429.409 640.634 434.038C642.616 444.127 644.507 454.234 646.577 464.291C648.63 474.06 649.005 484.009 650.857 493.794C654.597 512.962 659.874 531.798 666.636 550.119C668.025 554.184 669.808 558.103 671.959 561.822C673.099 563.625 674.283 565.332 675.315 567.188C676.036 568.614 677.136 569.814 678.494 570.656C678.661 570.766 678.853 570.831 679.053 570.847C679.252 570.863 679.453 570.828 679.635 570.746C681.816 569.532 679.946 565.971 679.229 564.4C677.81 561.415 676.234 558.508 674.509 555.689C671.668 550.614 669.086 545.398 666.773 540.061C663.886 533.723 661.818 527.154 659.194 520.718C656.571 514.281 653.229 508.387 650.472 502.11C647.634 495.661 645.831 488.883 644.07 482.08C642.463 475.512 640.446 469.05 638.031 462.733C636.884 459.817 635.358 457.124 634.328 454.2C633.193 451.061 632.713 447.699 632.109 444.424C630.84 437.525 629.712 430.583 627.794 423.819C626.075 417.747 624.33 411.664 621.572 405.985C620.068 402.887 618.995 399.626 617.774 396.409C616.629 393.485 615.313 390.63 613.832 387.86C611.234 382.969 608.995 377.896 607.135 372.68C605.783 368.719 604.238 364.734 603.124 360.703C602.258 357.574 601.55 354.807 599.842 351.992C598.985 350.589 598.16 349.306 596.361 349.149C591.261 348.698 588.558 352.811 587.324 357.208C585.971 362.088 585.112 367.091 584.76 372.142C584.426 376.842 584.347 381.555 584.346 386.269C584.353 392.905 584.626 399.693 586.815 406.034C589.103 412.403 591.843 418.601 595.014 424.58C596.626 427.664 597.232 430.829 597.876 434.229C598.521 437.629 599.411 441.241 599.607 444.8C599.986 451.528 600.402 458.241 601.058 464.938C601.698 471.434 599.427 477.748 597.713 483.898C596.959 486.97 596.489 490.104 596.308 493.262C596.01 496.581 595.568 499.849 595.38 503.169C595.192 506.49 594.079 509.662 594.155 512.93C594.232 516.199 594.108 519.444 594.49 522.629C595.289 529.777 596.973 536.791 597.495 543.962C597.739 547.245 598.117 550.446 598.621 553.693C599.147 557.093 599.29 560.537 599.848 563.939C600.975 570.716 602.213 577.614 603.85 584.307C604.601 587.45 605.764 590.45 606.465 593.62C607.201 597.128 608.066 600.611 609.109 604.042C611.063 610.469 613.925 616.12 617.241 621.926C620.442 627.542 623.617 632.864 627.838 637.801C632.06 642.737 636.193 647.942 641.147 652.287C643.499 654.25 645.972 656.062 648.553 657.713C651.198 659.503 653.748 661.406 656.438 663.147C667.469 670.325 679.543 675.756 692.232 679.249C698.839 680.91 705.346 682.944 711.723 685.34C718.047 687.861 724.406 690.319 730.729 692.839C737.053 695.36 743.536 698.053 749.899 700.809C756.261 703.565 762.701 706 768.886 709.176C775.072 712.352 781.379 715.59 787.61 718.914C793.377 721.999 799.058 725.211 805.079 727.869C808.13 729.143 811.086 730.63 813.927 732.321C816.558 733.957 819.117 735.708 821.836 737.193C823.139 737.911 824.266 736.126 822.945 735.404L822.915 735.41Z" fill="#D9BC9B"/>
<path d="M603.124 473.66C603.265 473.629 603.399 473.57 603.516 473.487C603.633 473.403 603.732 473.296 603.806 473.172C603.881 473.049 603.929 472.911 603.948 472.768C603.967 472.626 603.957 472.48 603.918 472.341C603.801 472.065 603.586 471.841 603.315 471.713C603.043 471.586 602.734 471.562 602.446 471.649C602.307 471.68 602.175 471.739 602.059 471.823C601.942 471.906 601.844 472.012 601.77 472.135C601.696 472.257 601.647 472.393 601.627 472.535C601.606 472.677 601.615 472.821 601.651 472.96C601.77 473.236 601.984 473.459 602.256 473.588C602.527 473.717 602.836 473.742 603.124 473.66V473.66Z" fill="#D9BC9B"/>
<path d="M661.612 526.15C661.408 526.19 661.935 526.196 661.725 526.127C661.859 526.151 661.991 526.182 662.121 526.222C662.121 526.222 662.189 526.209 662.228 526.288C662.096 526.055 662.041 526.136 661.92 525.916C661.697 525.483 661.542 525.018 661.46 524.538C661.219 522.96 661.152 521.361 661.262 519.769C661.49 515.57 661.964 511.388 662.682 507.244C663.162 504.173 663.715 501.111 664.317 498.055C664.838 495.47 665.293 492.867 665.764 490.269C666.116 488.299 666.5 486.338 666.966 484.392C667.433 482.447 667.975 480.691 668.376 478.813C668.777 476.936 669.097 475.207 669.581 473.431C670.065 471.655 670.81 469.891 671.286 468.077C671.784 466.236 672.037 464.337 672.039 462.43C671.916 460.492 671.619 458.568 671.153 456.682C670.376 452.726 669.924 448.589 668.584 444.767C667.333 441.196 665.385 437.918 663.55 434.618C662.624 432.938 661.701 431.242 660.909 429.489C660.141 427.722 659.464 425.918 658.881 424.082C657.568 420.161 656.315 416.221 654.695 412.415C653.898 410.553 652.874 408.782 652.141 406.892C651.409 405.001 650.986 402.971 650.428 401.007C649.375 397.286 647.501 393.829 646.656 390.005C646.252 388.191 646.017 386.352 645.448 384.578C644.888 382.957 644.059 381.442 642.997 380.095C642.395 379.203 641.638 378.426 640.763 377.801C639.74 377.209 638.569 376.924 637.388 376.979C636.003 377.069 634.628 377.287 633.282 377.628C631.882 377.851 630.524 378.285 629.254 378.915C626.355 380.513 625.736 383.8 625.921 386.859C626.044 388.433 626.267 389.998 626.59 391.543C626.738 392.299 629.048 392.34 628.945 391.779C628.351 388.754 627.66 385.237 628.858 382.299C630.056 379.362 633.248 378.853 636.073 378.282C636.625 378.154 637.186 378.067 637.751 378.023C638.069 377.978 638.394 378.023 638.687 378.153C639.563 378.681 640.293 379.417 640.813 380.297C641.856 381.629 642.662 383.132 643.194 384.738C643.738 386.469 643.974 388.269 644.363 390.007C644.776 391.827 645.329 393.611 646.016 395.346C646.723 397.187 647.516 398.979 648.091 400.869C648.667 402.759 649.057 404.748 649.746 406.616C650.435 408.484 651.522 410.375 652.336 412.281C653.945 416.034 655.197 419.928 656.492 423.797C657.104 425.633 657.711 427.485 658.496 429.24C659.28 430.995 660.147 432.608 661.048 434.237C662.86 437.502 664.79 440.729 666.101 444.242C667.512 448.026 667.989 452.134 668.742 456.087C669.207 457.985 669.521 459.917 669.681 461.865C669.709 463.765 669.479 465.66 668.997 467.498C668.56 469.272 667.841 470.969 667.33 472.727C666.819 474.485 666.478 476.39 666.056 478.24C665.634 480.09 665.14 481.853 664.688 483.67C664.236 485.487 663.862 487.461 663.459 489.41C662.952 492.148 662.488 494.903 661.934 497.643C661.35 500.559 660.823 503.488 660.353 506.429C659.634 510.562 659.141 514.731 658.879 518.918C658.764 520.54 658.797 522.168 658.979 523.784C659.112 524.74 659.299 525.889 660.093 526.535C660.663 526.959 661.367 527.163 662.076 527.111C662.371 527.093 663.112 527.026 662.967 526.567C662.821 526.108 661.884 526.057 661.547 526.06L661.612 526.15Z" fill="#D9BC9B"/>
</svg>
