<svg width="63" height="72" viewBox="0 0 63 72" fill="none" xmlns="http://www.w3.org/2000/svg">
<g clip-path="url(#clip0_168_242)">
<path d="M49.9499 10.6364C45.5972 3.72545 39.4499 0.267271 31.5081 0.261817C23.5663 0.256362 17.4272 3.71454 13.0908 10.6364C9.03808 17.0018 7.01172 25.4182 7.01172 35.8855C7.01172 46.3527 9.02445 54.8073 13.0499 61.2491C17.4135 68.2309 23.5663 71.7245 31.5081 71.73C39.4499 71.7355 45.5972 68.2445 49.9499 61.2573C53.9754 54.8318 55.9881 46.3773 55.9881 35.8936C55.9881 25.41 53.9754 16.9909 49.9499 10.6364ZM34.3635 27.8755L34.5026 27.9327C34.9363 28.0473 35.2635 27.7036 35.509 27.4173C35.7837 27.1077 36.0405 26.7826 36.2781 26.4436C36.7673 25.7446 37.1814 24.9959 37.5135 24.21C38.3308 22.1905 38.833 20.0574 39.0026 17.8855C39.0295 17.0301 39.3148 16.2029 39.8208 15.5127C40.1493 15.1121 40.596 14.8258 41.0972 14.6945C41.3099 14.6373 42.0954 14.4164 42.2835 14.5555C42.4717 14.6945 42.4963 15.0627 42.5699 15.8236C42.6435 16.5845 42.6844 17.3782 42.6844 18.2045C42.6555 21.0166 41.9512 23.7806 40.6308 26.2636C42.0546 25.5809 43.5621 25.0885 45.1144 24.7991C45.9449 24.641 46.7834 24.529 47.6263 24.4636C48.4444 24.4064 49.1399 24.3573 49.7863 24.3245L51.0544 24.2755C51.4308 24.2755 51.6681 24.3491 51.7663 24.4882C51.8922 24.7179 51.9464 24.9801 51.9217 25.2409V27C51.9381 27.3189 51.9381 27.6384 51.9217 27.9573C51.8644 28.4073 51.9217 29.1355 51.5863 29.5036C51.1526 29.9945 50.0972 29.7573 49.549 29.61C48.5473 29.187 47.6041 28.6371 46.7426 27.9736C45.8432 27.4785 44.8622 27.1487 43.8463 27C42.9008 26.9148 41.95 27.0902 41.0972 27.5073C40.6154 27.7161 40.148 27.9567 39.6981 28.2273C39.3054 28.4564 38.6917 28.7427 38.7981 29.3073C38.8329 29.4832 38.9182 29.6453 39.0435 29.7736C40.1282 30.8146 41.4185 31.6172 42.8317 32.13C43.7327 32.4932 44.6672 32.7673 45.6217 32.9482C46.5381 33.1282 47.4299 33.3409 48.3544 33.4636C49.1531 33.5295 49.9259 33.7787 50.6126 34.1918C51.0231 34.4627 51.3554 34.8364 51.5764 35.2756C51.7975 35.7149 51.8996 36.2044 51.8726 36.6954C51.8726 36.8755 51.8726 36.9736 51.799 36.9982C51.6767 37.0329 51.5495 37.0467 51.4226 37.0391L50.1381 37.1127H49.0254C47.6999 37.1279 46.377 36.9934 45.0817 36.7118C43.9212 36.4481 42.7954 36.05 41.7272 35.5255H41.6454H41.5963C41.3181 35.3864 40.7044 35.0836 40.2217 34.83C39.1875 34.2982 38.2019 33.6767 37.2763 32.9727C36.7894 32.5936 36.325 32.1866 35.8854 31.7536C35.0452 31.1424 34.296 30.4152 33.6599 29.5936C33.2508 29.0782 32.6454 28.2109 31.8354 26.9836C32.0807 26.5742 32.302 26.1507 32.4981 25.7155C32.4981 25.7809 32.5717 25.8382 32.6126 25.9036L33.2017 26.7218C33.4948 27.1909 33.8924 27.5857 34.3635 27.8755ZM11.1272 27V25.2573C11.1025 24.9965 11.1567 24.7342 11.2826 24.5045C11.3808 24.3655 11.6181 24.2918 11.9944 24.2918L13.2626 24.3409C13.909 24.3409 14.629 24.4227 15.4226 24.48C16.2654 24.5454 17.104 24.6574 17.9344 24.8155C19.8304 25.1643 21.6569 25.8193 23.3426 26.7545C22.4136 25.0755 21.7616 23.2576 21.4117 21.3709C21.2531 20.5433 21.1411 19.7074 21.0763 18.8673C21.019 18.0491 20.9781 17.3536 20.9372 16.7073C20.8963 16.0609 20.8881 15.6436 20.8881 15.4391C20.8881 15.0627 20.9617 14.8173 21.1008 14.7191C21.3359 14.6006 21.5993 14.5496 21.8617 14.5718H23.6208C23.937 14.5555 24.2537 14.5555 24.5699 14.5718C25.0199 14.6209 25.7481 14.5718 26.1163 14.9073C26.4844 15.2427 26.3699 16.3964 26.2308 16.9445C25.8088 17.9467 25.2588 18.89 24.5944 19.7509C24.1083 20.6368 23.7789 21.6001 23.6208 22.5982C23.5351 23.5499 23.7134 24.5068 24.1363 25.3636C24.3451 25.8454 24.5857 26.3128 24.8563 26.7627C25.0854 27.1555 25.3717 27.7691 25.9363 27.6627C26.1122 27.6279 26.2743 27.5426 26.4026 27.4173C27.4436 26.3326 28.2462 25.0423 28.759 23.6291C29.1173 22.7264 29.3912 21.7924 29.5772 20.8391C29.749 19.9227 29.9699 19.0309 30.0844 18.1064C30.1543 17.3085 30.4032 16.5366 30.8126 15.8482C31.0853 15.4395 31.4593 15.1085 31.8981 14.8877C32.337 14.6668 32.8256 14.5636 33.3163 14.5882C33.4963 14.5882 33.5944 14.5882 33.619 14.6618C33.6414 14.7863 33.6414 14.9137 33.619 15.0382L33.6926 16.3227V17.4355C33.7078 18.7609 33.5733 20.0838 33.2917 21.3791C33.0274 22.5368 32.6293 23.6598 32.1054 24.7255C32.1093 24.7498 32.1093 24.7747 32.1054 24.7991V24.8564C31.9663 25.1345 31.6635 25.7482 31.4099 26.2227C30.8811 27.2587 30.2595 28.2445 29.5526 29.1682C28.8769 30.0289 28.1238 30.8258 27.3026 31.5491C26.8215 32.0277 26.3134 32.4784 25.7808 32.8991C24.8552 33.6031 23.8696 34.2246 22.8354 34.7564C22.3526 35.01 21.739 35.3127 21.4608 35.4518H21.4117H21.3299C20.2642 35.9757 19.1412 36.3739 17.9835 36.6382C16.6883 36.9198 15.3653 37.0543 14.0399 37.0391H12.8617L11.5772 36.9655C11.4503 36.9731 11.3231 36.9593 11.2008 36.9245C11.1517 36.9245 11.1272 36.8018 11.1272 36.6218C11.1002 36.1308 11.2023 35.6413 11.4234 35.202C11.6444 34.7627 11.9767 34.3891 12.3872 34.1182C13.0739 33.7051 13.8467 33.4559 14.6454 33.39C15.5699 33.2673 16.4617 33.0545 17.3781 32.8745C18.3326 32.6936 19.267 32.4196 20.1681 32.0564C21.5813 31.5435 22.8716 30.7409 23.9563 29.7C24.0816 29.5716 24.1669 29.4096 24.2017 29.2336C24.3081 28.6691 23.6944 28.4155 23.3017 28.1536C22.8518 27.883 22.3844 27.6425 21.9026 27.4336C21.0428 27.0418 20.0923 26.8918 19.1535 27C18.1545 27.1543 17.1906 27.4839 16.3063 27.9736C15.4448 28.6371 14.5016 29.187 13.4999 29.61C12.9517 29.7573 11.8635 29.9945 11.4626 29.5036C11.1435 29.1355 11.1844 28.4073 11.1272 27.9573C11.1108 27.6384 11.1108 27.3189 11.1272 27ZM33.6599 53.5091L33.5863 54.8182C33.6082 54.9399 33.6082 55.0646 33.5863 55.1864C33.5863 55.2355 33.4635 55.26 33.2835 55.26C32.7861 55.2918 32.2891 55.1921 31.8424 54.9709C31.3958 54.7498 31.0152 54.4149 30.739 54C30.3248 53.3138 30.0755 52.5408 30.0108 51.7418C29.8881 50.8173 29.6754 49.9255 29.5035 49.0091C29.3176 48.0558 29.0437 47.1218 28.6854 46.2191C28.1725 44.8059 27.3699 43.5156 26.329 42.4309C26.2037 42.3029 26.0399 42.2195 25.8626 42.1936C25.2981 42.0873 25.0444 42.6927 24.7826 43.0936C24.5104 43.5399 24.2698 44.0047 24.0626 44.4845C23.6461 45.3404 23.4707 46.2937 23.5554 47.2418C23.7218 48.2324 24.0566 49.1871 24.5454 50.0645C25.2071 50.9272 25.7569 51.8701 26.1817 52.8709C26.329 53.4191 26.5663 54.5073 26.0754 54.9082C25.7072 55.2355 24.979 55.1945 24.529 55.2436C24.213 55.264 23.8959 55.264 23.5799 55.2436H21.8044C21.5447 55.2661 21.2839 55.215 21.0517 55.0964C20.9126 54.9982 20.839 54.7609 20.839 54.3764C20.839 54.18 20.839 53.7545 20.8881 53.1164C20.9372 52.4782 20.9699 51.75 21.0272 50.9482C21.092 50.108 21.204 49.2721 21.3626 48.4445C21.6528 46.9087 22.1367 45.4159 22.8026 44.0018C20.3282 45.312 17.576 46.0106 14.7763 46.0391C13.9581 46.0391 13.1399 45.9982 12.3954 45.9245C11.6508 45.8509 11.209 45.7527 11.1272 45.6382C11.0454 45.5236 11.209 44.6564 11.2663 44.4518C11.401 43.9522 11.6868 43.5065 12.0844 43.1755C12.7769 42.6679 13.6072 42.3825 14.4654 42.3573C16.6263 42.1947 18.7503 41.7064 20.7654 40.9091C21.5495 40.5766 22.2979 40.1654 22.999 39.6818C23.3402 39.4437 23.668 39.187 23.9808 38.9127C24.2672 38.6673 24.6026 38.34 24.4881 37.9064C24.4762 37.8548 24.4569 37.8052 24.4308 37.7591C24.1191 37.2854 23.7018 36.8905 23.2117 36.6055L22.3935 36.0245L22.2054 35.9018C22.6472 35.6921 23.0737 35.4515 23.4817 35.1818C24.709 36 25.5844 36.5973 26.0999 36.9982C26.9221 37.6497 27.6468 38.4156 28.2517 39.2727C28.6772 39.7088 29.0788 40.1676 29.4544 40.6473C30.1613 41.5709 30.7829 42.5568 31.3117 43.5927C31.5654 44.0673 31.8681 44.6809 32.0072 44.9591V45.0164C32.0087 45.0436 32.0087 45.0709 32.0072 45.0982C32.5312 46.1666 32.9293 47.2924 33.1935 48.4527C33.4953 49.7347 33.6518 51.0466 33.6599 52.3636V53.5091ZM50.6044 45.9245C49.8435 45.9982 49.0499 46.0391 48.2235 46.0391C46.9535 46.029 45.6885 45.878 44.4517 45.5891C43.2446 45.3114 42.0707 44.9055 40.9499 44.3782C41.4678 45.4805 41.8655 46.6353 42.1363 47.8227C42.4249 49.0596 42.5758 50.3245 42.5863 51.5945C42.5863 52.4127 42.5863 53.2309 42.4717 53.9755C42.3572 54.72 42.2999 55.1618 42.1854 55.2436C42.0708 55.3255 41.2035 55.1618 40.999 55.1045C40.4965 54.9765 40.0488 54.6895 39.7226 54.2864C39.2166 53.5962 38.9314 52.769 38.9044 51.9136C38.7268 49.7421 38.222 47.6098 37.4072 45.5891C37.0776 44.8093 36.672 44.0639 36.1963 43.3636C35.959 43.0282 35.6972 42.7009 35.4272 42.39C35.1572 42.0791 34.8544 41.76 34.4208 41.8745L34.2735 41.9318C33.8001 42.2447 33.4076 42.6653 33.1281 43.1591C32.8499 43.5273 32.6535 43.7973 32.539 43.9773L32.4163 44.1655C32.2238 43.7299 32.0052 43.3064 31.7617 42.8973C32.5799 41.67 33.1772 40.8027 33.5781 40.2873C34.1239 39.6063 34.7472 38.9913 35.4354 38.4545C35.8831 37.9451 36.373 37.4744 36.8999 37.0473C37.4154 36.6464 38.2908 36.0409 39.5181 35.2309C39.9253 35.4779 40.349 35.6966 40.7863 35.8855L40.5981 36.0082L39.7799 36.5891C39.2898 36.8742 38.8725 37.2691 38.5608 37.7427C38.5347 37.7888 38.5154 37.8384 38.5035 37.89C38.389 38.3236 38.7244 38.6509 39.0108 38.8964C39.3237 39.1706 39.6514 39.4274 39.9926 39.6655C40.6956 40.1552 41.4468 40.5719 42.2344 40.9091C44.252 41.7248 46.3817 42.2297 48.5508 42.4064C49.409 42.4316 50.2393 42.717 50.9317 43.2245C51.3294 43.5556 51.6151 44.0013 51.7499 44.5009C51.8072 44.7055 52.0199 45.4909 51.889 45.6873C51.7581 45.8836 51.3654 45.8182 50.6044 45.9245Z" fill="#343E5C" fill-opacity="0.8"/>
</g>
<defs>
<clipPath id="clip0_168_242">
<rect width="63" height="72" fill="white"/>
</clipPath>
</defs>
</svg>
