<svg width="40" height="57" viewBox="0 0 40 57" fill="none" xmlns="http://www.w3.org/2000/svg">
<path d="M34.6424 8.42046C31.1878 2.94933 26.309 0.211599 20.006 0.20728C13.703 0.202962 8.83069 2.94069 5.38913 8.42046C2.17268 13.4598 0.564453 20.1227 0.564453 28.4093C0.564453 36.6959 2.16186 43.3891 5.35666 48.4889C8.81986 54.0161 13.703 56.7819 20.006 56.7863C26.309 56.7906 31.1878 54.0269 34.6424 48.4954C37.8372 43.4085 39.4346 36.7154 39.4346 28.4158C39.4346 20.1163 37.8372 13.4511 34.6424 8.42046ZM22.2722 22.0681L22.3826 22.1134C22.7268 22.2041 22.9865 21.9321 23.1813 21.7053C23.3994 21.4602 23.6032 21.2029 23.7917 20.9346C24.18 20.3812 24.5087 19.7885 24.7722 19.1663C25.4209 17.5675 25.8195 15.8788 25.9541 14.1593C25.9754 13.4822 26.2018 12.8273 26.6034 12.2809C26.8641 11.9638 27.2187 11.7371 27.6164 11.6332C27.7852 11.5878 28.4086 11.413 28.558 11.5231C28.7073 11.6332 28.7268 11.9247 28.7852 12.5271C28.8437 13.1294 28.8761 13.7577 28.8761 14.4119C28.8532 16.6382 28.2942 18.8263 27.2463 20.7921C28.3763 20.2516 29.5727 19.8617 30.8047 19.6326C31.4638 19.5075 32.1293 19.4188 32.7982 19.3671C33.4476 19.3217 33.9995 19.2829 34.5125 19.2569L35.519 19.2181C35.8177 19.2181 36.006 19.2764 36.0839 19.3865C36.1839 19.5683 36.2269 19.7759 36.2073 19.9824V21.375C36.2203 21.6275 36.2203 21.8804 36.2073 22.1328C36.1619 22.4891 36.2073 23.0656 35.9411 23.3571C35.5969 23.7457 34.7593 23.5578 34.3242 23.4413C33.5292 23.1064 32.7806 22.671 32.0969 22.1458C31.3831 21.7538 30.6045 21.4927 29.7982 21.375C29.0478 21.3075 28.2932 21.4464 27.6164 21.7766C27.2341 21.9419 26.8631 22.1324 26.506 22.3466C26.1943 22.528 25.7073 22.7547 25.7917 23.2016C25.8194 23.3409 25.8871 23.4692 25.9865 23.5708C26.8474 24.3949 27.8715 25.0303 28.993 25.4363C29.7081 25.7238 30.4498 25.9408 31.2073 26.084C31.9346 26.2265 32.6424 26.3949 33.3761 26.4921C34.01 26.5442 34.6233 26.7415 35.1684 27.0685C35.4941 27.283 35.7578 27.5788 35.9333 27.9266C36.1087 28.2743 36.1898 28.6619 36.1684 29.0506C36.1684 29.1931 36.1684 29.2708 36.1099 29.2902C36.0129 29.3177 35.9119 29.3287 35.8112 29.3226L34.7917 29.3809H33.9086C32.8567 29.3929 31.8067 29.2865 30.7787 29.0635C29.8577 28.8548 28.9642 28.5396 28.1164 28.1243H28.0515H28.0125C27.7917 28.0142 27.3047 27.7746 26.9216 27.5738C26.1008 27.1528 25.3186 26.6608 24.5839 26.1034C24.1976 25.8033 23.829 25.481 23.48 25.1383C22.8133 24.6544 22.2186 24.0787 21.7138 23.4283C21.3891 23.0202 20.9086 22.3336 20.2658 21.3621C20.4605 21.0379 20.6361 20.7027 20.7917 20.3581C20.7917 20.4099 20.8502 20.4552 20.8826 20.5071L21.3502 21.1548C21.5828 21.5261 21.8984 21.8387 22.2722 22.0681ZM3.83069 21.375V19.9953C3.81111 19.7889 3.85409 19.5813 3.95406 19.3994C4.03199 19.2893 4.2203 19.231 4.519 19.231L5.52549 19.2699C6.03848 19.2699 6.60991 19.3347 7.23978 19.38C7.90868 19.4318 8.5742 19.5204 9.23328 19.6456C10.738 19.9218 12.1877 20.4403 13.5255 21.1807C12.7882 19.8515 12.2707 18.4123 11.993 16.9186C11.8671 16.2635 11.7782 15.6017 11.7268 14.9366C11.6813 14.2889 11.6489 13.7383 11.6164 13.2266C11.5839 12.7149 11.5774 12.3846 11.5774 12.2226C11.5774 11.9247 11.6359 11.7303 11.7463 11.6526C11.9329 11.5588 12.1419 11.5184 12.3502 11.536H13.7463C13.9972 11.5231 14.2486 11.5231 14.4995 11.536C14.8567 11.5749 15.4346 11.536 15.7268 11.8016C16.019 12.0672 15.9281 12.9805 15.8177 13.4144C15.4828 14.2078 15.0463 14.9546 14.519 15.6361C14.1332 16.3375 13.8717 17.1001 13.7463 17.8902C13.6782 18.6437 13.8198 19.4012 14.1554 20.0796C14.3211 20.4609 14.512 20.8309 14.7268 21.1872C14.9086 21.4981 15.1359 21.9839 15.5839 21.8997C15.7236 21.8721 15.8522 21.8046 15.9541 21.7053C16.7802 20.8466 17.4172 19.8251 17.8242 18.7064C18.1086 17.9917 18.3259 17.2523 18.4735 16.4976C18.6099 15.7722 18.7852 15.0661 18.8761 14.3342C18.9316 13.7025 19.1291 13.0915 19.4541 12.5465C19.6704 12.2229 19.9673 11.9609 20.3156 11.7861C20.6639 11.6113 21.0517 11.5296 21.4411 11.549C21.5839 11.549 21.6619 11.549 21.6813 11.6073C21.6991 11.7058 21.6991 11.8067 21.6813 11.9052L21.7398 12.9222V13.8031C21.7518 14.8524 21.6451 15.8997 21.4216 16.9251C21.2118 17.8416 20.8958 18.7307 20.48 19.5743C20.4832 19.5936 20.4832 19.6133 20.48 19.6326V19.678C20.3696 19.8982 20.1294 20.384 19.9281 20.7597C19.5084 21.5798 19.015 22.3602 18.4541 23.0915C17.9178 23.7729 17.32 24.4038 16.6683 24.9764C16.2865 25.3553 15.8832 25.7121 15.4606 26.0451C14.7259 26.6025 13.9437 27.0945 13.1229 27.5155C12.7398 27.7163 12.2528 27.9559 12.032 28.066H11.993H11.9281C11.0823 28.4808 10.191 28.796 9.27225 29.0052C8.24425 29.2282 7.19431 29.3346 6.14238 29.3226H5.20731L4.18783 29.2643C4.08714 29.2704 3.98616 29.2594 3.88913 29.2319C3.85017 29.2319 3.83069 29.1348 3.83069 28.9923C3.80926 28.6036 3.8903 28.216 4.06576 27.8683C4.24121 27.5205 4.50494 27.2247 4.83069 27.0102C5.37571 26.6832 5.989 26.4859 6.62289 26.4338C7.35666 26.3366 8.06445 26.1682 8.79173 26.0257C9.54926 25.8825 10.2909 25.6655 11.006 25.378C12.1276 24.972 13.1517 24.3366 14.0125 23.5125C14.112 23.4109 14.1797 23.2826 14.2073 23.1433C14.2917 22.6964 13.8047 22.4956 13.493 22.2883C13.1359 22.0741 12.765 21.8837 12.3826 21.7183C11.7002 21.4081 10.9459 21.2894 10.2008 21.375C9.40794 21.4972 8.64294 21.7581 7.94108 22.1458C7.25736 22.671 6.5088 23.1064 5.7138 23.4413C5.27874 23.5578 4.4151 23.7457 4.09692 23.3571C3.84367 23.0656 3.87614 22.4891 3.83069 22.1328C3.81769 21.8804 3.81769 21.6275 3.83069 21.375ZM21.7138 42.3614L21.6554 43.3977C21.6728 43.4941 21.6728 43.5928 21.6554 43.6892C21.6554 43.7281 21.558 43.7475 21.4151 43.7475C21.0203 43.7727 20.6259 43.6938 20.2714 43.5187C19.9169 43.3436 19.6148 43.0785 19.3956 42.75C19.0669 42.2067 18.8691 41.5948 18.8177 40.9623C18.7203 40.2304 18.5515 39.5243 18.4151 38.7989C18.2675 38.0442 18.0501 37.3048 17.7658 36.5901C17.3588 35.4714 16.7218 34.4498 15.8956 33.5911C15.7962 33.4898 15.6662 33.4238 15.5255 33.4033C15.0774 33.3191 14.8761 33.7984 14.6684 34.1158C14.4523 34.4691 14.2614 34.837 14.0969 35.2169C13.7663 35.8945 13.6271 36.6492 13.6943 37.3998C13.8264 38.184 14.0921 38.9398 14.48 39.6344C15.0052 40.3174 15.4416 41.0639 15.7787 41.8561C15.8956 42.2901 16.0839 43.1516 15.6943 43.469C15.4021 43.7281 14.8242 43.6957 14.4671 43.7346C14.2162 43.7507 13.9646 43.7507 13.7138 43.7346H12.3047C12.0986 43.7523 11.8916 43.7119 11.7073 43.618C11.5969 43.5402 11.5385 43.3524 11.5385 43.048C11.5385 42.8925 11.5385 42.5557 11.5774 42.0505C11.6164 41.5452 11.6424 40.9688 11.6878 40.334C11.7393 39.6689 11.8282 39.0071 11.9541 38.3519C12.1844 37.1361 12.5684 35.9543 13.0969 34.8348C11.1331 35.872 8.94881 36.4251 6.72679 36.4476C6.07744 36.4476 5.42809 36.4152 4.83718 36.3569C4.24627 36.2986 3.89562 36.2209 3.83069 36.1302C3.76575 36.0396 3.89562 35.353 3.94108 35.191C4.04802 34.7955 4.27481 34.4426 4.59043 34.1806C5.13999 33.7787 5.79894 33.5529 6.48004 33.5329C8.19509 33.4041 9.88078 33.0176 11.48 32.3864C12.1024 32.1231 12.6963 31.7976 13.2528 31.4148C13.5236 31.2263 13.7837 31.023 14.032 30.8059C14.2593 30.6116 14.5255 30.3525 14.4346 30.0092C14.4252 29.9684 14.4098 29.9291 14.3891 29.8926C14.1418 29.5176 13.8106 29.205 13.4216 28.9793L12.7722 28.5194L12.6229 28.4223C12.9736 28.2563 13.3121 28.0658 13.6359 27.8523C14.6099 28.5 15.3047 28.9729 15.7138 29.2902C16.3664 29.806 16.9415 30.4124 17.4216 31.0909C17.7593 31.4361 18.078 31.7994 18.3761 32.1791C18.9371 32.9103 19.4305 33.6908 19.8502 34.5109C20.0515 34.8866 20.2917 35.3724 20.4021 35.5926V35.638C20.4033 35.6595 20.4033 35.6812 20.4021 35.7027C20.818 36.5486 21.134 37.4398 21.3437 38.3584C21.5832 39.3733 21.7073 40.4119 21.7138 41.4546V42.3614ZM35.1619 36.3569C34.558 36.4152 33.9281 36.4476 33.2722 36.4476C32.2643 36.4396 31.2603 36.3201 30.2787 36.0914C29.3207 35.8715 28.389 35.5502 27.4995 35.1327C27.9105 36.0054 28.2262 36.9196 28.4411 37.8597C28.6701 38.8388 28.7899 39.8403 28.7982 40.8457C28.7982 41.4934 28.7982 42.1411 28.7073 42.7306C28.6164 43.32 28.5709 43.6698 28.48 43.7346C28.3891 43.7993 27.7008 43.6698 27.5385 43.6244C27.1397 43.5231 26.7843 43.2959 26.5255 42.9767C26.1239 42.4303 25.8975 41.7755 25.8761 41.0983C25.7352 39.3791 25.3345 37.6911 24.6878 36.0914C24.4263 35.474 24.1044 34.8839 23.7268 34.3296C23.5385 34.064 23.3307 33.8049 23.1164 33.5588C22.9021 33.3126 22.6619 33.06 22.3177 33.1507L22.2008 33.196C21.8251 33.4437 21.5136 33.7767 21.2917 34.1676C21.0709 34.4591 20.9151 34.6729 20.8242 34.8153L20.7268 34.9643C20.574 34.6196 20.4006 34.2843 20.2073 33.9604C20.8567 32.9888 21.3307 32.3022 21.6489 31.8941C22.0821 31.355 22.5768 30.8681 23.1229 30.4432C23.4783 30.0399 23.8671 29.6672 24.2852 29.3291C24.6943 29.0117 25.3891 28.5324 26.3632 27.8911C26.6864 28.0867 27.0226 28.2598 27.3696 28.4093L27.2203 28.5065L26.5709 28.9664C26.182 29.1921 25.8508 29.5047 25.6034 29.8797C25.5827 29.9161 25.5674 29.9554 25.558 29.9963C25.4671 30.3396 25.7333 30.5986 25.9606 30.793C26.2089 31.0101 26.469 31.2133 26.7398 31.4018C27.2977 31.7895 27.8939 32.1194 28.519 32.3864C30.1203 33.0322 31.8105 33.4318 33.532 33.5717C34.2131 33.5917 34.872 33.8176 35.4216 34.2194C35.7372 34.4815 35.964 34.8344 36.0709 35.2299C36.1164 35.3918 36.2852 36.0136 36.1813 36.1691C36.0774 36.3246 35.7658 36.2727 35.1619 36.3569Z" fill="#D9BC9B"/>
</svg>
