<svg width="605" height="570" viewBox="0 0 605 570" fill="none" xmlns="http://www.w3.org/2000/svg">
<path d="M80.7895 502.544C82.4392 501.41 83.7831 499.886 84.7016 498.107C85.8716 495.89 87.1518 493.732 88.5375 491.643C91.0432 487.844 93.8022 484.215 96.3727 480.466C97.7824 478.579 99.0092 476.563 100.036 474.444C100.923 472.4 101.766 470.333 102.601 468.268C104.393 463.832 106.176 459.396 108.339 455.13C112.183 447.51 121.262 444.941 126.531 438.533C131.285 432.744 133.148 425.316 134.397 418.08C135.105 413.966 135.916 409.816 136.44 405.684C136.974 401.117 137.029 396.507 136.604 391.928C136.228 387.336 135.552 382.772 134.893 378.22C134.558 375.78 134.431 373.316 134.514 370.855C134.678 368.571 134.651 366.277 134.432 363.998C133.775 359.414 131.62 355.321 130.459 350.891C130.248 349.807 129.868 348.763 129.333 347.797C128.755 346.858 128.13 345.952 127.558 345.004C126.315 342.905 125.345 340.657 124.673 338.312C124.43 337.233 124.111 336.172 123.719 335.138C123.283 334.194 122.844 333.244 122.444 332.246C121.378 329.659 120.482 327.015 119.496 324.397C118.678 322.148 117.747 319.943 116.705 317.789C115.597 315.587 114.165 313.575 112.895 311.468C102.986 295.057 101.798 275.417 98.6673 256.92C97.8893 252.36 96.9934 247.76 95.8101 243.256C95.6158 242.331 95.3381 241.426 94.9803 240.552C94.5766 239.696 93.8867 238.983 93.5132 238.122C92.6655 236.246 94.58 235.155 96.1072 234.573C104.471 231.405 112.264 237.683 116.558 244.427C121.094 251.525 122.97 259.875 125.215 267.863C126.366 272.197 127.805 276.448 129.522 280.59C130.437 282.632 131.227 284.728 131.886 286.866C132.529 289.096 132.923 291.061 134.22 293.029C135.518 294.997 137.065 296.594 138.42 298.41C139.954 300.465 141.399 302.537 142.782 304.622C145.435 308.688 147.885 312.881 150.313 317.086C151.515 319.206 152.717 321.326 153.987 323.433C155.08 325.238 156.797 326.542 157.989 328.287C159.198 329.909 160.301 331.608 161.289 333.373C162.511 335.926 163.386 338.631 163.891 341.416C164.843 345.942 165.215 350.394 167.324 354.575C169.195 358.26 172.26 361.507 174.895 364.682C180.441 371.361 186.319 377.771 191.594 384.668C196.869 391.565 201.493 399.07 204.388 407.291C207.635 416.73 208.565 426.812 207.1 436.686C206.858 438.876 206.406 441.038 205.752 443.141C204.931 445.478 204.017 447.786 203.198 450.131C202.408 452.332 201.769 454.583 201.285 456.87C200.766 459.351 199.947 461.759 198.845 464.042C196.707 468.672 194.066 473.063 191.533 477.481C188.999 481.898 186.299 486.545 183.729 491.095C178.952 499.528 175.03 508.514 168.875 516.008C165.939 519.617 162.737 522.987 159.702 526.49C156.584 530.119 153.844 534.055 151.523 538.238C149.269 542.239 147.14 546.318 144.502 550.08C142.011 553.633 138.701 557.418 134.528 558.968C133.73 559.266 132.932 559.439 132.167 559.785C131.719 560.072 131.178 560.178 130.654 560.082C128.974 559.525 129.763 555.544 129.948 554.369C130.71 549.93 133 545.914 135.208 542.119C144.847 525.567 157.666 511.25 169.398 496.236C175.672 488.337 182.743 481.104 190.498 474.652C198.032 468.302 206.345 462.67 213.284 455.651C216.935 451.965 220.449 448.14 223.927 444.291C227.051 440.698 229.84 436.826 232.259 432.726C234.752 428.662 237.057 424.478 239.319 420.279C241.581 416.079 244.44 412.038 247.118 408C252.825 399.503 258.001 390.663 263.68 382.147C266.362 378.125 269.353 374.278 271.769 370.103C272.833 368.506 273.784 366.837 274.613 365.106C275.425 363.124 275.678 360.969 276.167 358.902C278.333 349.655 281.644 340.717 284.518 331.677C285.847 327.488 286.869 323.211 288.124 319.005C289.217 315.334 290.98 311.83 291.458 307.989C291.736 306.196 291.563 304.362 290.953 302.654C290.343 300.945 289.316 299.416 287.965 298.204C286.1 296.388 283.66 295.278 281.065 295.067C275.936 294.833 271.541 298.572 268.317 302.151C264.5 306.557 261.208 311.392 258.509 316.559C257.244 318.757 256.139 321.043 255.202 323.399C253.516 327.933 252.119 332.575 250.51 337.14C248.943 341.557 247.365 346.399 244.419 350.12C242.887 352.078 240.73 353.413 238.725 354.844C236.721 356.275 234.855 357.615 232.971 359.061L234.027 358.917C233.631 358.857 233.244 358.751 232.873 358.601C232.598 358.522 232.6 358.529 232.873 358.601C233.27 358.783 233.236 358.53 232.745 357.951C232.59 357.518 232.448 357.075 232.305 356.631C231.706 354.738 231.226 352.814 230.582 350.937C230.142 349.657 227.992 349.749 228.459 351.205C229.194 353.347 229.706 355.555 230.449 357.695C230.647 358.6 231.01 359.461 231.521 360.234C231.996 360.614 232.571 360.847 233.177 360.906C234.823 361.29 236.17 359.588 237.447 358.653C239.511 357.164 241.583 355.712 243.638 354.177C247.538 351.243 249.381 346.427 251.124 342.024C252.972 337.317 254.44 332.472 256.085 327.695C258.13 321.98 260.861 316.535 264.219 311.479C267.333 306.657 271.124 301.246 276.355 298.521C277.388 297.919 278.534 297.534 279.722 297.391C280.91 297.248 282.114 297.35 283.261 297.691C284.99 298.266 286.501 299.354 287.595 300.811C288.688 302.268 289.311 304.024 289.38 305.844C289.402 309.956 287.322 313.845 286.113 317.688C284.814 321.87 283.84 326.107 282.544 330.266C279.64 339.477 276.234 348.606 274.019 358.043C273.52 360.184 273.31 362.432 272.364 364.456C271.416 366.387 270.37 368.267 269.23 370.091C268.019 372.207 266.415 374.156 265.026 376.164C263.486 378.399 261.973 380.653 260.487 382.924C254.763 391.613 249.431 400.539 243.65 409.177C242.282 411.213 240.856 413.229 239.541 415.294C238.227 417.359 237.041 419.838 235.796 422.102C233.401 426.5 230.908 430.807 228.17 434.982C225.232 439.276 221.943 443.319 218.338 447.07C214.809 451.015 211.049 454.747 207.078 458.245C199.444 464.772 191.026 470.503 183.838 477.539C180.254 481.048 176.497 484.394 173.12 488.113C169.742 491.832 166.89 495.825 163.8 499.692C157.632 507.361 151.268 514.95 145.329 522.865C142.394 526.795 139.559 530.801 136.906 534.927C134.218 538.907 131.841 543.087 129.795 547.432C128.302 550.867 126.681 555.569 127.715 559.317C128.52 562.214 130.985 562.806 133.469 561.737C135.098 561.032 136.759 560.65 138.318 559.669C140.181 558.445 141.866 556.969 143.325 555.284C146.505 551.76 148.903 547.692 151.225 543.52C153.548 539.348 155.797 535.002 158.759 531.208C161.721 527.413 164.976 524.111 168.086 520.585C171.197 517.127 173.986 513.392 176.419 509.428C179.072 504.979 181.279 500.217 183.813 495.682C188.934 486.483 194.607 477.537 199.422 468.178C200.495 466.092 201.459 463.952 202.31 461.766C203.227 459.395 203.578 456.906 204.285 454.466C205.622 449.836 207.854 445.446 208.744 440.699C210.629 431.072 210.34 421.146 207.899 411.644C203.272 394.29 191.283 380.888 179.908 367.569C176.999 364.158 174.124 360.717 171.413 357.157C169.983 355.345 168.844 353.322 168.036 351.159C167.178 348.791 166.943 346.197 166.498 343.732C165.587 338.734 164.269 334.147 161.422 329.891C160.392 328.151 159.209 326.507 157.888 324.976C157.143 324.305 156.47 323.558 155.879 322.748C155.117 321.546 154.438 320.289 153.726 319.062C148.7 310.356 143.715 301.572 137.288 293.809C135.824 292.11 134.799 290.078 134.303 287.891C133.675 285.521 132.86 283.204 131.866 280.963C130.951 278.786 129.945 276.627 129.197 274.417C128.449 272.208 127.943 269.951 127.315 267.717C125.023 259.527 123.066 250.964 118.442 243.703C116.309 240.36 113.572 237.025 110.24 234.82C106.908 232.616 102.604 231.097 98.7021 231.628C96.1402 231.982 92.6299 232.946 91.3969 235.467C90.6906 236.909 91.0432 238.144 91.8278 239.459C92.3764 240.242 92.8436 241.079 93.222 241.958C93.627 243.245 93.9651 244.552 94.2351 245.875C96.5231 255.362 97.6903 265.062 99.21 274.676C100.706 284.131 102.559 293.562 106.096 302.49C107.915 306.994 110.19 311.301 112.886 315.342C115.814 319.81 117.409 324.972 119.262 329.925C120.133 332.237 121.38 334.505 122.07 336.86C122.678 339.09 123.451 341.273 124.382 343.389C125.306 345.415 126.756 347.117 127.714 349.113C128.168 350.322 128.537 351.562 128.82 352.823C129.217 354.088 129.682 355.332 130.137 356.57C130.891 358.498 131.511 360.476 131.991 362.49C132.569 365.15 132.372 367.828 132.306 370.527C132.21 372.793 132.309 375.062 132.601 377.311C132.954 379.826 133.33 382.337 133.66 384.856C134.388 389.81 134.722 394.814 134.659 399.82C134.538 404.439 133.581 408.924 132.865 413.479C131.668 421.138 130.354 429.204 125.747 435.662C123.209 439.217 119.719 441.685 116.158 444.113C112.84 446.336 109.363 448.708 107.238 452.205C104.78 456.246 103.082 460.876 101.315 465.277C100.453 467.41 99.5994 469.541 98.7064 471.673C97.6344 474.111 96.3167 476.433 94.7737 478.604C92.2152 482.374 89.4547 485.996 86.9324 489.79C85.6516 491.707 84.4341 493.667 83.3313 495.69C82.8739 496.755 82.3103 497.771 81.6491 498.723C80.9171 499.491 80.1038 500.178 79.2235 500.77C78.1656 501.583 79.7331 503.365 80.7834 502.553L80.7895 502.544Z" fill="#D9BC9B"/>
<path d="M230.642 351.483C230.319 349.842 230.188 348.171 229.812 346.54C229.427 344.994 228.87 343.497 228.149 342.075C226.699 339.093 225.048 336.244 223.951 333.097C223.418 331.544 222.983 329.972 222.608 328.381C222.16 326.864 221.539 325.405 220.756 324.031C220.117 322.555 219.668 321.005 219.417 319.416C219.073 317.848 218.562 316.321 217.894 314.861C216.717 312.233 215.679 309.507 213.432 307.584C212.376 306.753 211.187 306.108 209.915 305.675C208.537 305.01 207.063 304.566 205.548 304.357C204.831 304.309 204.1 304.586 203.402 304.472C202.704 304.358 202.096 303.943 201.411 303.772C199.799 303.483 198.167 303.331 196.53 303.317C193.164 303.271 189.805 303.61 186.516 304.326C183.204 304.869 179.924 305.594 176.692 306.499C175.13 307.052 173.536 307.509 171.918 307.869C171.154 307.991 170.403 308.183 169.675 308.443C168.945 308.728 168.238 309.126 167.51 309.418C165.853 309.944 164.149 310.311 162.422 310.512C161.174 310.757 159.949 310.998 158.722 311.31C157.624 311.663 156.484 311.871 155.332 311.929C154.052 311.929 153.651 311.167 152.988 310.19C152.659 309.676 152.241 309.226 151.753 308.861C151.221 308.56 150.727 308.195 150.283 307.775C149.494 306.839 149.308 305.092 149.047 303.926C148.469 300.938 148.093 297.916 147.921 294.878C147.317 287.854 146.304 280.872 144.889 273.966L142.793 263.294C142.464 261.623 142.138 259.959 141.75 258.307C141.305 256.703 140.984 255.067 140.789 253.413C140.516 250.026 141.141 246.612 141.327 243.237C141.512 239.863 141.445 236.443 141.481 233.066C141.502 231.334 141.475 229.595 141.347 227.869C141.195 226.197 140.919 224.54 140.522 222.909C140.237 221.271 140.082 219.612 140.059 217.949C139.925 216.327 139.694 214.715 139.369 213.12C138.75 209.731 138.582 206.276 138.048 202.878C137.514 199.479 136.711 196.071 136.035 192.629C135.746 191.162 135.384 189.717 135.058 188.257C134.802 187.153 134.612 185.988 135.319 184.986C136.907 182.717 140.227 181.979 142.832 181.687C147.051 181.212 149.843 185.384 151.561 188.613C152.608 190.544 153.467 192.559 154.376 194.548C155.784 197.712 157.301 200.839 158.643 204.032C160.001 207.177 161.114 210.422 161.972 213.739C162.829 217.183 163.412 220.706 164.127 224.187C164.842 227.667 165.554 231.094 166.167 234.571C166.779 238.048 166.754 241.36 167.416 244.726C168.104 248.228 168.79 251.722 169.478 255.224C170.143 258.641 171.112 261.991 172.372 265.236C173.588 268.469 175.003 271.632 176.17 274.89C177.336 278.149 178.207 281.662 179.107 285.083C179.554 286.762 180.017 288.439 180.532 290.097C180.971 291.655 181.284 293.246 181.466 294.855C181.674 296.489 182.082 298.092 182.679 299.628C183.231 300.996 183.61 302.446 184.204 303.79C184.619 304.745 185.561 306.179 186.712 306.282C187.005 306.296 187.298 306.25 187.573 306.148C187.847 306.045 188.098 305.888 188.311 305.685C188.523 305.483 188.692 305.239 188.807 304.97C188.922 304.7 188.981 304.41 188.981 304.116C188.986 303.976 188.962 303.837 188.91 303.707C188.858 303.576 188.779 303.459 188.679 303.362C188.578 303.264 188.458 303.189 188.326 303.141C188.194 303.094 188.054 303.074 187.914 303.085C186.285 303.31 184.783 304.061 183.171 304.291C182.921 304.364 182.658 304.376 182.403 304.324C182.148 304.273 181.909 304.161 181.707 303.998C181.044 303.342 181.001 301.921 180.75 301.044C179.935 298.258 178.738 295.603 177.895 292.83C177.07 289.973 176.408 287.072 175.913 284.139C174.752 278.174 174.143 272.114 174.092 266.037C174.134 260.091 173.973 254.152 173.913 248.21C173.786 236.13 173.569 224.028 171.347 212.117C170.218 206.054 168.727 200.063 167.372 194.045C166.713 191.088 166.083 188.124 165.545 185.143C164.945 182.266 164.535 179.352 164.318 176.421C164.186 173.627 165.143 170.823 167.698 169.434C170.045 168.187 172.976 168.311 175.449 169.223C176.926 169.778 178.285 170.606 179.455 171.664C180.73 172.903 181.789 174.347 182.588 175.935C183.906 178.284 185.496 180.461 186.946 182.722C187.661 183.813 188.316 184.943 188.907 186.107C189.5 187.397 190.022 188.718 190.47 190.065C191.474 192.774 192.732 195.339 193.375 198.135C194.019 200.931 194.353 203.834 194.903 206.672C196.092 212.723 197.356 218.837 198.491 224.937C199.567 230.774 199.588 236.717 199.658 242.633C199.686 245.534 199.225 248.422 199.395 251.326C199.565 254.23 199.67 256.967 199.89 259.767C200.448 265.612 201.616 271.383 203.375 276.985C205.098 282.797 206.957 288.582 208.859 294.343C209.821 297.241 210.747 300.154 211.842 303.011C212.429 304.415 212.908 305.862 213.274 307.34C213.555 308.77 213.768 310.212 214.056 311.64C214.635 314.59 215.881 317.291 216.89 320.109C217.373 321.46 217.745 322.847 218.004 324.258C218.171 325.341 218.544 326.382 219.101 327.326C219.766 328.389 220.735 329.244 221.152 330.45C221.491 331.412 221.744 332.462 222.595 333.112C223.271 333.639 224.603 333.26 224.597 332.271C224.475 328.5 224.063 324.744 223.364 321.037C222.728 317.116 222.401 313.174 221.994 309.225C221.173 301.248 219.294 293.44 217.78 285.576C216.994 281.575 216.329 277.55 215.301 273.597C214.253 269.887 212.914 266.265 211.296 262.766C209.729 259.146 208.615 255.437 207.226 251.728C205.838 248.018 204.407 244.371 202.941 240.708C201.392 236.826 201.875 232.403 201.337 228.306C201.16 226.927 198.913 227.643 199.105 228.941C199.325 230.618 199.37 232.329 199.497 234.017C199.557 235.937 199.76 237.851 200.104 239.742C200.526 241.093 201.047 242.411 201.664 243.685C202.419 245.571 203.146 247.47 203.873 249.37C205.266 253.024 206.511 256.762 207.869 260.438C209.228 264.115 211.025 267.422 212.19 271.074C213.325 274.863 214.227 278.717 214.889 282.617C216.38 290.485 218.287 298.312 219.36 306.254C219.964 310.684 220.19 315.156 220.825 319.587C221.44 323.834 222.322 328.044 222.351 332.351L224.361 331.508C223.539 330.884 223.498 329.635 223.036 328.76C222.44 327.565 221.363 326.685 220.817 325.465C220.414 324.268 220.115 323.039 219.923 321.791C219.525 320.35 219.043 318.934 218.477 317.551C217.908 316.092 217.323 314.675 216.889 313.189C216.49 311.733 216.176 310.255 215.949 308.763C215.715 307.235 215.354 305.729 214.869 304.262C214.345 302.794 213.752 301.339 213.221 299.873C211.189 293.93 209.243 287.957 207.383 281.955C205.555 276.085 203.753 270.194 202.769 264.103C202.352 261.135 202.092 258.147 201.992 255.152C201.909 253.731 201.755 252.308 201.694 250.874C201.672 249.43 201.734 247.986 201.881 246.549C202.071 243.518 201.959 240.43 201.897 237.394C201.835 234.359 201.704 231.415 201.38 228.447C201.035 225.372 200.382 222.288 199.781 219.225L197.935 209.831C197.341 206.806 196.807 203.847 196.303 200.843C195.845 197.935 195.059 195.088 193.96 192.357C192.866 189.704 192.047 186.896 190.707 184.355C189.447 181.94 187.821 179.738 186.335 177.453C185.087 175.538 184.128 173.417 182.693 171.633C181.59 170.269 180.248 169.117 178.734 168.232C173.514 165.173 165.655 165.633 162.883 171.754C162.18 173.311 161.862 175.014 161.958 176.72C162.183 179.7 162.589 182.663 163.174 185.593C164.284 191.8 165.8 197.92 167.19 204.073C168.645 210.188 169.739 216.383 170.466 222.627C171.122 228.845 171.342 235.086 171.454 241.333C171.566 247.579 171.563 253.88 171.738 260.129C171.827 263.104 171.633 266.073 171.769 269.046C171.906 272.02 172.187 275.17 172.586 278.202C173.333 284.285 174.381 290.418 176.494 296.216C177.002 297.601 177.539 298.972 178.002 300.374C178.429 301.665 178.645 303.044 179.121 304.309C179.404 305.066 179.95 305.696 180.66 306.084C181.369 306.471 182.194 306.589 182.984 306.418C184.593 306.211 186.068 305.443 187.666 305.223L186.601 304.199C186.616 304.596 187.07 304.107 186.647 304.19L187.491 304.252C186.259 303.575 186.002 302.031 185.567 300.812C184.955 299.362 184.436 297.874 184.016 296.357C183.702 294.761 183.542 293.143 183.243 291.544C182.945 289.945 182.362 288.3 181.911 286.684C180.96 283.281 180.165 279.832 179.118 276.463C178.071 273.095 176.687 269.926 175.392 266.693C174.054 263.5 172.966 260.207 172.138 256.846C171.332 253.344 170.748 249.774 170.057 246.257C169.721 244.548 169.324 242.843 169.124 241.107C168.924 239.371 168.871 237.818 168.696 236.172C168.32 232.656 167.499 229.156 166.794 225.689C166.09 222.222 165.359 218.666 164.653 215.152C163.953 211.863 162.976 208.639 161.731 205.514C160.475 202.281 159.03 199.125 157.579 195.977C156.497 193.629 155.479 191.244 154.332 188.925C152.568 185.344 150.151 181.239 146.137 179.915C143.869 179.166 141.382 179.702 139.147 180.322C136.622 181.022 133.575 182.626 132.711 185.309C132.406 186.457 132.408 187.665 132.716 188.812C133 190.256 133.397 191.679 133.682 193.131C134.353 196.542 135.133 199.915 135.696 203.379C136.258 206.843 136.405 210.309 137.036 213.799C137.373 215.367 137.604 216.957 137.727 218.557C137.738 220.185 137.882 221.809 138.155 223.413C138.565 225.101 138.855 226.816 139.022 228.545C139.14 230.266 139.134 231.995 139.111 233.72C139.065 237.162 139.151 240.64 138.922 244.071C138.693 247.502 138.175 250.745 138.463 254.09C138.658 255.743 138.98 257.379 139.424 258.984C139.827 260.633 140.131 262.301 140.46 263.973C141.832 270.961 143.393 277.944 144.416 284.993C144.931 288.49 145.313 291.997 145.588 295.517C145.756 298.555 146.132 301.578 146.714 304.565C146.925 305.996 147.352 307.388 147.98 308.691C148.608 309.77 149.762 310.085 150.556 310.966C151.349 311.847 151.758 313.086 152.928 313.642C153.983 314.069 155.14 314.178 156.257 313.954C157.429 313.758 158.589 313.493 159.73 313.162C161.074 312.804 162.453 312.627 163.814 312.36C165.451 312.147 167.056 311.74 168.595 311.145C169.26 310.809 169.944 310.512 170.643 310.256C171.518 309.99 172.436 309.904 173.328 309.728C174.947 309.41 176.459 308.713 178.045 308.268C179.631 307.823 181.201 307.498 182.789 307.186C186.153 306.417 189.563 305.862 192.997 305.527C194.693 305.41 196.395 305.435 198.086 305.603C198.824 305.678 199.567 305.705 200.305 305.819C201.042 305.933 201.709 306.368 202.45 306.544C203.154 306.655 203.872 306.644 204.573 306.512C205.366 306.493 206.156 306.634 206.893 306.928C208.293 307.343 209.642 307.91 210.917 308.62C213.402 310.19 214.405 313.017 215.565 315.562C216.264 317.055 216.79 318.622 217.135 320.234C217.412 321.833 217.869 323.395 218.497 324.891C219.263 326.273 219.881 327.731 220.342 329.242C220.727 330.805 221.193 332.347 221.736 333.862C222.928 336.973 224.311 340.006 225.878 342.946C226.602 344.337 227.155 345.811 227.525 347.335C227.874 348.909 228.018 350.522 228.315 352.113C228.584 353.482 230.802 352.779 230.547 351.478L230.642 351.483Z" fill="#D9BC9B"/>
<path d="M572.915 430.41C567.536 427.46 562.702 423.886 557.017 421.46C550.953 418.857 545.222 415.639 539.416 412.514C527.745 406.245 516.031 400.078 503.725 395.175C497.699 392.769 491.738 390.138 485.752 387.654C479.765 385.17 473.538 382.984 467.491 380.472C461.302 377.848 454.955 375.614 448.487 373.782C442.389 372.089 436.195 370.627 430.295 368.306C418.427 363.631 407.939 356.627 397.455 349.488C391.958 345.737 387.477 341.001 383.233 335.912C379.12 330.97 374.987 326.283 371.771 320.67C368.555 315.057 365.033 309.52 362.837 303.424C361.714 300.306 360.759 297.124 359.931 293.909C359.058 290.506 358.573 286.996 357.485 283.659C355.52 277.455 354.508 271.063 353.218 264.695C351.89 258.137 351.146 251.512 350.27 244.85C349.833 241.55 349.804 238.202 349.413 234.893C349.022 231.584 348.322 228.219 347.792 224.882C347.164 221.634 346.78 218.343 346.643 215.038C346.624 211.577 346.249 207.912 346.87 204.514C347.982 198.459 348.26 192.199 348.815 186.065C349.379 179.78 352.195 174.043 352.939 167.793C353.405 164.998 353.53 162.156 353.311 159.331C352.902 155.97 352.839 152.652 352.559 149.267C352.318 146.282 352.106 143.323 351.967 140.334C351.687 136.978 351.169 133.646 350.416 130.364C349.822 127.339 349.461 124.142 348.283 121.263C347.19 118.618 345.624 116.208 344.427 113.631C341.378 107.27 338.346 100.309 337.36 93.2919C336.58 87.7657 336.668 82.1321 336.761 76.5681C336.73 71.8288 337.028 67.093 337.653 62.395C338.039 59.9626 338.606 57.4945 339.106 55.0791C339.647 52.4749 340.416 49.0718 342.662 47.3501C343.544 46.6819 345.36 45.9716 346.488 46.3156C347.616 46.6596 348.002 47.982 348.505 48.865C350.163 51.7836 350.511 55.0771 351.651 58.1995C352.969 61.8682 354.105 65.5726 355.392 69.2472C357.135 73.9686 359.188 78.5694 361.539 83.0195C363.112 85.9556 364.516 88.979 365.745 92.075C366.892 95.1173 367.93 98.197 369.318 101.145C370.56 103.791 371.893 106.255 372.578 109.145C373.391 112.402 374.617 115.524 375.531 118.777C377.36 125.126 378.468 131.648 379.651 138.147C380.231 141.34 380.694 144.619 381.585 147.751C382.454 150.434 383.526 153.046 384.793 155.565C390.344 167.828 391.925 181.312 396.799 193.81C399.115 199.757 402.164 205.324 404.867 211.124C407.798 217.406 409.686 224.058 412.375 230.426C416.219 239.223 420.508 247.819 425.226 256.18C426.101 257.725 426.891 259.316 427.592 260.947C427.872 261.579 428.098 262.234 428.268 262.904C428.366 263.403 428.207 263.913 428.504 263.745L429.652 263.833C427.807 262.719 427.137 260.706 426.024 258.961C424.68 256.978 423.445 254.924 422.325 252.807C420.16 248.21 418.325 243.465 416.833 238.607C413.724 229.219 410.586 219.883 408.085 210.311C405.46 200.27 403.006 190.014 401.848 179.684C401.317 174.942 400.993 170.174 400.178 165.464C399.311 160.45 398.168 155.475 397.187 150.483C395.168 140.205 393.149 129.926 391.13 119.648C390.165 115.163 388.778 110.78 386.987 106.558C385.174 101.965 382.753 97.6413 380.852 93.0818C374.874 78.648 370.139 62.5405 370.853 46.7841C371.016 42.9738 370.98 38.8333 368.778 35.5425C367.044 32.9532 363.654 30.4142 360.419 30.5785C356.895 30.7524 354.061 33.6814 351.766 36.0726C349.601 38.3281 347.569 41.0996 347.713 44.3939C347.816 46.6753 348.65 48.923 348.862 51.1987C349.073 53.4744 349.211 55.694 349.617 57.9235C350.174 60.9956 350.821 64.0498 351.423 67.1129C352.881 74.7758 354.415 82.3453 356.634 89.843C359.544 99.8131 362.194 109.865 365.51 119.708C368.699 129.184 372.301 138.523 376.206 147.724C384.157 166.483 393.333 184.68 401.097 203.531C405.072 213.166 408.939 222.853 412.833 232.52C414.587 236.889 416.146 241.389 418.418 245.476C420.69 249.562 423.57 253.026 426.237 256.728C428.678 260.113 431.082 264.275 434.496 266.778C437.91 269.281 442.214 270.76 446.121 272.012C450.566 273.448 455.123 274.493 459.556 275.947C464.243 277.493 468.845 279.244 473.551 280.809C483.153 284.021 492.678 287.444 502.228 290.831C510.924 293.914 519.236 298.117 528.311 300.05C532.926 301.029 537.628 301.291 542.242 302.23C546.857 303.17 551.396 304.36 556.057 305.015C559.955 305.545 563.884 305.834 567.8 306.172C568.581 306.16 569.355 306.325 570.063 306.654L570.303 306.757C570.852 307.073 570.872 307.257 570.407 307.286C570.074 307.588 569.696 307.834 569.286 308.017C567.604 308.792 565.803 309.279 563.96 309.456C559.203 310.155 554.809 309.219 550.181 308.172C545.412 307.09 540.674 305.924 536.004 304.461C526.442 301.493 516.91 298.433 508.003 294.119C499.096 289.804 490.733 284.7 482.043 280.052C473.757 275.771 465.195 272.047 456.413 268.906C447.422 265.558 438.398 263.411 428.778 263.385C423.875 263.374 418.979 263.644 414.08 263.617C408.983 263.582 403.901 263.064 398.809 262.737C388.753 262.089 378.615 261.583 368.69 259.683C358.896 257.813 349.653 254.225 340.562 250.214C328.04 244.693 314.603 238.032 300.513 238.923C294.722 239.275 288.811 241.732 286.764 247.625C284.573 253.908 289.254 259.979 293.713 263.887C298.759 268.3 304.869 271.373 310.135 275.507C316.599 280.58 322.705 286.091 328.411 292.002C333.712 297.473 338.106 303.687 344.479 308.02C347.416 310.012 350.542 311.691 353.483 313.666C357.447 316.328 360.691 319.611 364.019 322.994C365.67 324.681 367.339 326.34 369.01 328.007C370.517 329.518 371.997 331.215 373.801 332.4C375.38 333.441 377.06 334.116 378.577 335.319C379.035 335.748 379.578 336.077 380.171 336.285C380.763 336.494 381.393 336.576 382.019 336.527C383.514 336.383 382.725 334.244 381.378 334.383C380.437 334.474 379.608 333.372 378.881 332.871C378.136 332.37 377.356 331.925 376.546 331.539C374.562 330.374 372.772 328.907 371.238 327.193C367.741 323.709 364.407 320.012 360.768 316.681C355.192 311.571 348.19 308.634 342.408 303.793C339.431 301.314 337.074 298.313 334.533 295.418C332.085 292.632 329.533 289.959 326.856 287.367C321.33 281.914 315.453 276.829 309.263 272.144C303.91 268.129 297.684 265.189 293.059 260.277C290.738 257.818 288.521 254.648 288.511 251.123C288.511 247.761 290.701 244.637 293.562 243.006C299.098 239.837 306.559 240.869 312.494 242.091C318.555 243.383 324.463 245.311 330.12 247.843C338.924 251.714 347.618 255.905 356.795 258.831C365.971 261.757 375.267 263.057 384.741 263.898C394.466 264.737 404.374 265.712 414.171 265.759C423.968 265.806 433.791 264.827 443.492 267.069C452.543 269.155 461.122 272.843 469.687 276.454C478.638 280.273 486.887 285.235 495.412 289.884C503.665 294.39 512.063 298.67 520.973 301.68C530.08 304.738 539.115 307.864 548.521 309.96C555.548 311.54 563.882 313.54 570.666 309.843C571.524 309.376 572.921 308.528 573.03 307.446C573.14 306.364 572.055 305.281 571.215 304.841C568.878 303.541 565.516 303.824 562.922 303.572C558.056 303.164 553.218 302.467 548.435 301.485C544.031 300.423 539.574 299.597 535.082 299.01C530.52 298.517 526.021 297.558 521.654 296.15C517.249 294.721 513.059 292.748 508.742 291.083C499.765 287.615 490.61 284.433 481.505 281.352C472.4 278.27 463.327 274.79 454.053 272.205C449.586 271.063 445.2 269.626 440.923 267.903C438.962 267.167 437.106 266.177 435.403 264.958C433.414 263.393 431.93 261.076 430.45 259.058C427.717 255.345 424.871 251.655 422.312 247.821C419.621 243.802 417.89 239.429 416.093 234.959C408.643 216.51 401.417 197.961 393.112 179.877C384.724 161.612 376.151 143.485 369.432 124.515C366.117 115.159 363.486 105.645 360.711 96.1196C358.32 87.9486 356.068 79.8053 354.454 71.4268C353.794 68.0688 353.133 64.7031 352.517 61.3285C351.774 57.5469 351.461 53.7516 350.975 49.9195C350.727 47.9807 349.877 46.0112 349.987 44.0495C350.106 41.8973 351.395 40.0258 352.817 38.4661C353.95 37.1761 355.183 35.9778 356.504 34.8824C358.889 32.9451 361.187 32.2107 363.942 33.9161C367.705 36.2403 368.632 40.1193 368.633 44.3216C368.62 48.2518 368.277 52.066 368.708 55.9796C369.492 62.9456 370.83 69.8379 372.71 76.5908C375.181 85.2259 378.409 93.6262 382.355 101.694C384.523 105.982 386.344 110.436 387.8 115.015C389.138 119.544 389.724 124.409 390.634 129.038C392.616 139.127 394.507 149.234 396.577 159.291C398.63 169.06 399.005 179.009 400.857 188.794C404.597 207.962 409.874 226.798 416.636 245.119C418.025 249.184 419.808 253.103 421.959 256.822C423.099 258.625 424.283 260.332 425.315 262.188C426.036 263.614 427.136 264.814 428.494 265.656C428.661 265.766 428.853 265.831 429.053 265.847C429.252 265.863 429.453 265.828 429.635 265.746C431.816 264.532 429.946 260.971 429.229 259.4C427.81 256.415 426.234 253.507 424.509 250.689C421.668 245.614 419.086 240.398 416.773 235.061C413.886 228.723 411.818 222.154 409.194 215.718C406.571 209.281 403.229 203.387 400.472 197.11C397.634 190.661 395.831 183.883 394.07 177.08C392.463 170.512 390.446 164.05 388.031 157.733C386.884 154.817 385.358 152.124 384.328 149.2C383.193 146.061 382.713 142.699 382.109 139.424C380.84 132.525 379.712 125.583 377.794 118.819C376.075 112.747 374.33 106.664 371.572 100.985C370.068 97.8869 368.995 94.6256 367.774 91.4092C366.629 88.4845 365.313 85.6297 363.832 82.8596C361.234 77.9691 358.995 72.8956 357.135 67.6796C355.783 63.719 354.238 59.7336 353.124 55.7028C352.258 52.5738 351.55 49.8066 349.842 46.9921C348.985 45.5894 348.16 44.3063 346.361 44.149C341.261 43.6977 338.558 47.8108 337.324 52.2085C335.971 57.0878 335.112 62.0909 334.76 67.1422C334.426 71.8423 334.347 76.5553 334.346 81.2686C334.353 87.9047 334.626 94.6929 336.815 101.034C339.103 107.403 341.843 113.601 345.014 119.58C346.626 122.664 347.232 125.829 347.876 129.229C348.521 132.629 349.411 136.241 349.607 139.8C349.986 146.528 350.402 153.241 351.058 159.938C351.698 166.434 349.427 172.748 347.713 178.898C346.959 181.97 346.489 185.104 346.308 188.262C346.01 191.581 345.568 194.849 345.38 198.169C345.192 201.49 344.079 204.662 344.155 207.93C344.232 211.199 344.108 214.444 344.49 217.629C345.289 224.777 346.973 231.791 347.495 238.962C347.739 242.245 348.117 245.446 348.621 248.693C349.147 252.093 349.29 255.537 349.848 258.939C350.975 265.716 352.213 272.614 353.85 279.307C354.601 282.45 355.764 285.45 356.465 288.62C357.201 292.128 358.066 295.611 359.109 299.042C361.063 305.469 363.925 311.12 367.241 316.926C370.442 322.542 373.617 327.864 377.838 332.801C382.06 337.737 386.193 342.942 391.147 347.287C393.499 349.25 395.972 351.062 398.553 352.713C401.198 354.503 403.748 356.406 406.438 358.147C417.469 365.325 429.543 370.756 442.232 374.249C448.839 375.91 455.346 377.944 461.723 380.34C468.047 382.861 474.406 385.319 480.729 387.839C487.053 390.36 493.536 393.053 499.899 395.809C506.261 398.565 512.701 401 518.886 404.176C525.072 407.352 531.379 410.59 537.61 413.914C543.377 416.999 549.058 420.211 555.079 422.869C558.13 424.143 561.086 425.631 563.927 427.321C566.558 428.957 569.117 430.708 571.836 432.193C573.139 432.911 574.266 431.126 572.945 430.404L572.915 430.41Z" fill="#D9BC9B"/>
<path d="M353.124 168.66C353.265 168.629 353.399 168.57 353.516 168.487C353.633 168.403 353.732 168.296 353.806 168.172C353.881 168.049 353.929 167.911 353.948 167.768C353.967 167.626 353.957 167.48 353.918 167.341C353.801 167.065 353.586 166.841 353.315 166.713C353.043 166.586 352.734 166.562 352.446 166.649C352.307 166.68 352.175 166.739 352.059 166.823C351.942 166.906 351.844 167.012 351.77 167.135C351.696 167.257 351.647 167.393 351.627 167.535C351.606 167.677 351.615 167.821 351.651 167.96C351.77 168.236 351.984 168.459 352.256 168.588C352.527 168.717 352.836 168.742 353.124 168.66Z" fill="#D9BC9B"/>
<path d="M411.612 221.15C411.408 221.19 411.935 221.196 411.725 221.127C411.859 221.151 411.991 221.182 412.121 221.222C412.121 221.222 412.189 221.209 412.228 221.288C412.096 221.055 412.041 221.136 411.92 220.916C411.697 220.483 411.542 220.018 411.46 219.538C411.219 217.96 411.152 216.361 411.262 214.769C411.49 210.57 411.964 206.388 412.682 202.244C413.162 199.173 413.715 196.111 414.317 193.055C414.838 190.47 415.293 187.867 415.764 185.269C416.116 183.299 416.5 181.338 416.966 179.392C417.433 177.447 417.975 175.691 418.376 173.813C418.777 171.936 419.097 170.207 419.581 168.431C420.065 166.655 420.81 164.891 421.286 163.077C421.784 161.236 422.037 159.337 422.039 157.43C421.916 155.492 421.619 153.568 421.153 151.682C420.376 147.726 419.924 143.589 418.584 139.767C417.333 136.196 415.385 132.918 413.55 129.618C412.624 127.938 411.701 126.242 410.909 124.489C410.141 122.722 409.464 120.918 408.881 119.082C407.568 115.161 406.315 111.221 404.695 107.415C403.898 105.553 402.874 103.782 402.141 101.892C401.409 100.001 400.986 97.971 400.428 96.007C399.375 92.2863 397.501 88.8288 396.656 85.0045C396.252 83.1907 396.017 81.3517 395.448 79.5782C394.888 77.9571 394.059 76.4417 392.997 75.0953C392.395 74.2032 391.638 73.426 390.763 72.8006C389.74 72.2091 388.569 71.9239 387.388 71.9789C386.003 72.0691 384.628 72.2866 383.282 72.6285C381.882 72.8512 380.524 73.2849 379.254 73.9148C376.355 75.5133 375.736 78.8005 375.921 81.8592C376.044 83.4331 376.267 84.9975 376.59 86.543C376.738 87.2993 379.048 87.3404 378.945 86.7793C378.351 83.754 377.66 80.2371 378.858 77.2995C380.056 74.3619 383.248 73.8528 386.073 73.282C386.625 73.1539 387.186 73.0674 387.751 73.0231C388.069 72.9781 388.394 73.0232 388.687 73.1533C389.563 73.6806 390.293 74.417 390.813 75.2965C391.856 76.629 392.662 78.1316 393.194 79.7382C393.738 81.4694 393.974 83.2691 394.363 85.0073C394.776 86.8266 395.329 88.6115 396.016 90.346C396.723 92.1865 397.516 93.979 398.091 95.869C398.667 97.759 399.057 99.7481 399.746 101.616C400.435 103.484 401.522 105.375 402.336 107.281C403.945 111.034 405.197 114.928 406.492 118.797C407.104 120.633 407.711 122.485 408.496 124.24C409.28 125.995 410.147 127.608 411.048 129.237C412.86 132.502 414.79 135.729 416.101 139.242C417.512 143.026 417.989 147.134 418.742 151.087C419.207 152.985 419.521 154.917 419.681 156.865C419.709 158.765 419.479 160.66 418.997 162.498C418.56 164.272 417.841 165.969 417.33 167.727C416.819 169.485 416.478 171.39 416.056 173.24C415.634 175.09 415.14 176.853 414.688 178.67C414.236 180.487 413.862 182.461 413.459 184.41C412.952 187.148 412.488 189.903 411.934 192.643C411.35 195.559 410.823 198.488 410.353 201.429C409.634 205.562 409.141 209.731 408.879 213.918C408.764 215.54 408.797 217.168 408.979 218.784C409.112 219.74 409.299 220.889 410.093 221.535C410.663 221.959 411.367 222.163 412.076 222.111C412.371 222.093 413.112 222.026 412.967 221.567C412.821 221.108 411.884 221.057 411.547 221.06L411.612 221.15Z" fill="#D9BC9B"/>
</svg>
