<svg width="43" height="43" viewBox="0 0 43 43" fill="none" xmlns="http://www.w3.org/2000/svg">
<path d="M21.6058 17.4382C20.8024 17.4382 20.0171 17.6765 19.3492 18.1228C18.6812 18.5691 18.1606 19.2035 17.8531 19.9457C17.5457 20.6879 17.4653 21.5046 17.622 22.2925C17.7787 23.0804 18.1656 23.8042 18.7336 24.3722C19.3017 24.9403 20.0254 25.3271 20.8134 25.4839C21.6013 25.6406 22.418 25.5602 23.1602 25.2527C23.9024 24.9453 24.5368 24.4247 24.9831 23.7567C25.4294 23.0888 25.6676 22.3034 25.6676 21.5001C25.6676 20.4228 25.2397 19.3897 24.478 18.6279C23.7162 17.8662 22.6831 17.4382 21.6058 17.4382Z" fill="#D9BC9B"/>
<path d="M26.64 11.041H16.3597C14.9588 11.0497 13.6177 11.6101 12.6271 12.6007C11.6364 13.5913 11.0761 14.9324 11.0674 16.3333V26.6401C11.0761 28.041 11.6364 29.3821 12.6271 30.3727C13.6177 31.3634 14.9588 31.9237 16.3597 31.9324H26.64C28.0409 31.9237 29.382 31.3634 30.3726 30.3727C31.3633 29.3821 31.9236 28.041 31.9323 26.6401V16.3598C31.9306 14.9543 31.3733 13.6064 30.3819 12.6101C29.3905 11.6138 28.0455 11.0497 26.64 11.041ZM21.6057 27.8441C20.3509 27.8441 19.1244 27.472 18.0811 26.7749C17.0378 26.0778 16.2246 25.087 15.7445 23.9277C15.2643 22.7685 15.1386 21.4929 15.3834 20.2623C15.6282 19.0316 16.2325 17.9012 17.1197 17.0139C18.0069 16.1267 19.1374 15.5225 20.368 15.2777C21.5987 15.0329 22.8743 15.1585 24.0335 15.6387C25.1927 16.1189 26.1836 16.932 26.8807 17.9753C27.5778 19.0186 27.9498 20.2452 27.9498 21.4999C27.9481 23.182 27.2791 24.7946 26.0898 25.984C24.9004 27.1734 23.2877 27.8423 21.6057 27.8441ZM28.3203 16.2407C28.0204 16.242 27.7269 16.1543 27.4769 15.9886C27.2269 15.823 27.0317 15.5868 26.916 15.3101C26.8003 15.0334 26.7694 14.7286 26.8271 14.4343C26.8848 14.14 27.0285 13.8695 27.2401 13.6569C27.4517 13.4444 27.7217 13.2995 28.0157 13.2405C28.3097 13.1815 28.6147 13.2111 28.8919 13.3256C29.1691 13.44 29.4061 13.6342 29.5728 13.8835C29.7396 14.1327 29.8286 14.4259 29.8286 14.7258C29.8295 14.9244 29.7911 15.1213 29.7157 15.305C29.6403 15.4888 29.5293 15.6558 29.3892 15.7966C29.249 15.9374 29.0825 16.0491 28.899 16.1253C28.7156 16.2015 28.5189 16.2407 28.3203 16.2407Z" fill="#D9BC9B"/>
<path d="M21.4996 0.251465C17.297 0.251465 13.1888 1.49767 9.6945 3.8325C6.20019 6.16733 3.4767 9.48591 1.86844 13.3686C0.260183 17.2513 -0.16061 21.5236 0.659272 25.6455C1.47915 29.7673 3.50289 33.5534 6.47456 36.5251C9.44623 39.4968 13.2324 41.5205 17.3542 42.3404C21.476 43.1603 25.7484 42.7395 29.6311 41.1312C33.5138 39.523 36.8324 36.7995 39.1672 33.3052C41.502 29.8109 42.7482 25.7027 42.7482 21.5001C42.7482 18.7097 42.1986 15.9466 41.1308 13.3686C40.0629 10.7906 38.4978 8.44816 36.5246 6.47504C34.5515 4.50192 32.2091 2.93676 29.6311 1.86892C27.0531 0.801076 24.29 0.251465 21.4996 0.251465ZM34.3996 26.6402C34.4005 27.6595 34.2004 28.669 33.8107 29.6108C33.421 30.5527 32.8495 31.4085 32.1287 32.1292C31.408 32.85 30.5522 33.4215 29.6103 33.8112C28.6685 34.2008 27.659 34.4009 26.6398 34.4001H16.3594C15.3402 34.4009 14.3307 34.2008 13.3889 33.8112C12.447 33.4215 11.5912 32.85 10.8705 32.1292C10.1497 31.4085 9.57817 30.5527 9.18851 29.6108C8.79885 28.669 8.59873 27.6595 8.5996 26.6402V16.3599C8.59873 15.3406 8.79885 14.3312 9.18851 13.3893C9.57817 12.4475 10.1497 11.5917 10.8705 10.8709C11.5912 10.1502 12.447 9.57865 13.3889 9.18899C14.3307 8.79933 15.3402 8.59921 16.3594 8.60008H26.6398C27.659 8.59921 28.6685 8.79933 29.6103 9.18899C30.5522 9.57865 31.408 10.1502 32.1287 10.8709C32.8495 11.5917 33.421 12.4475 33.8107 13.3893C34.2004 14.3312 34.4005 15.3406 34.3996 16.3599V26.6402Z" fill="#D9BC9B"/>
</svg>
