<svg width="43" height="43" viewBox="0 0 43 43" fill="none" xmlns="http://www.w3.org/2000/svg">
<path d="M21.5004 0.0991211C15.8245 0.0991211 10.3812 2.35384 6.36775 6.36726C2.35433 10.3807 0.0996094 15.8241 0.0996094 21.4999C0.0996094 27.1757 2.35433 32.6191 6.36775 36.6325C10.3812 40.6459 15.8245 42.9007 21.5004 42.9007C27.1762 42.9007 32.6196 40.6459 36.633 36.6325C40.6464 32.6191 42.9011 27.1757 42.9011 21.4999C42.9011 15.8241 40.6464 10.3807 36.633 6.36726C32.6196 2.35384 27.1762 0.0991211 21.5004 0.0991211ZM35.2471 28.5453C33.1392 30.1146 30.7758 31.3075 28.2613 32.0713C27.6958 31.3076 27.1957 30.4977 26.7662 29.65C27.5771 29.3417 28.3605 28.9655 29.1081 28.5254L28.5325 28.0756C26.3484 29.108 23.9626 29.6435 21.5467 29.6435C19.1308 29.6435 16.745 29.108 14.5608 28.0756C14.3756 28.2277 14.1904 28.3733 13.9919 28.5188C14.74 28.9684 15.5285 29.3471 16.347 29.65C15.9152 30.4984 15.4152 31.3104 14.8519 32.0779C12.3411 31.31 9.98053 30.1174 7.87269 28.5519C7.29768 22.9849 8.74921 17.3972 11.961 12.8139C13.7729 11.9738 15.6882 11.3776 17.6568 11.041C17.9332 11.5366 18.1827 12.0467 18.4044 12.5691C20.4966 12.2582 22.6233 12.2582 24.7155 12.5691C24.9313 12.056 25.1742 11.5548 25.4431 11.0674C27.4105 11.4026 29.3254 11.9942 31.139 12.8271C34.3541 17.4045 35.8125 22.9869 35.2471 28.5519V28.5453Z" fill="#D9BC9B"/>
<path d="M16.9753 19.8462C16.2766 19.8888 15.6233 20.2065 15.1584 20.7297C14.6934 21.2529 14.4547 21.9391 14.4945 22.6379C14.4583 23.3345 14.6987 24.0172 15.1632 24.5375C15.6278 25.0578 16.2791 25.3737 16.9753 25.4163C17.6727 25.3737 18.325 25.0569 18.7898 24.5352C19.2545 24.0134 19.494 23.329 19.4561 22.6313C19.494 21.9336 19.2545 21.2491 18.7898 20.7274C18.325 20.2056 17.6727 19.8888 16.9753 19.8462Z" fill="#D9BC9B"/>
<path d="M26.1442 19.8462C25.4456 19.8888 24.7923 20.2065 24.3273 20.7297C23.8624 21.2529 23.6237 21.9391 23.6635 22.6379C23.6273 23.3345 23.8676 24.0172 24.3322 24.5375C24.7968 25.0578 25.448 25.3737 26.1442 25.4163C26.8417 25.3737 27.4939 25.0569 27.9587 24.5352C28.4235 24.0134 28.663 23.329 28.625 22.6313C28.663 21.9336 28.4235 21.2491 27.9587 20.7274C27.4939 20.2056 26.8417 19.8888 26.1442 19.8462Z" fill="#D9BC9B"/>
</svg>
