<svg width="43" height="43" viewBox="0 0 43 43" fill="none" xmlns="http://www.w3.org/2000/svg">
<path d="M21.4996 0.105957C17.2683 0.105957 13.1319 1.3607 9.61368 3.71152C6.09543 6.06234 3.35328 9.40365 1.73401 13.3129C0.114738 17.2222 -0.308937 21.5238 0.516561 25.6739C1.34206 29.824 3.37966 33.636 6.37168 36.6281C9.36371 39.6201 13.1758 41.6577 17.3258 42.4832C21.4759 43.3087 25.7775 42.885 29.6868 41.2657C33.5961 39.6465 36.9374 36.9043 39.2882 33.3861C41.639 29.8678 42.8938 25.7315 42.8938 21.5001C42.8938 18.6906 42.3404 15.9086 41.2653 13.3129C40.1901 10.7173 38.6142 8.35879 36.6276 6.37216C34.641 4.38553 32.2825 2.80965 29.6868 1.73449C27.0912 0.659333 24.3092 0.105957 21.4996 0.105957ZM35.5639 12.7744C35.5674 12.9344 35.5161 13.0908 35.4184 13.2176C34.7899 14.0962 34.0366 14.8784 33.1824 15.5396C33.0567 15.6389 32.8384 15.7381 32.8384 15.9167C32.8384 20.5475 31.6609 25.1783 28.2936 28.486C24.0069 32.7463 17.5767 33.904 11.861 32.3229C10.761 32.0292 9.69628 31.6166 8.68563 31.0924C8.34825 30.9072 8.02409 30.722 7.69332 30.5037C7.61394 30.4375 7.5544 30.378 7.62056 30.3383C7.68671 30.2986 7.74625 30.2986 8.00425 30.3383C9.61286 30.4787 11.2329 30.2712 12.7541 29.7296C13.5876 29.4386 15.3672 28.8564 15.8832 28.0692L15.9229 28.0295C15.7112 27.9832 15.5061 27.9832 15.301 27.9501C13.7464 27.5003 11.6758 26.7263 10.7166 24.1066C10.657 23.9544 10.7166 23.875 10.8753 23.9081C11.6018 24.0038 12.339 23.9815 13.0584 23.842C12.8047 23.7913 12.5565 23.716 12.3175 23.617C11.349 23.2205 10.5021 22.5758 9.86213 21.7477C9.22219 20.9196 8.81183 19.9375 8.6724 18.9003C8.65271 18.6802 8.65271 18.4588 8.6724 18.2387C8.6724 18.0866 8.75179 18.0336 8.88409 18.1196C9.57563 18.4744 10.3316 18.6859 11.1069 18.7415C10.8604 18.5465 10.6241 18.339 10.399 18.1196C8.70548 16.5121 8.05056 13.2507 9.40671 11.2132C9.51256 11.0478 9.58532 11.0478 9.72425 11.2132C12.8202 14.7458 16.6373 16.3997 21.2482 17.081C21.3673 17.081 21.3806 17.081 21.3607 16.9487C21.2248 16.1498 21.245 15.332 21.4202 14.5407C21.6277 13.7045 22.0187 12.9249 22.5647 12.2584C23.0862 11.6159 23.7339 11.0872 24.4678 10.7049C25.2017 10.3226 26.0062 10.0948 26.8316 10.0357C27.6823 9.97785 28.535 10.1136 29.3256 10.4326C29.9167 10.675 30.4642 11.0124 30.9464 11.4315C31.0537 11.5223 31.1533 11.6219 31.2441 11.7292C31.2727 11.7606 31.3099 11.7829 31.351 11.7935C31.3921 11.804 31.4354 11.8024 31.4756 11.7887C32.6434 11.5044 33.7703 11.0731 34.8296 10.5053C34.8526 10.4955 34.8774 10.4904 34.9024 10.4904C34.9274 10.4904 34.9522 10.4955 34.9752 10.5053C35.0281 10.545 34.9752 10.6046 34.9752 10.6575C34.7739 11.2812 34.455 11.8605 34.0358 12.3643C33.7712 12.7017 33.103 13.522 32.6466 13.6013C33.6214 13.4562 34.5731 13.1849 35.4779 12.7943C35.5904 12.7413 35.5904 12.7215 35.5904 12.7943L35.5639 12.7744Z" fill="#D9BC9B"/>
</svg>
