<svg width="12" height="11" viewBox="0 0 12 11" fill="none" xmlns="http://www.w3.org/2000/svg">
<path d="M11.8767 3.76399C11.8775 4.14357 11.8031 4.51956 11.658 4.8703C11.5129 5.22105 11.2999 5.53962 11.0311 5.80769L6.84958 9.99476C6.62424 10.2198 6.31881 10.3462 6.00035 10.3462C5.6819 10.3462 5.37646 10.2198 5.15112 9.99476L0.969584 5.80769C0.694747 5.5409 0.475701 5.22212 0.325188 4.8699C0.174674 4.51768 0.0956983 4.13905 0.0928531 3.75603C0.090008 3.37301 0.163351 2.99324 0.308615 2.63883C0.453879 2.28441 0.668166 1.96242 0.93901 1.69157C1.20985 1.42073 1.53185 1.20644 1.88626 1.06118C2.24068 0.915914 2.62044 0.842572 3.00346 0.845417C3.38649 0.848262 3.76512 0.927238 4.11734 1.07775C4.46956 1.22826 4.78833 1.44731 5.05512 1.72215L6.00035 2.66553L6.89389 1.77384C7.43503 1.22255 8.17167 0.906792 8.94408 0.895042C9.71649 0.883291 10.4624 1.17649 11.02 1.71107C11.2921 1.97913 11.508 2.29875 11.6551 2.65125C11.8022 3.00375 11.8775 3.38204 11.8767 3.76399Z" fill="#6E8195"/>
</svg>
