<svg width="50" height="51" viewBox="0 0 50 51" fill="none" xmlns="http://www.w3.org/2000/svg">
<path d="M25.1437 37.1136C24.9542 37.1134 24.7717 37.0421 24.6318 36.9135L17.2554 30.1372H14.4078C14.2064 30.1372 14.0133 30.0567 13.8708 29.9136C13.7284 29.7704 13.6484 29.5762 13.6484 29.3737V21.7392C13.6484 21.5368 13.7284 21.3426 13.8708 21.1994C14.0133 21.0562 14.2064 20.9758 14.4078 20.9758H17.2554L24.6318 14.1994C24.7406 14.0997 24.8758 14.0339 25.021 14.01C25.1663 13.9861 25.3153 14.0051 25.45 14.0648C25.5847 14.1245 25.6992 14.2223 25.7796 14.3462C25.86 14.4701 25.9029 14.6149 25.903 14.7628V36.3501C25.903 36.5526 25.823 36.7468 25.6806 36.89C25.5382 37.0331 25.3451 37.1136 25.1437 37.1136ZM15.1672 28.6103H17.55C17.7395 28.6104 17.922 28.6818 18.0618 28.8103L24.3843 34.6125V16.4943L18.0618 22.2966C17.923 22.4273 17.7403 22.5009 17.55 22.5027H15.1672V28.6103Z" fill="white"/>
<path d="M36 22L29 29" stroke="#D70000" stroke-width="1.5" stroke-linecap="round"/>
<path d="M29 22L36 29" stroke="#D70000" stroke-width="1.5" stroke-linecap="round"/>
</svg>
