<svg width="50" height="51" viewBox="0 0 50 51" fill="none" xmlns="http://www.w3.org/2000/svg">
<path d="M25.1437 37.5282C24.9542 37.528 24.7717 37.4567 24.6318 37.3281L17.2554 30.5518H14.4078C14.2064 30.5518 14.0133 30.4713 13.8708 30.3282C13.7284 30.185 13.6484 29.9908 13.6484 29.7883V22.1538C13.6484 21.9514 13.7284 21.7572 13.8708 21.614C14.0133 21.4708 14.2064 21.3904 14.4078 21.3904H17.2554L24.6318 14.614C24.7406 14.5143 24.8758 14.4485 25.021 14.4246C25.1663 14.4007 25.3153 14.4197 25.45 14.4794C25.5847 14.5391 25.6992 14.6369 25.7796 14.7608C25.86 14.8847 25.9029 15.0295 25.903 15.1774V36.7647C25.903 36.9672 25.823 37.1614 25.6806 37.3046C25.5382 37.4477 25.3451 37.5282 25.1437 37.5282ZM15.1672 29.0249H17.55C17.7395 29.025 17.922 29.0964 18.0618 29.2249L24.3843 35.0271V16.9089L18.0618 22.7112C17.923 22.8419 17.7403 22.9155 17.55 22.9173H15.1672V29.0249Z" fill="white"/>
<path d="M28.0893 29.4111C27.9392 29.4111 27.7925 29.3664 27.6677 29.2826C27.5429 29.1988 27.4456 29.0797 27.3881 28.9403C27.3306 28.801 27.3154 28.6476 27.3445 28.4996C27.3736 28.3516 27.4457 28.2155 27.5517 28.1087C28.1148 27.5413 28.431 26.7725 28.431 25.971C28.431 25.1695 28.1148 24.4007 27.5517 23.8334C27.4133 23.6894 27.3368 23.4965 27.3385 23.2964C27.3402 23.0962 27.4201 22.9047 27.5609 22.7632C27.7017 22.6216 27.8922 22.5413 28.0913 22.5396C28.2904 22.5378 28.4822 22.6148 28.6254 22.7539C29.4729 23.6078 29.9488 24.7648 29.9488 25.971C29.9488 27.1773 29.4729 28.3343 28.6254 29.1882C28.4831 29.3309 28.2903 29.4111 28.0893 29.4111Z" fill="white"/>
<path d="M30.7743 32.1107C30.624 32.111 30.4769 32.0663 30.3517 31.9825C30.2266 31.8986 30.1291 31.7792 30.0715 31.6396C30.0139 31.4999 29.9989 31.3462 30.0283 31.1979C30.0577 31.0496 30.1302 30.9135 30.2367 30.8067C30.8685 30.1718 31.3697 29.4179 31.7116 28.5882C32.0535 27.7585 32.2295 26.8691 32.2295 25.971C32.2295 25.0729 32.0535 24.1836 31.7116 23.3539C31.3697 22.5242 30.8685 21.7703 30.2367 21.1353C30.1642 21.0649 30.1063 20.9807 30.0665 20.8875C30.0267 20.7944 30.0058 20.6942 30.0049 20.5928C30.004 20.4915 30.0232 20.3909 30.0614 20.2971C30.0996 20.2033 30.156 20.118 30.2273 20.0464C30.2986 19.9747 30.3834 19.918 30.4767 19.8796C30.57 19.8412 30.67 19.8219 30.7708 19.8228C30.8717 19.8237 30.9713 19.8447 31.064 19.8847C31.1566 19.9247 31.2404 19.9829 31.3104 20.0558C32.0832 20.8326 32.6962 21.7547 33.1144 22.7697C33.5326 23.7846 33.7479 24.8724 33.7479 25.971C33.7479 27.0696 33.5326 28.1574 33.1144 29.1724C32.6962 30.1873 32.0832 31.1095 31.3104 31.8862C31.1684 32.0295 30.9756 32.1102 30.7743 32.1107Z" fill="white"/>
<path d="M33.0409 34.3887C32.8909 34.3887 32.7442 34.3439 32.6194 34.2601C32.4946 34.1763 32.3973 34.0572 32.3397 33.9179C32.2822 33.7785 32.267 33.6251 32.2962 33.4771C32.3253 33.3291 32.3974 33.1931 32.5033 33.0862C34.38 31.199 35.4343 28.6396 35.4343 25.9709C35.4343 23.3022 34.38 20.7428 32.5033 18.8556C32.4308 18.7851 32.3729 18.7009 32.3331 18.6077C32.2933 18.5146 32.2724 18.4144 32.2715 18.3131C32.2706 18.2117 32.2899 18.1112 32.328 18.0173C32.3662 17.9235 32.4226 17.8383 32.4939 17.7666C32.5652 17.6949 32.65 17.6382 32.7433 17.5998C32.8366 17.5614 32.9366 17.5421 33.0374 17.543C33.1383 17.5439 33.2379 17.5649 33.3306 17.605C33.4232 17.645 33.507 17.7031 33.577 17.776C34.6475 18.8522 35.4966 20.1298 36.0759 21.5359C36.6552 22.9419 36.9533 24.449 36.9533 25.9709C36.9533 27.4928 36.6552 28.9999 36.0759 30.4059C35.4966 31.812 34.6475 33.0896 33.577 34.1658C33.4347 34.3085 33.2419 34.3886 33.0409 34.3887Z" fill="white"/>
</svg>
