<svg width="35" height="35" viewBox="0 0 35 35" fill="none" xmlns="http://www.w3.org/2000/svg">
<path d="M17.7068 25.809C17.5733 25.8088 17.4446 25.7588 17.346 25.6687L12.1462 20.9174H10.1388C9.99684 20.9174 9.86069 20.861 9.7603 20.7607C9.65991 20.6603 9.60352 20.5241 9.60352 20.3821V15.0292C9.60352 14.8872 9.65991 14.7511 9.7603 14.6507C9.86069 14.5503 9.99684 14.4939 10.1388 14.4939H12.1462L17.346 9.74264C17.4227 9.67271 17.518 9.62656 17.6204 9.60981C17.7227 9.59305 17.8278 9.60642 17.9227 9.64827C18.0177 9.69012 18.0984 9.75866 18.1551 9.84555C18.2118 9.93244 18.242 10.0339 18.2421 10.1377V25.2737C18.2421 25.4156 18.1857 25.5518 18.0853 25.6522C17.9849 25.7526 17.8488 25.809 17.7068 25.809ZM10.6741 19.8469H12.3539C12.4874 19.847 12.6161 19.897 12.7146 19.9871L17.1715 24.0553V11.3517L12.7146 15.42C12.6167 15.5116 12.488 15.5632 12.3539 15.5645H10.6741V19.8469Z" fill="#343E5C"/>
<path d="M19.7842 20.1177C19.6784 20.1177 19.575 20.0863 19.487 20.0276C19.3991 19.9688 19.3305 19.8853 19.2899 19.7876C19.2494 19.6899 19.2387 19.5824 19.2592 19.4786C19.2797 19.3748 19.3305 19.2794 19.4052 19.2045C19.8022 18.8067 20.0251 18.2677 20.0251 17.7057C20.0251 17.1437 19.8022 16.6047 19.4052 16.2069C19.3077 16.1059 19.2538 15.9707 19.255 15.8303C19.2562 15.69 19.3125 15.5557 19.4117 15.4565C19.511 15.3572 19.6452 15.3009 19.7856 15.2997C19.9259 15.2985 20.0612 15.3524 20.1621 15.4499C20.7595 16.0487 21.095 16.8599 21.095 17.7057C21.095 18.5515 20.7595 19.3627 20.1621 19.9614C20.0618 20.0615 19.9259 20.1177 19.7842 20.1177Z" fill="#343E5C"/>
<path d="M21.6762 22.0105C21.5702 22.0107 21.4665 21.9794 21.3783 21.9206C21.2901 21.8618 21.2213 21.7781 21.1807 21.6802C21.1402 21.5822 21.1295 21.4745 21.1503 21.3705C21.171 21.2665 21.2222 21.1711 21.2972 21.0962C21.7426 20.651 22.0959 20.1224 22.3369 19.5407C22.5779 18.9589 22.702 18.3354 22.702 17.7057C22.702 17.0759 22.5779 16.4524 22.3369 15.8706C22.0959 15.2889 21.7426 14.7603 21.2972 14.3151C21.2461 14.2657 21.2053 14.2067 21.1772 14.1413C21.1492 14.076 21.1344 14.0058 21.1338 13.9347C21.1332 13.8636 21.1467 13.7932 21.1737 13.7274C21.2006 13.6616 21.2403 13.6018 21.2906 13.5516C21.3408 13.5013 21.4006 13.4616 21.4664 13.4346C21.5322 13.4077 21.6027 13.3942 21.6737 13.3948C21.7448 13.3954 21.8151 13.4102 21.8804 13.4382C21.9457 13.4663 22.0047 13.5071 22.0541 13.5582C22.5989 14.1028 23.031 14.7494 23.3258 15.461C23.6206 16.1726 23.7723 16.9354 23.7723 17.7057C23.7723 18.4759 23.6206 19.2387 23.3258 19.9503C23.031 20.6619 22.5989 21.3085 22.0541 21.8531C21.954 21.9536 21.818 22.0102 21.6762 22.0105Z" fill="#343E5C"/>
<path d="M23.2739 23.6078C23.1681 23.6078 23.0647 23.5764 22.9767 23.5177C22.8887 23.4589 22.8201 23.3754 22.7796 23.2777C22.739 23.18 22.7283 23.0724 22.7488 22.9687C22.7694 22.8649 22.8202 22.7695 22.8949 22.6946C24.2178 21.3713 24.961 19.5768 24.961 17.7057C24.961 15.8345 24.2178 14.04 22.8949 12.7167C22.8437 12.6673 22.803 12.6083 22.7749 12.543C22.7469 12.4776 22.7321 12.4074 22.7315 12.3363C22.7308 12.2653 22.7444 12.1948 22.7713 12.129C22.7982 12.0632 22.838 12.0034 22.8882 11.9532C22.9385 11.9029 22.9983 11.8632 23.064 11.8362C23.1298 11.8093 23.2003 11.7958 23.2714 11.7964C23.3425 11.797 23.4127 11.8118 23.478 11.8398C23.5433 11.8679 23.6024 11.9087 23.6518 11.9598C24.4063 12.7144 25.0049 13.6101 25.4133 14.596C25.8216 15.5819 26.0318 16.6385 26.0318 17.7057C26.0318 18.7728 25.8216 19.8294 25.4133 20.8153C25.0049 21.8012 24.4063 22.6969 23.6518 23.4515C23.5515 23.5516 23.4155 23.6078 23.2739 23.6078Z" fill="#343E5C"/>
<circle cx="17.5" cy="17.5" r="17" stroke="#343E5C"/>
</svg>
