<svg width="110" height="112" viewBox="0 0 110 112" fill="none" xmlns="http://www.w3.org/2000/svg">
<path d="M20.2727 69.487L18.6392 69.974L16.7196 63.4672L18.3531 62.9801L20.2727 69.487ZM21.9181 63.9803L22.4872 65.9095L10.5303 69.4749C9.9858 69.6373 9.60075 69.838 9.37513 70.0773C9.15656 70.3203 9.03797 70.581 9.01936 70.8593C9.0078 71.1414 9.04383 71.4241 9.12743 71.7075C9.19013 71.92 9.25246 72.0912 9.31444 72.2209C9.38185 72.349 9.43579 72.4515 9.47624 72.5284L7.86052 73.4371C7.77293 73.3209 7.67007 73.153 7.55193 72.9332C7.42835 72.7151 7.31351 72.4263 7.2074 72.0666C7.04663 71.5216 7.00614 70.9526 7.08593 70.3597C7.16733 69.7721 7.39696 69.2353 7.77483 68.7491C8.1543 68.2683 8.70884 67.9191 9.43845 67.7016L21.9181 63.9803Z" fill="white"/>
<path d="M20.7387 85.1053L26.9484 80.4875L28.1404 82.1077L17.6357 89.9193L16.4438 88.2991L18.2219 86.9768L18.1411 86.867C17.4258 87.0165 16.6894 86.9694 15.9317 86.7257C15.1785 86.4786 14.509 85.9569 13.9231 85.1605C13.4383 84.5015 13.1509 83.8088 13.061 83.0827C12.9757 82.3531 13.1171 81.6248 13.4852 80.8979C13.8578 80.1677 14.491 79.4703 15.3846 78.8057L22.0594 73.8421L23.2514 75.4623L16.686 80.3445C15.92 80.9141 15.4673 81.5835 15.3279 82.3528C15.1918 83.1266 15.3713 83.8499 15.8662 84.5227C16.1625 84.9255 16.5665 85.2588 17.0781 85.5227C17.593 85.7912 18.1669 85.9097 18.7996 85.8781C19.4358 85.8511 20.0821 85.5935 20.7387 85.1053Z" fill="white"/>
<path d="M24.9008 96.185L32.1072 85.2563L33.7242 86.334L32.6357 87.9847L32.7492 88.0604C33.3043 87.652 33.953 87.4527 34.6951 87.4626C35.4373 87.4724 36.1346 87.6948 36.787 88.1297C36.9099 88.2116 37.062 88.3164 37.2433 88.444C37.4245 88.5717 37.5593 88.6718 37.6476 88.7443L36.5216 90.4519C36.4743 90.3998 36.3583 90.2918 36.1738 90.1279C35.9971 89.9623 35.7977 89.8055 35.5755 89.6574C35.0459 89.3044 34.4996 89.1008 33.9366 89.0464C33.3814 88.9904 32.855 89.0766 32.3574 89.3048C31.8676 89.5315 31.4601 89.8914 31.1348 90.3847L26.5745 97.3006L24.9008 96.185Z" fill="white"/>
<path d="M41.6475 96.1521L39.8892 103.828L37.9297 103.375L40.8525 90.6142L42.7456 91.0525L42.2889 93.0463L42.455 93.0848C42.9023 92.506 43.4755 92.0905 44.1744 91.8383C44.8747 91.5805 45.7064 91.5631 46.6695 91.7861C47.5331 91.9861 48.248 92.3382 48.8145 92.8426C49.3822 93.3415 49.7642 93.9898 49.9603 94.7876C50.1577 95.5798 50.1321 96.5187 49.8835 97.6042L48.0262 105.712L46.0667 105.259L47.8935 97.2834C48.1231 96.281 48.0418 95.4398 47.6496 94.76C47.2587 94.0746 46.6093 93.6268 45.7015 93.4166C45.076 93.2718 44.4859 93.278 43.931 93.4353C43.3818 93.5939 42.9064 93.9008 42.5048 94.3561C42.1032 94.8113 41.8175 95.41 41.6475 96.1521Z" fill="white"/>
<path d="M75.9017 101.316C74.8384 101.832 73.7838 102.031 72.7378 101.913C71.6969 101.793 70.7328 101.386 69.8453 100.693C68.9629 99.9966 68.2292 99.039 67.6441 97.8199C67.054 96.5905 66.7614 95.4095 66.766 94.2768C66.7758 93.1416 67.0578 92.1271 67.6119 91.2331C68.171 90.3366 68.9823 89.6305 70.0456 89.1146C71.1089 88.5988 72.161 88.401 73.2018 88.5213C74.2478 88.6391 75.2132 89.0485 76.098 89.7497C76.9879 90.4484 77.7279 91.4124 78.318 92.6418C78.9031 93.8609 79.1895 95.0355 79.1773 96.1656C79.1701 97.2931 78.887 98.3051 78.3278 99.2016C77.7737 100.096 76.965 100.8 75.9017 101.316ZM75.1199 99.6874C75.9276 99.2955 76.4926 98.7657 76.8149 98.0978C77.1372 97.4299 77.2613 96.6972 77.1873 95.8995C77.1132 95.1018 76.8869 94.3086 76.5083 93.5197C76.1297 92.7308 75.6517 92.0565 75.0742 91.4968C74.4967 90.937 73.8465 90.5736 73.1235 90.4065C72.4004 90.2394 71.6351 90.3518 70.8274 90.7436C70.0197 91.1354 69.4559 91.6678 69.1361 92.3408C68.8163 93.0138 68.6946 93.7517 68.7711 94.5545C68.8476 95.3573 69.0751 96.1531 69.4537 96.942C69.8323 97.7308 70.3091 98.4026 70.8842 98.9572C71.4592 99.5119 72.1069 99.8702 72.8275 100.032C73.5481 100.194 74.3122 100.079 75.1199 99.6874Z" fill="white"/>
<path d="M84.1468 85.8264L90.1627 90.9083L88.873 92.4516L78.8724 84.0039L80.1185 82.5128L81.6811 83.8328L81.7904 83.702C81.4793 83.0376 81.37 82.3354 81.4626 81.5955C81.5509 80.852 81.912 80.1009 82.546 79.3423C83.1144 78.6622 83.7506 78.1844 84.4547 77.909C85.1544 77.6299 85.9027 77.5851 86.6994 77.7747C87.4918 77.9606 88.3134 78.4129 89.1642 79.1316L95.5187 84.4994L94.2289 86.0428L87.9785 80.7629C87.1929 80.0993 86.4096 79.7872 85.6288 79.8267C84.8435 79.8625 84.1522 80.2379 83.5546 80.9529C83.1429 81.4456 82.8813 81.9758 82.7697 82.5434C82.6617 83.1068 82.7189 83.6719 82.9411 84.2389C83.1633 84.8059 83.5652 85.3351 84.1468 85.8264Z" fill="white"/>
<path d="M91.1657 56.1871L92.8638 56.3347L92.2827 63.0938L90.5846 62.9462L91.1657 56.1871ZM87.6294 60.7047L87.8016 58.7007L100.232 59.7811C100.798 59.8303 101.23 59.7851 101.527 59.6456C101.819 59.4998 102.024 59.301 102.143 59.0489C102.256 58.7907 102.326 58.5145 102.351 58.2201C102.37 57.9993 102.374 57.8172 102.364 57.6737C102.347 57.5297 102.335 57.4145 102.325 57.3281L104.16 57.077C104.199 57.2173 104.234 57.4114 104.264 57.6592C104.3 57.9075 104.301 58.2185 104.269 58.5921C104.221 59.1582 104.051 59.7024 103.761 60.2247C103.471 60.7414 103.062 61.1563 102.533 61.4697C102.005 61.7774 101.362 61.8982 100.603 61.8323L87.6294 60.7047Z" fill="white"/>
<path d="M95.6635 48.2103L103.244 46.0776L103.783 48.0153L86.9813 52.7423L86.442 50.8046L92.6115 49.0689L92.5658 48.9047C91.8327 48.7922 91.1924 48.4942 90.645 48.0108C90.0906 47.5234 89.6755 46.7843 89.3997 45.7936C89.1605 44.9342 89.1233 44.1331 89.2881 43.3902C89.4475 42.6489 89.8304 42.0011 90.4369 41.4468C91.0365 40.8886 91.8777 40.4572 92.9607 40.1525L100.968 37.8998L101.507 39.8375L93.6313 42.0533C92.6304 42.3349 91.9288 42.8126 91.5266 43.4865C91.1174 44.1564 91.04 44.9485 91.2944 45.8626C91.4712 46.4975 91.7636 47.0291 92.1718 47.4573C92.5784 47.88 93.0792 48.1641 93.6741 48.3096C94.2674 48.4496 94.9306 48.4165 95.6635 48.2103Z" fill="white"/>
<path d="M92.8513 24.0459C93.6465 25.025 94.1173 26.0463 94.2637 27.1097C94.402 28.1723 94.2384 29.2145 93.7727 30.2363C93.2991 31.2573 92.544 32.1932 91.5076 33.044C90.4712 33.8948 89.4038 34.455 88.3052 34.7246C87.1987 34.9934 86.1461 34.9681 85.1473 34.6486C84.1406 34.3283 83.2647 33.7094 82.5196 32.792C82.0898 32.2627 81.7531 31.668 81.5097 31.0078C81.2663 30.3475 81.1702 29.6435 81.2216 28.8956C81.2686 28.1513 81.5127 27.3885 81.9541 26.6072C82.3955 25.8258 83.0883 25.0476 84.0325 24.2725L84.6912 23.7318L91.0529 31.5648L89.7091 32.668L84.6369 26.4227C84.066 26.8914 83.6497 27.4242 83.3881 28.0213C83.1228 28.614 83.0308 29.2261 83.112 29.8578C83.1896 30.4851 83.4576 31.081 83.9161 31.6456C84.4212 32.2675 85.0119 32.6794 85.6883 32.8813C86.3567 33.0824 87.0331 33.1042 87.7176 32.9466C88.402 32.789 89.0231 32.4813 89.5809 32.0234L90.4767 31.288C91.2409 30.6607 91.7812 29.9967 92.0976 29.2958C92.4061 28.5941 92.5052 27.8916 92.395 27.1881C92.2805 26.4883 91.967 25.823 91.4548 25.1923C91.1217 24.7821 90.7637 24.4585 90.3809 24.2214C89.9901 23.9836 89.5798 23.8389 89.15 23.7874C88.7159 23.7395 88.2694 23.7936 87.8106 23.9497L87.0071 22.0952C87.6455 21.8358 88.3102 21.7349 89.0011 21.7925C89.6876 21.8538 90.3624 22.0717 91.0253 22.4464C91.6839 22.8247 92.2925 23.3578 92.8513 24.0459Z" fill="white"/>
<path d="M57.3466 19.0389L65.0425 7.40825L67.033 7.87949L68.7584 21.7407L66.6353 21.238L65.4977 10.2486L65.365 10.2172L59.4697 19.5416L57.3466 19.0389Z" fill="white"/>
<path d="M45.7476 6.76715C46.91 6.55374 47.9802 6.64323 48.9581 7.0356C49.9304 7.42899 50.7528 8.07809 51.4253 8.98289C52.0923 9.88872 52.5466 11.0069 52.7883 12.3374C53.032 13.6791 53.0016 14.8949 52.6972 15.9848C52.3872 17.0758 51.8465 17.978 51.0753 18.6915C50.2984 19.406 49.3288 19.87 48.1664 20.0834C47.004 20.2968 45.9367 20.2068 44.9643 19.8134C43.9864 19.421 43.1635 18.7691 42.4955 17.8577C41.822 16.9473 41.3634 15.8213 41.1197 14.4796C40.878 13.1491 40.9127 11.9412 41.2237 10.8558C41.5292 9.77145 42.0703 8.87201 42.8472 8.15749C43.6184 7.44399 44.5852 6.98055 45.7476 6.76715ZM46.0705 8.54488C45.1876 8.70698 44.5022 9.06677 44.0144 9.62424C43.5267 10.1817 43.2129 10.8545 43.0731 11.6427C42.9333 12.4309 42.9416 13.2555 43.098 14.1164C43.2543 14.9773 43.537 15.7544 43.9459 16.4477C44.3547 17.1409 44.8858 17.6644 45.5391 18.0182C46.1924 18.3719 46.9605 18.4678 47.8435 18.3057C48.7265 18.1436 49.4113 17.781 49.8981 17.2179C50.3848 16.6549 50.6976 15.9764 50.8364 15.1826C50.9751 14.3889 50.9663 13.5615 50.81 12.7006C50.6536 11.8397 50.3715 11.0654 49.9636 10.3777C49.5557 9.69007 49.0257 9.17216 48.3734 8.82398C47.7211 8.47581 46.9535 8.38278 46.0705 8.54488Z" fill="white"/>
<path d="M31.3272 11.9902L37.6692 23.4424L35.9141 24.4248L29.5721 12.9726L31.3272 11.9902ZM37.8338 25.8506C38.1759 25.6591 38.5356 25.6108 38.9129 25.7057C39.2852 25.8033 39.5622 26.0162 39.7438 26.3442C39.9255 26.6723 39.9596 27.0211 39.846 27.3907C39.7275 27.7631 39.4972 28.045 39.1551 28.2365C38.813 28.428 38.4558 28.4749 38.0835 28.3773C37.7062 28.2824 37.4267 28.071 37.2451 27.7429C37.0634 27.4149 37.0318 27.0646 37.1503 26.6923C37.2639 26.3227 37.4917 26.0421 37.8338 25.8506Z" fill="white"/>
<path d="M17.6675 22.2217C18.498 21.3182 19.4255 20.7373 20.4499 20.4792C21.4742 20.221 22.5205 20.2624 23.5886 20.6032C24.6567 20.9441 25.6694 21.5592 26.6269 22.4487C27.6009 23.3536 28.2952 24.3321 28.7097 25.3841C29.1245 26.4441 29.2441 27.4936 29.0686 28.5326C28.8934 29.5797 28.4059 30.5383 27.6062 31.4084C26.9833 32.0861 26.2971 32.5808 25.5475 32.8926C24.7979 33.2044 24.0388 33.3251 23.2701 33.2546C22.5014 33.1842 21.7789 32.9123 21.1026 32.4391L22.4636 30.9582C23.0045 31.2514 23.6223 31.36 24.3171 31.2842C25.0122 31.2165 25.6596 30.8563 26.2594 30.2037C26.79 29.6264 27.1053 28.981 27.2055 28.2675C27.3059 27.5621 27.1971 26.8367 26.879 26.0913C26.5611 25.354 26.04 24.6489 25.3157 23.976C24.5748 23.2876 23.8219 22.8053 23.0571 22.5291C22.2885 22.2571 21.5542 22.1953 20.8543 22.3439C20.1506 22.4967 19.5296 22.8659 18.9913 23.4515C18.6376 23.8364 18.3831 24.2476 18.228 24.6851C18.0728 25.1226 18.0202 25.5661 18.07 26.0156C18.1198 26.4652 18.2773 26.8984 18.5424 27.3153L17.1813 28.7962C16.692 28.1866 16.3724 27.5058 16.2224 26.7538C16.0728 26.0098 16.1127 25.2443 16.3423 24.4571C16.5722 23.678 17.0139 22.9329 17.6675 22.2217Z" fill="white"/>
<path d="M7.34087 39.496C7.76497 38.3081 8.39269 37.3779 9.22402 36.7054C10.0588 36.0402 11.0323 35.6455 12.1444 35.5213C13.26 35.4044 14.4485 35.5736 15.7098 36.0288C16.9711 36.4839 18.0006 37.1152 18.7983 37.9225C19.5995 38.7372 20.1219 39.6566 20.3656 40.6808C20.6127 41.7123 20.5376 42.7845 20.1402 43.8975C19.911 44.5396 19.5777 45.1352 19.1404 45.6841C18.7031 46.233 18.1523 46.6775 17.4879 47.0176C16.8288 47.3597 16.052 47.5414 15.1575 47.5629C14.263 47.5844 13.2412 47.3878 12.0921 46.9732L11.2904 46.6839L14.6832 37.1805L16.3187 37.7707L13.6136 45.3477C14.3084 45.5984 14.978 45.683 15.6225 45.6015C16.265 45.5253 16.8347 45.2899 17.3315 44.8954C17.8264 44.5062 18.1961 43.9691 18.4407 43.2842C18.71 42.5297 18.756 41.8094 18.5787 41.1232C18.4048 40.4443 18.0737 39.8507 17.5856 39.3423C17.0974 38.8339 16.514 38.4573 15.8352 38.2123L14.7449 37.8189C13.815 37.4833 12.9694 37.3593 12.2081 37.447C11.4502 37.542 10.7997 37.8177 10.2567 38.2741C9.71903 38.7324 9.3136 39.3441 9.04042 40.1093C8.86275 40.607 8.77176 41.0815 8.76744 41.533C8.76655 41.9918 8.8552 42.4194 9.03339 42.8159C9.21692 43.2144 9.49381 43.571 9.86406 43.8858L8.69764 45.5307C8.14645 45.1144 7.71689 44.5939 7.40896 43.9693C7.10637 43.3467 6.94353 42.6537 6.92045 41.8903C6.90271 41.1289 7.04285 40.3308 7.34087 39.496Z" fill="white"/>
</svg>
