<svg width="284" height="667" viewBox="0 0 284 667" fill="none" xmlns="http://www.w3.org/2000/svg">
<g clip-path="url(#clip0_168_814)">
<path fill-rule="evenodd" clip-rule="evenodd" d="M182.283 561.243C182.102 564.347 182.106 567.459 182.296 570.563C182.628 575.856 182.294 581.171 182.077 586.467C182.095 587.021 181.961 587.57 181.69 588.056C181.09 589.436 180.875 590.947 181.066 592.435C181.024 594.513 180.704 596.576 180.115 598.572C180.157 598.804 179.823 599.159 179.914 599.323C181.318 602.073 178.427 603.818 178.796 606.236C177.294 606.191 178.015 604.934 177.468 604.429C176.442 608.064 175.89 611.812 175.824 615.584C175.676 617.491 175.681 619.403 175.533 621.31C175.549 622.953 175.146 624.572 174.358 626.021C173.916 625.345 173.588 624.604 173.388 623.825C173.365 620.273 173.348 616.75 173.603 613.211C173.857 609.672 174.45 606.494 174.859 603.138C175.182 600.842 175.599 598.56 175.71 596.27C176.134 585.402 176.506 574.532 176.827 563.661C176.903 561.347 176.678 559.055 176.542 556.747C176.402 555.964 176.258 555.152 176.385 554.323C176.672 544.803 175.774 535.303 176.486 525.77C176.517 523.79 176.429 521.809 176.223 519.839C176.13 519.317 176.032 518.765 175.939 518.243C175.879 511.74 175.754 505.217 175.818 498.722C175.934 494.769 175.638 490.814 174.936 486.919C174.702 483.979 174.264 481.059 173.624 478.177C172.59 475.387 171.727 472.54 171.038 469.651C170.909 468.439 170.428 467.288 169.653 466.334C168.878 465.38 167.84 464.662 166.663 464.266C165.529 463.891 164.787 462.463 163.487 461.159C161.749 460.968 160.033 460.619 158.36 460.115C152.264 458.147 147.159 453.979 144.085 448.459C142.681 445.708 141.431 443.141 140.238 440.385C138.388 436.157 136.084 432.124 133.977 427.999C133.849 427.749 133.675 427.525 133.463 427.339C128.853 423.548 125.913 418.339 121.947 414.05C120.956 412.917 120.075 411.695 119.315 410.403C118.485 409.169 117.94 407.647 117.037 406.515C110.965 398.968 107.251 390.095 102.847 381.638C98.7306 373.677 95.1116 365.478 92.0105 357.088C91.344 355.229 90.4458 353.439 89.2794 350.828C90.8396 351.92 92.0878 353.385 92.9042 355.084C93.4106 356.044 93.8334 357.049 94.2562 358.053C100.143 371.757 107.565 384.663 114.795 397.692C115.287 398.516 115.825 399.313 116.409 400.078C117.053 400.955 117.835 401.749 118.406 402.728C121.727 408.058 125.446 413.141 129.531 417.935C131.428 420.269 133.454 422.5 135.601 424.617C136.237 425.366 137.052 425.949 137.974 426.315C138.896 426.68 139.896 426.816 140.884 426.71C141.711 426.66 142.541 426.679 143.365 426.768C143.866 425.129 142.516 424.402 142.034 423.407C140.531 419.898 138.793 416.489 136.832 413.203C134.716 409.886 132.08 406.896 129.63 403.755C129.47 403.536 129.261 403.356 129.018 403.231C124.416 401.023 121.944 396.391 118.425 393.073C117.65 392.115 117.045 391.035 116.637 389.88C115.357 387.318 114.191 384.707 112.911 382.144C109.793 375.77 106.622 369.435 103.411 363.046C102.493 360.924 101.689 358.756 101.004 356.551C99.794 352.932 98.3389 349.395 96.6482 345.964C95.0236 342.554 93.7371 339 92.8064 335.35C94.2533 337.22 95.4389 339.27 96.3318 341.446C97.1012 343.198 98.0084 344.867 98.8075 346.615C100.064 349.39 101.469 352.14 102.459 354.96C105.286 362.577 108.645 369.995 112.512 377.162C114.823 381.197 116.87 385.372 118.641 389.66C118.883 390.439 119.303 391.155 119.868 391.753C123.68 395.298 127.973 398.311 132.625 400.708C133.182 401.115 133.827 401.391 134.51 401.513C135.193 401.636 135.896 401.603 136.563 401.416C137.215 401.305 138.137 401.687 138.918 401.794C139.7 401.9 140.267 401.834 141.34 401.862C140.136 400.425 138.74 399.154 137.19 398.082C135.122 396.473 133.414 394.463 132.174 392.179C131.102 390.269 129.951 388.432 128.825 386.561C126.999 383.351 124.808 380.354 122.293 377.627C119.492 374.616 116.888 371.434 114.497 368.101C113.588 366.736 112.793 365.302 112.117 363.813C110.333 360.469 108.459 357.141 106.782 353.72C105.85 351.906 105.256 349.945 104.477 348.134C103.369 345.513 102.287 342.858 101.091 340.252C99.9358 337.643 98.9497 334.966 98.1383 332.236C96.5715 327.033 94.6545 321.919 92.7672 316.801C90.6601 311.193 88.1207 305.749 85.171 300.517C84.7835 299.6 84.4722 298.653 84.2401 297.687C85.6705 298.013 85.8024 299.096 86.2971 299.819C90.8036 307.002 94.5053 314.641 97.3377 322.6C99.2345 328.986 101.571 335.239 104.33 341.317C104.867 342.576 105.331 343.864 105.719 345.175C106.576 348.038 107.832 350.771 109.452 353.298C109.716 353.622 109.908 353.997 110.014 354.398C111.172 357.572 112.734 360.59 114.664 363.381C116.793 367.802 120.65 370.794 123.55 374.576C123.812 374.895 124.109 375.185 124.436 375.442C126.759 377.528 127.288 377.588 130.708 376.411C130.569 375.219 129.97 374.124 129.034 373.348C127.022 370.87 125.365 368.135 124.11 365.218C122.724 361.97 120.788 358.974 118.384 356.357C116.76 354.493 115.432 352.402 114.443 350.152C111.381 344.669 108.773 338.956 106.643 333.066C106.052 331.386 105.303 329.762 104.407 328.216C102.845 325.5 101.587 322.628 100.655 319.648C100.214 318.358 99.6156 317.125 98.8727 315.976C95.4868 310.354 92.5364 304.491 90.0464 298.437C89.6274 297.283 88.9227 296.237 88.3905 295.132C86.1575 290.47 83.9524 285.794 81.7751 281.102C81.5636 280.597 81.4667 280.053 81.4911 279.507C81.5759 279.039 81.7201 278.583 81.9204 278.15C83.0651 278.583 82.7528 279.742 83.2668 280.402C83.7543 281.056 84.1751 281.755 84.5231 282.49C85.7229 284.946 86.7258 287.495 88.0929 289.863C92.5151 297.57 95.6966 305.846 100.124 313.583C103.493 319.669 106.449 325.966 108.97 332.433C111.006 337.527 113.257 342.464 115.568 347.392C115.928 348.349 116.521 349.205 117.296 349.887C118.071 350.568 119.005 351.053 120.015 351.3C120.941 351.531 121.833 351.918 122.769 352.208C124.179 352.652 125.702 352.595 127.072 352.047C126.863 351.516 126.569 351.021 126.201 350.581C123.208 347.747 120.507 344.632 118.14 341.279C116.27 338.722 114.661 335.992 113.333 333.128C111.842 330.064 110.81 326.833 109.486 323.681C108.64 321.672 107.735 319.674 106.777 317.715C105.891 316.031 105.356 314.192 105.203 312.304C105.011 310.693 104.536 309.125 103.799 307.671C101.644 303.106 99.3219 298.629 97.1671 294.064C96.2933 292.239 95.7001 290.278 94.9203 288.468C93.2292 284.452 91.336 280.499 89.7338 276.468C87.5779 271.312 86.1033 265.908 85.3458 260.388C85.0824 258.909 85.0824 258.909 86.4099 256.772C86.6319 258.019 87.074 258.96 87.2496 259.946C88.3814 265.791 90.1447 271.502 92.5096 276.984C94.568 281.864 96.3459 286.882 98.5768 291.703C100.454 296.946 102.66 302.071 105.182 307.049C106.291 309.238 107.225 311.507 107.977 313.836C108.907 316.665 110.169 319.379 111.735 321.925C112.859 323.662 114.519 325.004 116.473 325.754C117.985 326.365 119.348 327.508 121.057 327.518C124.342 327.789 127.645 327.759 130.924 327.43C130.867 327.111 130.831 326.908 130.82 326.85C129.663 326.443 128.483 326.104 127.285 325.835C124.093 325.362 121.203 323.714 119.205 321.228C119.043 321.009 118.854 320.81 118.642 320.636C115.655 317.969 113.523 314.509 112.508 310.679C111.542 307.137 110.142 303.729 109.058 300.207C107.903 296.54 106.343 293.007 104.406 289.67C99.931 280.916 96.4692 271.7 94.0853 262.195C93.6791 260.77 93.4208 259.319 92.8614 257.89C91.592 254.731 90.6224 251.464 89.9649 248.132C89.6736 246.658 89.2626 245.208 88.7358 243.798C85.5784 234.801 82.4853 225.823 79.2494 216.899C80.1721 216.085 80.641 216.663 80.9026 217.276C82.6698 221.548 84.437 225.821 86.2389 230.117C88.0409 234.414 89.7802 239.557 91.5154 244.164C91.625 244.411 91.721 244.665 91.8029 244.922C93.0986 250.207 94.7177 255.41 96.6514 260.505C98.6965 266.852 100.628 273.248 102.9 279.497C104.115 282.592 105.566 285.592 107.243 288.473C107.676 289.483 108.419 290.336 109.369 290.914C110.319 291.492 111.429 291.766 112.545 291.698C112.752 291.663 112.958 291.449 113.341 291.205C112.866 290.559 112.359 289.937 111.82 289.341C108.798 286.108 106.87 282.041 106.3 277.696C105.489 273.142 105.004 268.533 103.873 264.063C103.206 260.075 101.717 256.261 99.4977 252.852C99.0393 252.176 98.6373 251.464 98.2955 250.725C93.3541 240.228 89.2401 229.377 85.9895 218.267C84.2945 211.831 82.6884 205.38 81.1067 198.895C80.7762 197.038 80.5886 195.128 80.2876 193.267C79.8125 190.598 79.3322 187.9 78.8571 185.232C78.6924 184.279 78.7697 183.301 79.0822 182.385C80.0107 185.545 81.2405 188.683 81.8433 191.898C82.9052 197.778 84.3964 203.577 86.3053 209.249C87.7107 213.374 88.5639 217.652 89.7671 221.84C92.1468 229.237 95.0048 236.477 98.3239 243.519C98.5365 243.868 98.7984 244.186 99.1019 244.463C99.9037 243.998 99.503 243.289 99.4989 242.752C99.4602 240.309 99.392 237.87 99.3534 235.426C99.4144 234.336 99.3729 233.243 99.2294 232.16C98.6604 228.668 98.5616 225.119 98.9356 221.602C99.066 219.478 98.8814 217.345 98.3877 215.271C97.7233 212.395 96.9995 209.53 96.3647 206.649C95.7298 203.769 94.9765 200.908 94.46 198.008C94.3169 197.208 94.0856 196.426 93.7701 195.674C90.7642 188.385 90.585 180.527 89.0839 172.952C88.9186 172.024 89.079 171.041 88.9819 169.981C88.7781 166.609 88.663 163.223 88.2763 159.852C87.9283 157.821 88.1025 155.737 88.783 153.79C89.1204 153.972 89.4718 154.062 89.4925 154.178C90.0864 157.513 90.6803 160.849 90.9434 164.211C91.3256 166.357 91.1401 168.57 91.3987 170.707C91.7943 173.957 92.3624 177.148 92.8468 180.383C93.399 185.281 94.5135 190.104 96.1692 194.76C96.7327 196.158 97.0965 197.624 97.2503 199.119C97.571 202.761 98.5556 206.319 100.157 209.623C101.605 213.585 103.537 217.361 105.911 220.869C106.37 221.389 106.663 222.176 107.223 222.41C109.098 223.109 110.818 224.157 112.286 225.497C114.033 226.785 115.935 227.858 117.948 228.691C117.814 227.937 117.519 227.479 117.348 227.03C116.43 224.616 115.339 222.261 114.624 219.782C114.261 218.339 114.181 216.842 114.387 215.37C114.706 212.537 115.243 209.727 115.933 206.921C116.44 204.527 117.315 202.223 118.528 200.087C119.564 198.186 120.372 196.174 120.938 194.091C122.207 189.778 122.94 185.33 123.123 180.843C123.203 179.489 123.044 178.131 122.652 176.829C120.627 171.19 119.134 165.381 118.19 159.477C116.875 152.947 115.703 146.362 114.689 139.811C113.408 132.57 112.998 125.208 113.467 117.876C113.481 116.066 113.88 114.278 114.637 112.628C115.209 114.609 115.391 116.677 115.174 118.723C115.087 125.389 115.62 132.049 116.765 138.623C118.624 149.065 120.631 159.482 122.781 169.845C123.54 172.552 124.482 175.208 125.6 177.794C126.003 178.949 126.489 180.075 127.054 181.163C127.749 182.477 128.516 183.753 129.351 184.987C130.505 186.674 131.743 188.317 132.922 189.97C133.811 191.194 134.641 192.428 135.5 193.657C135.783 193.958 136.035 194.286 136.254 194.635C137.644 198.672 140.755 201.761 142.612 205.51C144.788 210.016 146.429 214.751 147.504 219.622C147.76 221.591 147.838 223.577 147.737 225.559C148.415 225.406 149.059 225.135 149.638 224.759C150.694 223.696 151.642 222.534 152.468 221.291C154.788 218.078 156.342 214.394 157.014 210.511C157.183 209.306 157.231 208.087 157.159 206.871C156.397 197.797 155.482 188.719 155.57 179.62C155.625 173.934 156.352 168.253 156.802 162.559C156.766 162.356 157.071 162.185 157.399 161.801C157.439 163.736 157.542 165.512 157.516 167.249C157.502 178.673 158.11 190.09 159.336 201.453C159.604 204.157 159.812 206.87 160.05 209.579C159.879 211.576 160.299 213.579 161.261 215.35C161.551 217.749 161.975 220.131 162.531 222.485C163.123 225.265 163.552 228.076 163.817 230.903C163.926 232.261 164.379 233.57 165.136 234.714C166.273 236.907 166.713 239.382 166.401 241.82C166.482 244.673 166.104 247.52 165.28 250.257C165.012 251.265 164.838 252.294 164.76 253.333C165.418 252.692 165.934 251.926 166.276 251.081C166.619 250.237 166.781 249.333 166.753 248.424C166.85 244.344 167.041 240.277 167.138 236.197C167.208 235.118 167.158 234.034 166.99 232.965C165.635 225.595 165.149 218.097 165.543 210.621C166.314 202.273 166.592 193.561 166.876 184.877C166.887 182.829 167.361 180.81 168.263 178.965C168.49 178.667 168.748 178.393 169.033 178.147C170.055 178.751 169.686 179.59 169.608 180.351C169.451 182.379 169.17 184.399 169.101 186.412C168.823 195.125 168.722 203.808 168.319 212.511C168.057 218.446 168.421 224.392 169.405 230.256C169.892 233.341 170.06 236.466 169.907 239.583C169.772 241.866 170.036 244.156 170.685 246.354C172.41 251.363 173.79 256.48 174.815 261.67C174.851 261.873 175.095 262.041 175.529 262.595C175.828 260.333 175.788 258.398 175.888 256.558C175.987 254.719 176.138 252.482 176.039 250.556C175.814 246.381 175.431 242.173 175.082 237.989C174.734 233.805 174.402 229.887 174.05 225.853C173.936 221.913 174.407 217.979 175.447 214.173C175.794 215.65 175.921 217.168 175.823 218.681C175.864 221.801 176.073 224.917 176.448 228.017C177.244 233.858 177.328 239.641 178.114 245.424C178.697 250.955 178.76 256.525 178.302 262.066C178.127 265.711 177.552 269.334 177.195 272.98C177.118 273.92 176.982 274.869 176.965 275.798C176.771 283.958 176.601 292.085 176.425 300.69C177.022 299.932 177.587 299.507 177.736 298.974C178.693 296.018 179.481 293.011 180.098 289.969C180.86 285.686 182.267 281.593 182.93 277.268C183.682 272.257 184.066 267.199 184.078 262.133C184.149 258.184 183.794 254.238 183.019 250.36C182.325 245.536 182.569 240.629 183.737 235.896C184.067 238.253 184.246 240.628 184.271 243.007C184.417 245.304 184.682 247.593 185.065 249.864C185.978 254.534 186.445 259.277 186.459 264.031C186.387 265.507 186.384 267.032 186.341 268.503C186.077 274.317 185.214 280.089 183.766 285.732C182.473 290.575 181.547 295.506 180.994 300.484C180.65 304.547 180.483 308.579 180.514 312.518C180.582 314.956 180.349 317.416 180.323 319.841C180.571 323.499 180.052 327.167 178.796 330.618C178.589 331.12 178.477 331.655 178.467 332.197C178.359 334.364 177.815 336.487 176.865 338.445C176.558 338.885 176.397 339.407 176.404 339.941C176.412 340.475 176.588 340.993 176.907 341.425C177.63 342.229 178.489 342.084 180.325 341.265C181.295 340.898 182.116 340.233 182.666 339.369C183.216 338.506 183.466 337.49 183.376 336.475C183.49 329.404 183.91 322.341 184.084 315.439C184.131 313.818 183.747 312.179 183.765 310.563C183.682 310.099 184.379 309.562 184.961 308.717C185.32 309.247 185.607 309.822 185.814 310.425C186.305 312.832 186.496 315.288 186.384 317.739C186.147 324.801 186.152 331.852 185.736 338.765C185.381 341.628 184.762 344.454 183.884 347.206C183.009 350.342 182.003 353.77 181.213 357.041C180.898 358.35 180.369 359.6 179.645 360.743C178.99 361.966 178.474 363.256 178.104 364.589C178.696 364.489 178.992 364.439 179.14 364.414C181.228 362.267 183.456 360.217 185.365 357.921C187.625 355.145 189.038 351.798 189.441 348.267C190.45 342.101 190.981 335.867 191.031 329.621C190.967 327.72 190.844 325.828 190.75 323.932C190.585 323.003 190.691 322.059 190.619 320.966C190.558 318.914 190.444 316.902 190.444 315.019C190.448 314.192 190.613 313.373 190.93 312.606C191.875 314.137 192.415 315.874 192.5 317.659C192.395 320.665 193.033 323.904 193.185 326.985C193.368 331.751 193.198 336.524 192.677 341.265C192.251 345.55 191.153 349.83 190.479 354.097C190.251 354.873 190.188 355.688 190.295 356.489C190.802 359.579 190.931 362.717 190.678 365.836C190.889 371.139 190.431 376.445 189.313 381.635C189.186 382.289 189.11 382.951 189.086 383.616C189.086 383.616 189.127 383.848 189.346 384.05C192.283 382.976 194.778 380.99 196.452 378.394C196.954 377.586 197.261 376.675 197.351 375.732C198.538 369.555 200.142 363.487 200.706 357.236C201.577 349.97 201.671 342.633 200.987 335.345C200.465 331.041 200.149 326.702 199.834 322.363C199.805 321.141 199.915 319.92 200.162 318.722C200.11 318.432 200.642 318.163 200.902 317.91C201.161 318.165 201.434 318.327 201.44 318.536C201.988 321.61 202.269 324.73 202.609 327.84C203.058 330.363 202.975 332.977 203.311 335.549C204.039 342.587 203.982 349.68 203.143 356.703C202.457 362.643 201.334 368.526 199.78 374.305C198.351 379.412 197.566 384.673 197.445 389.969C197.442 392.689 197.285 395.405 197.311 398.12C197.538 402.879 196.731 407.629 194.943 412.056C194.845 412.583 194.817 413.12 194.861 413.654C195.35 413.336 195.818 412.987 196.261 412.61C196.527 412.3 196.743 411.951 196.901 411.576C198.796 407.49 200.726 403.428 202.562 399.352C203.09 398.092 203.512 396.791 203.822 395.463C204.359 393.073 205.151 390.746 206.185 388.519C207.099 386.39 207.614 384.117 207.704 381.808C207.883 379.387 208.274 376.96 208.572 374.519C208.536 374.316 208.86 374.082 209.227 373.572C209.578 379.488 210.15 385.098 207.732 390.528C207.125 392.19 206.633 393.891 206.259 395.618C205.296 399.143 203.985 402.567 202.346 405.843C199.464 411.993 197.152 418.384 195.437 424.941C195.413 427.909 195.564 430.877 195.891 433.828C196.393 436.505 196.322 439.255 195.682 441.902C195.447 442.808 195.439 443.795 195.204 444.702C195.049 445.642 194.688 446.539 194.147 447.331C192.723 449.447 191.012 451.365 189.063 453.032C188.204 453.745 187.437 454.557 186.779 455.451C186.893 456.089 186.737 456.414 186.986 456.611C187.74 457.856 187.967 459.339 187.618 460.744C187.27 462.149 186.374 463.364 185.122 464.128C183.949 465.17 182.854 466.295 181.847 467.492C181.751 468.066 181.742 468.652 181.821 469.229C182.435 472.681 183.045 476.104 183.659 479.555C184.274 483.007 184.488 485.75 184.946 488.839C185.405 491.929 186.139 495.54 186.467 498.92C186.665 500.397 186.786 501.882 186.832 503.37C187.109 507.836 187.049 512.298 187.662 516.766C188.188 523.945 188.207 531.15 187.719 538.33C187.716 541.05 187.924 543.763 187.921 546.483C187.778 557.902 187.604 569.316 187.399 580.725C187.33 581.941 187.189 583.152 186.977 584.352C186.796 585.698 186.691 587.052 186.663 588.409C186.936 596.969 186.231 605.514 186.169 614.071C186.076 615.272 185.746 616.444 185.197 617.522C184.974 617.978 184.195 618.23 183.266 618.835C183.964 614.526 184.32 610.17 184.331 605.806C184.62 601.604 184.939 597.397 185.133 593.18C185.191 591.423 184.992 589.665 184.54 587.962C184.13 586.668 184.053 585.295 184.316 583.966C185.279 577.369 185.735 570.71 185.679 564.044C185.879 558.482 186.048 552.926 185.763 547.386C185.584 540.723 186.135 534.056 186.262 527.401C186.308 524.406 186.04 521.702 186.146 518.875C186.293 514.219 185.211 509.681 184.973 505.09C184.969 504.823 184.922 504.559 184.833 504.307C184.021 500.598 183.444 496.843 183.106 493.065C182.839 492.033 182.486 491.023 182.05 490.047C181.627 489.206 181.324 488.312 181.151 487.39C181.048 483.045 179.627 478.834 179.648 474.498C179.61 473.918 179.507 473.344 179.343 472.786C178.912 473.278 178.469 473.532 178.427 473.808C178.144 476.844 177.921 479.87 177.701 482.746C177.605 484.643 177.8 486.543 178.278 488.385C178.389 490.4 178.604 492.408 178.922 494.401C179.446 496.218 179.688 498.101 179.642 499.987C179.63 501.632 179.613 503.249 179.689 504.879C179.756 505.343 179.898 505.793 180.11 506.212C181.353 506.002 180.946 505.085 181.372 504.564C181.403 504.738 181.76 504.857 181.756 505.007C181.644 505.922 181.508 506.872 181.308 507.802C180.688 510.475 180.899 513.27 181.913 515.827C182.174 515.066 182.374 514.644 182.454 514.241C182.531 513.74 182.68 513.252 182.898 512.792C183.2 514.633 183.163 516.511 182.787 518.338C181.958 521.503 181.972 524.823 182.827 527.983C183.186 529.58 183.263 531.224 183.052 532.845C182.882 536.34 182.528 539.837 182.197 543.628C180.916 542.261 181.473 540.762 181.31 539.505C181.147 538.248 181.013 536.806 180.894 535.452C180.774 534.098 180.703 532.496 180.553 530.968C180.514 529.619 180.205 528.291 179.643 527.058C179.56 527.789 179.358 528.541 179.344 529.32C179.281 533.245 179.193 537.204 179.218 541.114C179.243 545.024 179.198 548.199 179.398 551.721C179.977 561.992 179.764 572.277 179.829 582.575C179.905 580.261 180.105 577.956 180.062 575.663C180.138 571.347 180.544 567.043 181.277 562.788C181.357 562.206 181.971 561.714 182.337 561.204L182.283 561.243ZM175.308 303.838L174.562 304.442L174.96 304.793C174.903 304.474 175.142 304.105 175.204 303.766C175.413 303.629 175.61 303.475 175.793 303.307C175.793 303.307 175.757 303.104 175.737 302.988C175.716 302.872 175.405 303.523 175.308 303.838ZM166.891 274.546C167.09 274.411 167.277 274.259 167.45 274.093C167.45 274.093 167.399 273.803 167.368 273.629L167.252 274.007L166.946 274.686C166.918 274.914 166.877 275.141 166.823 275.364C166.831 275.091 166.853 274.817 166.891 274.546ZM155.466 297.397C154.518 297.558 153.871 298.205 154.013 299.347L155.492 298.917C154.175 303.682 154.175 303.682 152.913 304.643C152.67 303.279 154.047 301.761 152.148 300.35C151.499 302.013 149.528 302.765 149.41 304.668C148.992 307.652 148.906 310.672 149.153 313.676C149.556 315.938 149.45 318.257 149.616 320.559C149.709 321.081 149.26 321.815 149.911 322.213C150.553 321.348 151.093 320.415 151.52 319.43C151.769 318.544 151.843 317.618 151.736 316.704C151.55 315.66 151.359 314.587 151.35 313.513C151.205 311.607 151.754 309.714 152.9 308.171C153.12 307.864 153.877 308.005 154.344 307.717C153.65 308.611 152.668 309.435 153.893 311.349C154.727 308.462 156.656 305.998 159.285 304.46L157.883 307.207C156.946 309.308 155.944 311.39 155.097 313.655C155.004 313.812 154.95 313.987 154.938 314.168C154.926 314.348 154.957 314.529 155.028 314.696C155.099 314.864 155.209 315.012 155.348 315.132C155.487 315.251 155.653 315.337 155.831 315.383L158.327 312.271C158.189 311.528 158.157 310.769 158.231 310.017C158.511 309.105 158.985 308.261 159.62 307.54C161.708 304.88 163.393 301.938 164.622 298.805C164.826 298.858 165.016 298.955 165.177 299.089C165.338 299.223 165.467 299.39 165.553 299.579C165.639 299.768 165.681 299.973 165.676 300.18C165.67 300.387 165.618 300.59 165.522 300.774C164.807 302.529 163.992 304.243 163.081 305.908C162.399 307.219 161.554 308.468 160.872 309.779C160.748 310.444 160.715 311.123 160.774 311.797C161.65 311.058 162.454 310.242 163.177 309.358C164.734 306.973 166.183 304.487 167.706 302.077C167.706 302.077 168.179 301.997 168.416 301.957C168.653 301.917 168.817 302.666 169.228 303.433C169.751 301.402 170.208 299.861 170.542 298.31C170.876 296.76 170.304 294.914 171.712 293.062C172.047 295.702 172.093 298.369 171.848 301.017C172.854 300.847 173.042 300.188 173.116 299.577C173.608 297.129 173.839 294.636 173.805 292.14C173.518 289.173 173.446 286.189 173.588 283.213C173.485 282.633 173.864 281.851 172.808 281.402L169.71 283.869C169.368 284.205 168.928 284.429 168.451 284.51C167.974 284.59 167.483 284.524 167.045 284.321C166.834 284.196 166.599 284.115 166.355 284.083C166.111 284.051 165.862 284.068 165.625 284.133C165.388 284.199 165.168 284.311 164.977 284.463C164.786 284.615 164.629 284.804 164.516 285.018C162.6 287.147 160.428 289.04 158.047 290.655C156.054 291.045 154.254 292.084 152.941 293.603C151.628 295.122 150.878 297.031 150.814 299.022C151.199 298.957 151.495 298.907 151.672 298.876C153.799 296.604 155.926 294.331 157.983 292.011C158.16 291.802 157.859 291.315 158 290.902C158.923 291.463 159.506 292.171 158.773 293.192C158.04 294.212 157.236 295.006 156.452 295.916L155.466 297.397ZM165.744 406.514L162.318 404.404C162.119 404.242 161.883 404.127 161.631 404.068C161.379 404.01 161.116 404.009 160.863 404.066C160.611 404.124 160.375 404.237 160.175 404.398C159.975 404.56 159.815 404.764 159.709 404.996C161.376 406.117 163.187 407.016 165.096 407.669L165.688 406.373C165.925 406.333 166.282 406.452 166.369 406.258C167.017 405.611 166.582 405.057 166.07 404.576C165.557 404.095 164.925 403.455 163.944 404.458L165.744 406.514ZM174.715 390.263L175.641 388.612L176.248 387.912L177.42 386.1L177.865 385.516L179.127 383.868C179.726 383.677 180.272 383.355 180.724 382.927C181.176 382.498 181.522 381.974 181.737 381.395C182.35 380.215 183.068 379.107 183.825 378.053C184.175 378.472 184.453 378.664 184.484 378.838C184.582 379.373 184.544 379.923 184.373 380.44C183.657 382.203 182.636 383.831 181.356 385.254C180.608 386.054 179.956 386.936 179.415 387.883C179.441 388.028 179.498 388.347 179.591 388.87C181.699 386.839 183.296 384.328 186.54 384.047C187.096 381.919 187.527 379.761 187.829 377.584C188.211 372.021 188.381 366.465 188.609 360.898C188.496 360.26 188.727 359.503 187.589 359.278C186.563 360.199 185.395 361.173 184.331 362.22C183.267 363.267 182.961 363.946 182.141 364.653C180.188 366.358 178.2 368.039 176.132 369.615C175.055 370.469 173.888 371.207 172.651 371.818C169.225 373.504 166.492 376.286 164.905 379.703C163.946 381.335 163.545 383.224 163.76 385.096C164.096 386.982 164.427 388.838 164.585 390.754C164.686 391.816 165.005 392.848 165.524 393.787C166.042 394.726 166.749 395.553 167.601 396.219C167.684 396.496 167.784 396.769 167.899 397.035C169.705 396.042 171.133 394.814 170.626 392.479L172.014 393.768C173.296 392.883 174.313 391.68 174.962 390.281L174.715 390.263ZM137.134 347.235C137.088 347.395 137.078 347.562 137.103 347.726C137.128 347.889 137.188 348.046 137.279 348.186C137.37 348.326 137.49 348.445 137.631 348.536C137.773 348.627 137.932 348.688 138.099 348.715C138.306 348.68 138.767 348.184 139.532 347.516L137.031 347.342C135.802 345.895 134.134 344.869 132.27 344.414C130.398 343.834 129.68 341.685 127.425 341.529C127.727 342.846 128.346 344.073 129.231 345.109C130.115 346.144 131.24 346.957 132.511 347.48L137.134 347.235ZM179.612 464.703C180.29 464.555 180.914 464.229 181.416 463.76C181.918 463.29 182.28 462.695 182.462 462.039C182.568 461.097 182.418 460.144 182.028 459.276C181.638 458.409 181.021 457.657 180.24 457.096C178.735 456.786 177.167 457.051 175.858 457.839C175.284 458.208 174.638 458.458 173.961 458.573C173.283 458.687 172.589 458.664 171.921 458.505C171.407 458.347 170.858 458.341 170.342 458.487C169.825 458.633 169.364 458.924 169.017 459.326C168.688 459.576 168.454 459.928 168.353 460.324C168.252 460.72 168.29 461.139 168.46 461.512C168.72 461.89 169.09 462.183 169.524 462.35C169.957 462.517 170.431 462.55 170.884 462.446C171.339 462.241 171.753 461.958 172.108 461.611C172.96 462.38 173.615 463.336 174.016 464.401C174.418 465.465 174.556 466.608 174.418 467.734C174.322 469.601 174.976 471.431 176.241 472.834C177.643 470.266 178.84 467.596 179.821 464.847L179.612 464.703ZM135.643 369.181C136.597 369.916 137.562 370.709 138.57 371.404C139.11 371.939 139.759 372.355 140.475 372.625C141.191 372.896 141.957 373.014 142.723 372.972C144.378 372.782 146.047 373.215 147.391 374.183C149.682 375.4 152.263 375.994 154.865 375.906C154.513 375.129 154.409 374.369 153.967 374.115C152.11 372.936 150.087 372.024 148.23 370.844C144.82 368.822 141.755 366.682 138.537 364.537C138.037 364.072 137.588 363.558 137.196 363.002C141.734 363.309 144.462 365.954 147.51 367.829C148.694 367.628 149.909 368.11 150.902 367.523C150.623 365.957 148.796 365.459 149.093 363.527C149.782 363.798 150.37 363.848 150.674 364.185C151.682 365.29 152.614 366.46 153.463 367.687C154.628 369.432 155.689 371.284 156.864 373.087C157.882 371.092 157.822 371.102 157.287 369.639C156.102 367.045 155.667 364.183 156.028 361.366C155.837 360.293 156.772 359.208 156.133 357.673C156.105 359.231 156.054 360.316 156.033 361.395C155.178 360.703 154.323 360.011 153.527 359.31C151.873 357.947 149.958 356.92 147.896 356.289C144.487 355.201 140.939 354.595 137.358 354.488C133.502 354.245 129.725 355.303 125.86 354.493C124.078 354.354 122.328 353.945 120.673 353.28C120.072 353.129 119.453 353.053 118.833 353.054C119.155 353.836 119.091 354.504 119.568 354.782C121.59 357.01 123.294 359.495 124.635 362.171C125.666 364.031 126.801 365.834 128.036 367.571C129.721 369.878 131.741 371.932 134.032 373.667C137.557 376.195 141.955 377.264 146.274 376.643C146.024 376.267 145.912 375.808 145.639 375.646C144.2 374.816 142.713 374.07 141.184 373.412C140.009 373.068 138.916 372.498 137.968 371.735C137.02 370.972 136.237 370.031 135.666 368.968L135.643 369.181ZM165.285 432.886L162.133 432.314C158.052 431.661 153.946 431.041 149.884 430.325C147.972 429.956 145.993 430.126 144.177 430.814C141.809 428.824 141.809 428.824 139.209 429.294C140.656 430.363 142.45 430.877 144.255 430.741L143.536 432.356L139.42 431.679C139.732 433.857 140.551 435.937 141.814 437.758C142.188 438.142 142.207 438.767 142.448 439.264C143.228 441.729 144.445 444.042 146.043 446.095C148.141 450.274 151.537 453.695 155.744 455.867C157.004 456.78 158.467 457.39 160.012 457.648C161.557 457.905 163.142 457.803 164.639 457.348C166.143 455.689 163.672 455.002 163.942 453.432L167.823 454.508C167.162 452.386 165.837 450.52 164.037 449.173C162.701 448.187 161.478 447.061 160.39 445.817C160.2 445.61 160.266 445.121 160.214 444.831C160.162 444.541 160.652 444.547 160.747 444.74C163.213 446.086 166.119 446.819 167.701 449.539C167.961 449.973 168.527 450.236 168.954 450.581C169.472 450.918 169.911 451.359 170.24 451.876C170.568 452.392 170.78 452.972 170.86 453.575C170.973 454.214 171.531 454.777 172.332 454.133C172.044 451.547 170.939 449.112 169.17 447.168C168.648 446.541 168.208 445.853 167.86 445.119C167.791 444.871 167.782 444.611 167.832 444.359C167.882 444.107 167.991 443.87 168.15 443.666C168.562 443.238 169.097 443.505 169.492 444.006C169.886 444.507 170.737 445.349 171.703 446.321C171.829 445.314 172.15 444.721 171.96 444.335C170.613 441.396 169.182 438.501 167.693 435.616C167.382 435.071 166.624 434.751 166.17 434.26C165.823 433.862 165.512 433.435 165.241 432.983L169.856 434.233C169.204 432.282 168.683 430.727 168.122 429.119C167.293 429.259 166.534 428.939 166.122 429.876C166.397 430.397 166.703 430.913 167.029 431.545C166.72 431.97 166.385 432.376 166.025 432.761C165.882 432.815 165.546 432.812 165.31 432.852L165.285 432.886ZM142.645 247.487C142.525 248.683 142.34 249.871 142.089 251.047C141.815 252.08 141.166 253.056 141.007 254.219C140.848 255.381 140.225 255.994 141.492 256.945C142.094 257.411 141.838 258.888 142.009 259.846C142.179 260.803 141.692 261.662 142.525 262.746L144.21 260.22C144.386 261.206 144.363 262.106 144.459 262.986C143.807 263.097 143.518 263.355 144.159 263.874L144.354 262.915C144.741 262.684 145.114 262.431 145.47 262.158C146.02 261.646 146.505 261.116 146.99 260.586C146.85 261.576 146.479 262.521 145.908 263.348C145.336 264.175 144.578 264.863 143.691 265.357C142.604 265.93 142.692 266.423 143.657 267.903C147.12 266.629 147.431 263.409 148.708 260.474L146.902 260.78C148.16 258.595 148.599 255.921 150.843 254.136C151.819 255.674 149.998 257.268 151.029 258.946C153.049 256.93 154.924 255.298 156.602 253.251C157.095 252.622 157.365 251.852 157.371 251.059C157.45 249.79 156.917 248.506 157.692 247.209C158.943 247.894 157.498 250.23 159.755 250.057C159.881 247.855 157.915 245.379 160.62 243.098C160.728 244.902 160.779 246.388 160.943 247.824C161.021 248.259 161.394 248.644 161.875 249.459C162.159 248.837 162.381 248.189 162.537 247.524C162.849 244.483 163.158 241.592 163.422 238.62C163.553 238.09 163.538 237.536 163.38 237.013C161.857 234.293 161.071 231.237 161.098 228.137C159.854 225.568 159.074 222.809 158.792 219.981C158.616 219.369 158.407 218.766 158.165 218.175C157.802 218.535 157.468 218.712 157.445 218.925C156.775 221.939 155.116 224.655 152.721 226.657C151.859 227.526 151.067 228.459 150.352 229.449C148.269 232.311 146.29 235.246 144.202 238.08C142.197 240.679 140.764 243.658 139.996 246.83C139.603 248.39 139.062 249.976 138.57 251.494C137.973 253.274 137.87 255.179 138.271 257.012C138.567 256.962 138.804 256.922 138.834 256.917L141.734 248.538C141.708 248.408 141.712 248.274 141.746 248.145C141.78 248.017 141.843 247.898 141.931 247.797C142.018 247.697 142.128 247.616 142.251 247.562C142.375 247.509 142.509 247.483 142.645 247.487ZM174.748 399.7C173.151 400.15 172.735 401.415 172.647 402.804C172.252 409.146 171.856 415.488 171.524 421.849C171.424 423.51 172.693 424.131 174.232 424.379C174.718 424.184 175.174 423.926 175.589 423.611C178.779 420.8 181.934 417.965 185.084 415.101C185.554 414.616 185.96 414.076 186.292 413.492C187.635 411.441 188.909 409.343 190.252 407.293C190.806 406.76 191.417 406.286 192.074 405.879C191.463 407.417 191.3 408.042 191.003 408.6C188.982 413.207 185.928 417.309 182.068 420.601C181.744 420.836 181.09 421.275 181.881 421.948C186.524 419.808 190.287 416.19 192.558 411.683C194.29 408.432 195.246 404.838 195.353 401.17C195.705 394.925 195.998 388.69 196.291 382.456C196.232 381.879 196.13 381.307 195.986 380.744C194.735 381.942 193.764 382.824 192.832 383.758L188.234 388.422C187.781 388.924 187.294 389.395 186.777 389.834C183.286 392.288 180.141 395.182 177.421 398.44C176.801 399.161 176.05 399.764 175.207 400.22C174.621 400.528 174.72 399.884 174.806 399.511C174.892 399.138 174.728 399.076 174.687 398.843C174.66 399.207 174.693 399.56 174.659 399.715L174.748 399.7ZM159.334 332.659C159.373 333.068 159.365 333.48 159.309 333.888C158.134 339.415 156.214 344.764 153.602 349.795C153.322 350.169 153.143 350.605 153.081 351.065C153.019 351.524 153.076 351.992 153.246 352.425C153.293 352.686 153.827 352.775 154.467 353.114C154.442 351.774 154.414 350.763 154.396 350.318C155.814 348.344 156.84 346.916 157.984 345.288C158.269 345.019 158.586 344.785 158.927 344.59C159.066 347.256 156.648 348.92 155.612 351.666C156.273 351.518 156.921 351.319 157.549 351.069C158.069 350.89 158.538 350.596 158.921 350.209C159.664 349.422 160.318 348.56 160.873 347.637C161.609 346.643 162.174 345.538 162.547 344.365L158.876 344.987C159.825 342.436 160.285 341.94 162.092 341.126C163.978 339.521 165.447 337.501 166.38 335.23C167.049 333.275 168.292 331.557 169.954 330.292C169.318 333.747 166.91 335.977 166.701 339.09C167.618 338.613 168.559 338.184 169.523 337.806C170.174 337.582 170.766 337.219 171.257 336.743C171.747 336.267 172.123 335.691 172.357 335.055C172.793 333.905 173.229 332.756 173.571 331.592C173.878 329.85 174.349 328.14 174.979 326.483C176.94 322.595 176.571 318.295 177.65 314.079C177.878 312.732 177.962 311.366 177.9 310.002C177.98 308.734 177.994 307.447 178.059 305.583C176.947 306.836 175.71 307.977 174.365 308.987C173.041 309.648 171.655 310.183 170.227 310.585C165.991 312.084 162.24 314.658 159.355 318.043C158.704 318.746 157.963 319.363 157.151 319.881C155.42 321.161 154.07 322.871 153.24 324.835C152.41 326.798 152.13 328.943 152.429 331.049C152.806 333.82 152.834 336.625 152.514 339.401C152.424 342.061 152.601 344.723 153.044 347.349C154.329 346.138 155.19 344.559 155.505 342.839C156.282 340.526 156.802 338.137 157.639 335.814C158.164 334.65 157.916 333.257 159.334 332.659ZM120.267 211.566L119.885 219.698C119.796 221.885 120.437 224.043 121.711 225.843C121.956 226.19 122.446 226.376 123.008 226.789C123.831 223.362 122.94 219.898 125.502 216.984C125.589 217.471 125.626 217.965 125.612 218.459C124.972 221.844 124.696 225.286 124.787 228.728C124.72 228.977 124.71 229.237 124.759 229.489C124.807 229.742 124.911 229.981 125.065 230.189C125.219 230.397 125.418 230.57 125.648 230.694C125.878 230.818 126.133 230.89 126.395 230.906L127.4 226.105C127.694 226.895 127.843 227.729 127.839 228.57C127.984 229.382 127.797 230.221 127.848 231.019C128.045 234.182 128.827 234.976 132.449 235.618C133.022 233.103 133.107 230.504 132.701 227.956C131.961 225.511 131.067 223.063 130.268 220.629C129.616 218.677 128.998 216.75 128.44 214.813C128.428 214.043 128.517 213.275 128.704 212.527C129.322 213.946 129.608 214.525 129.835 215.114C130.356 216.67 130.788 218.24 131.334 219.761C133.584 224.564 134.83 229.758 134.999 235.037C135.028 235.499 135.109 235.956 135.242 236.4L137.965 233.369C137.226 235.556 136.482 237.714 135.708 239.877C135.118 241.531 135.922 242.619 137.703 244.23C138.546 240.687 138.628 237.01 137.946 233.432C137.605 231.518 139.808 231.384 140.39 230.03C140.311 226.16 139.84 222.306 138.982 218.525C138.92 218.177 139.026 217.741 139.047 217.349C140.316 218.751 141.081 220.522 141.226 222.389C141.794 225.579 141.888 228.85 142.219 232.081C142.328 232.508 142.484 232.922 142.683 233.317C143.207 232.835 143.622 232.25 143.9 231.601C144.179 230.951 144.315 230.252 144.3 229.547C144.418 226.957 144.542 224.397 144.601 221.817C144.624 221.007 144.541 220.198 144.355 219.408C142.953 212.475 140.017 205.924 135.753 200.218C135.293 199.54 134.917 198.811 134.635 198.047C134.367 197.282 134.041 196.538 133.659 195.821C131.165 192.09 128.616 188.398 126.092 184.672C125.803 184.243 125.581 183.683 124.729 184.037C124.603 185.044 124.488 186.11 124.327 187.093C124.008 192.528 122.591 197.846 120.159 202.739C118.596 205.546 118.096 208.806 118.748 211.942L120.267 211.566ZM101.399 221.394C100.909 224.497 100.977 227.661 101.6 230.743C101.809 232.351 101.913 233.97 101.914 235.59C101.952 242.11 102.912 248.594 104.765 254.858C105.069 256.319 105.719 257.689 106.664 258.858C107.608 260.027 108.821 260.962 110.203 261.587C111.313 262.152 112.377 262.801 113.385 263.528C113.86 263.74 114.358 263.896 114.871 263.993C115.091 263.47 115.173 262.9 115.11 262.336C115.047 261.773 114.841 261.233 114.51 260.768C113.844 259.596 113.118 258.434 112.368 257.306C112.368 257.306 111.923 257.202 111.394 257.142L111.91 260.043C110.281 260.139 109.547 259.786 109.474 258.692C109.696 256.665 109.138 254.629 107.908 252.981C107.58 252.678 107.722 251.937 107.629 251.415C106.872 247.146 106.901 242.78 107.713 238.522C108.343 242.061 107.628 244.901 108.285 247.39C109.315 247.693 109.892 247.506 110.142 246.687C110.393 245.867 110.195 244.586 111.326 243.229C111.349 245.586 111.323 247.323 111.412 249.191C111.422 250.178 111.597 251.158 111.928 252.091C112.508 253.637 114.037 254.513 114.931 255.766C115.825 257.019 115.76 258.883 116.955 260.115C118.153 261.719 119.745 263.002 121.584 263.843C121.989 264.562 122.568 265.173 123.27 265.622C123.972 266.071 124.776 266.344 125.611 266.418C127.36 266.647 128.955 267.52 130.072 268.859C130.381 269.225 131.019 269.386 131.611 268.599C130.409 266.92 128.96 265.423 127.313 264.157C123.823 261.221 120.949 257.648 118.852 253.638C118.644 253.019 118.529 252.374 118.511 251.723C119.212 252.191 119.867 252.72 120.47 253.304C121.307 254.137 122.086 255.023 122.803 255.957C123.542 257.107 124.359 258.206 125.249 259.248C128.147 262.163 131.149 264.972 134.155 267.809C134.483 268.112 134.947 268.661 135.746 267.839C135.008 266.948 134.235 266.033 133.542 265.224C132.064 263.263 130.587 261.302 129.163 259.302C128.883 258.931 128.376 258.479 129.173 257.986C131.264 259.454 132.415 261.978 135.312 263.52C134.88 261.699 134.128 259.966 133.089 258.398C132.366 256.907 131.619 255.45 130.871 253.993C129.868 252.366 129.524 250.43 129.905 248.569C130.878 250.436 131.532 251.879 132.293 253.244C133.055 254.609 133.935 255.954 135.066 257.854C135.456 254.561 135.787 251.965 136.169 248.972C135.857 248.511 135.614 248.009 135.446 247.481C134.52 244.178 132.347 241.341 129.366 239.546C127.054 237.603 124.58 235.853 121.969 234.315C121.279 233.872 120.681 233.304 120.207 232.641C118.882 231.193 117.264 229.644 115.431 229.626C114.061 229.553 112.721 229.2 111.498 228.589C110.276 227.978 109.197 227.122 108.333 226.077C107.188 224.956 105.886 223.981 104.722 222.923C104.325 223.439 104.032 223.847 103.671 224.386L101.399 221.394ZM133.947 316.49C135.359 317.058 136.4 317.419 137.248 317.903C137.874 318.133 138.439 318.497 138.902 318.968C140.442 320.702 141.799 322.585 142.952 324.586C143.419 325.493 143.563 326.306 144.749 326.284C145.935 326.263 146.233 325.196 146.671 324.405C146.838 323.892 146.908 323.354 146.877 322.816C147.042 321.058 147.104 319.291 147.063 317.526C147.184 313.044 146.141 308.605 144.034 304.622C143.599 303.792 142.999 303.054 142.269 302.454C141.538 301.854 140.693 301.404 139.782 301.129C136.507 300.024 133.167 299.112 129.781 298.401C126.411 297.806 122.966 297.642 119.583 297.14C116.842 296.891 114.181 296.101 111.758 294.819C111.451 294.633 111.036 294.703 110.314 294.586C110.414 295.425 110.562 296.258 110.758 297.081C112.457 301.484 114.447 305.808 116.156 310.27C117.432 313.876 119.591 317.122 122.445 319.723C123.724 320.973 125.326 321.858 127.079 322.285C128.975 322.651 130.884 322.925 132.798 323.228L138.121 324L140.108 324.201C140.033 322.063 138.517 320.915 137.587 319.459C137.464 319.339 137.299 319.27 137.126 319.268C137.126 319.268 136.948 319.298 136.83 319.319C136.337 320.149 137.9 321.05 136.765 321.869C134.258 320.292 133.898 319.815 133.799 316.515L133.947 316.49ZM135.977 295.857L136.431 295.153C135.476 294.418 134.493 293.688 133.563 292.92C132.52 292.181 131.553 291.344 130.678 290.42C129.639 288.997 128.335 287.778 126.836 286.828C126.609 286.719 126.411 286.56 126.259 286.362C126.107 286.165 126.005 285.934 125.962 285.691C125.918 285.447 125.935 285.197 126.009 284.961C126.084 284.725 126.215 284.51 126.391 284.333C127.537 286.141 129.786 286.268 130.989 287.887C133.903 291.577 138.124 293.701 141.847 296.626C142.03 296.695 142.229 296.714 142.422 296.682C142.615 296.649 142.795 296.566 142.943 296.441C143.182 296.071 143.389 295.349 143.189 295.084C142.17 293.643 141.015 292.464 139.857 290.927C138.475 289.56 137.573 287.797 137.283 285.895L139.177 287.965C139.82 288.663 140.389 289.463 141.081 290.093C141.772 290.722 141.887 291.54 143.164 291.174C142.968 290.072 142.782 289.027 142.335 288.057C141.888 287.087 141.507 286.494 141.556 285.739C141.359 282.904 140.472 280.154 138.969 277.721C138.373 276.368 137.462 275.17 136.308 274.224C135.154 273.278 133.791 272.609 132.326 272.272C129.455 271.563 126.719 269.726 123.508 270.539C123.375 270.564 123.236 270.556 123.107 270.515C122.977 270.475 122.859 270.403 122.765 270.306C121.879 268.753 120.449 269.115 119.08 269.137C118.399 269.186 117.717 269.042 117.116 268.723C114.475 267.482 112.025 265.886 109.836 263.98C108.829 262.786 107.434 261.967 105.885 261.661C106.794 266.766 107.646 271.552 108.735 276.298C109.159 278.676 110.061 281.003 110.751 283.337C110.966 283.764 111.242 284.16 111.57 284.513L112.044 284.432L111.094 279.095C112.633 280.702 113.973 282.481 115.087 284.395C116.508 286.724 117.846 289.097 119.38 291.377C120.06 292.425 120.98 293.302 122.068 293.937C123.156 294.573 124.381 294.95 125.644 295.038C117.116 284.141 117.116 284.141 117.32 281.178C117.638 281.457 117.936 281.756 118.212 282.073C120.82 285.247 123.316 288.47 126.003 291.57C126.959 292.704 128.163 293.614 129.526 294.231C131.591 294.907 133.696 295.459 135.829 295.882L135.977 295.857ZM152.284 289.809C154.082 290.311 154.087 290.34 154.831 289.377C158.728 284.791 162.201 279.873 165.207 274.682C166.442 272.234 168.309 270.146 170.625 268.625C170.49 271.636 168.942 274.079 168.87 276.93C171.951 274.705 172.597 273.878 172.869 271.293C173.523 266.162 172.816 260.951 170.815 256.162C170.622 255.52 170.504 254.858 170.464 254.19C170.35 253.552 170.226 252.856 169.226 252.547L165.153 256.225C162.783 258.329 160.443 260.429 158.017 262.394C157.144 262.974 156.206 263.453 155.221 263.823C152.78 265.013 150.038 265.717 149.054 268.752C148.706 269.497 148.17 270.143 147.497 270.629C146.216 271.938 145.441 273.643 145.306 275.453C144.843 279.799 145.624 284.188 147.563 288.128C147.594 288.302 148.004 288.382 148.243 288.521C149.548 287.971 149.336 286.782 149.486 285.741C149.792 283.179 150.005 280.603 150.47 278.074C150.596 277.004 150.939 275.969 151.479 275.031C152.019 274.093 152.745 273.27 153.614 272.611C151.431 279.704 151.309 280.561 151.942 282.576C153.387 281.122 154.541 279.416 155.347 277.547C155.66 277.076 155.896 276.348 157.065 276.748L152.284 289.809ZM144.231 398.743C141.642 396.193 138.92 394.951 139.245 391.639C139.599 391.898 139.934 392.181 140.249 392.485C142.502 395.588 145.441 398.155 148.845 399.993C149.874 400.471 150.961 400.819 152.08 401.029C152.981 401.295 153.9 402.005 155.169 401.253L151.049 398.155C149.44 397.326 148.14 396.019 147.335 394.422C150.908 395.819 153.017 398.928 157.374 399.415C155.943 397.715 154.9 396.487 153.888 395.254C153.528 394.777 153.535 394.298 154.356 393.771C154.994 394.189 155.598 394.656 156.16 395.168C157.689 396.732 159.169 398.364 160.673 399.962C161.196 400.501 161.756 400.735 162.407 399.937C161.269 397.142 158.834 395.283 157.538 391.947C158.516 392.469 159.055 392.586 159.335 392.957C160.217 393.973 160.972 395.13 161.855 396.146C162.204 396.565 162.595 397.395 163.504 396.674C162.089 393.041 160.353 389.535 158.314 386.198C157.464 384.715 156.297 383.429 154.892 382.429C153.487 381.429 151.879 380.739 150.176 380.405C147.071 380.094 144.2 379.385 141.193 378.938C140.651 378.809 140.083 378.843 139.563 379.035C137.075 379.899 134.397 380.105 131.8 379.633C131 379.589 130.2 379.724 129.291 379.759C129.852 385.132 133.703 388.603 136.21 392.75C138.334 395.38 141.104 397.44 144.26 398.738L144.231 398.743ZM150.169 343.534C150.268 341.421 149.893 339.312 149.069 337.355C148.682 336.876 148.456 336.29 148.424 335.68C148.392 335.069 148.555 334.465 148.889 333.949C149.107 333.518 149.179 333.03 149.095 332.555C149.01 332.08 148.774 331.644 148.419 331.31C148.047 330.75 147.546 330.283 146.957 329.947C146.367 329.611 145.705 329.415 145.025 329.375C141.966 329.325 139.207 329.075 136.296 329C135.289 328.981 134.283 329.092 133.305 329.328C131.021 329.864 128.758 330.516 126.47 331.023C125.443 331.377 124.362 331.56 123.272 331.565C120.786 331.441 118.364 330.745 116.201 329.535C115.784 329.247 115.267 328.916 114.753 329.452C116.309 334.075 118.659 338.407 121.7 342.259C123.483 344.675 125.515 346.904 127.764 348.912C128.405 349.56 129.186 350.059 130.049 350.373C130.913 350.687 131.837 350.808 132.753 350.726C132.495 349.276 131.199 349.017 130.432 348.31C129.666 347.604 128.825 346.82 128.078 346.05C127.331 345.28 126.36 344.279 125.578 343.485C124.721 342.765 124.056 341.852 123.64 340.825C123.995 340.765 124.143 340.74 124.262 340.72C126.028 341.048 126.274 340.887 125.833 339.438C125.766 339.061 125.704 338.713 125.237 337.806L127.27 339.284C129.005 340.609 130.83 341.818 132.733 342.901C135.662 344.763 139.004 345.908 142.477 346.241C142.862 346.175 143.265 346.555 143.646 346.64C143.9 346.657 144.153 346.614 144.386 346.515C143.97 345.719 143.529 344.957 143.063 344.05C145.671 343.279 146.364 345.463 147.578 346.453C147.578 346.453 147.665 346.946 147.722 347.265L145.718 348.172C145.961 349.535 147.022 350.013 147.908 349.504C150.426 348.062 150.738 346.216 148.341 344.232L150.169 343.534ZM159.698 408.703C156.929 407.571 154.005 406.848 151.02 406.557C150.199 406.423 149.416 406.117 148.726 405.661C146.051 404.558 143.096 404.287 140.261 404.883C138.927 406.125 137.357 405.703 136.014 405.184C135.419 405.152 134.821 405.193 134.236 405.306C134.684 405.991 135.178 406.646 135.714 407.267C138.42 410.153 140.651 413.435 142.326 416.993C144.088 420.746 146.333 424.262 149.008 427.456C151.523 427.537 153.978 429.333 156.854 428.188C156.345 426.87 155.041 426.912 154.158 426.404C153.274 425.896 152.314 425.641 151.795 424.952C148.999 421.242 146.336 417.42 143.678 413.627C143.637 413.395 143.57 413.018 143.698 412.369C144.241 412.743 144.746 413.168 145.205 413.637C147.6 416.638 150.073 419.566 152.306 422.684C152.709 423.361 153.246 423.952 153.885 424.424C154.524 424.895 155.252 425.237 156.028 425.43C157.107 425.666 158.152 426.056 159.226 426.263C161.309 426.657 163.372 426.935 165.504 427.261C165.665 425.77 164.513 424.441 165.509 422.838C166.103 423.604 166.647 424.259 167.126 424.895C168.494 424.185 168.986 423.355 168.705 422.118C168.127 419.881 167.047 417.798 165.545 416.019C163.64 413.712 161.848 411.357 159.718 408.64L159.698 408.703ZM192.067 420.402L178.691 429.211C178.337 429.45 178.008 429.656 177.689 429.919C176.216 431.256 175.17 432.982 174.676 434.889C174.183 436.796 174.262 438.804 174.906 440.669C175.004 441.22 175.356 441.997 176.294 441.958C177.263 441.185 177.885 440.072 178.029 438.855C177.997 437.628 178.25 436.411 178.768 435.294C179.318 436.157 179.733 436.774 180.193 437.473L183.17 433.981C182.593 435.772 181.885 437.52 181.051 439.21C180.276 441.111 179.603 443.05 179.035 445.02C178.406 447.041 177.969 449.116 177.729 451.217C177.585 452.7 177.925 454.191 178.701 455.475C179.669 453.548 178.492 452.074 179.133 450.71C179.775 449.346 180.157 447.549 180.823 446.151C181.489 444.753 182.123 443.69 182.79 442.471C182.971 443.296 182.945 444.151 182.716 444.964C182.476 445.841 182.2 446.695 181.752 448.115C183.237 446.584 184.298 444.708 184.837 442.662C185.021 442.153 185.124 441.359 186.168 441.571C186.211 444.551 184.273 447.031 184.123 449.955C184.702 449.622 185.175 449.138 185.491 448.558C185.943 447.528 186.314 446.466 186.603 445.381C186.997 444 188.349 445.086 188.972 444.472C190.167 441.032 190.863 437.444 191.039 433.813C191.637 438.732 191.118 443.717 189.521 448.413C191.207 447.167 192.361 445.354 192.763 443.322C193.215 438.495 193.32 433.606 193.549 428.727C192.745 426.867 192.56 424.807 193.02 422.84C192.914 421.902 193.069 420.89 192.087 420.339L192.067 420.402ZM174.681 357.012C175.077 358.4 175.12 359.861 174.807 361.268C174.494 362.675 173.834 363.986 172.885 365.085C172.033 366.125 171.088 367.152 170.384 368.168C169.681 369.183 169.883 369.806 170.471 369.856C170.97 369.954 171.487 369.866 171.922 369.611C172.594 368.936 173.145 368.155 173.554 367.302C174.633 364.968 175.766 362.595 176.622 360.209C178.457 355.267 179.543 350.063 181.863 345.277C182.068 344.884 181.881 344.348 181.842 343.787L170.719 348.121C170.613 348.889 170.42 349.644 170.143 350.37C167.752 354.928 167.141 360.231 164.056 364.488C163.829 364.837 163.66 365.218 163.556 365.619C163.391 366.368 163.054 367.07 162.568 367.67C162.083 368.27 161.463 368.753 160.756 369.081C160.474 369.888 160.358 370.743 160.416 371.595C160.473 372.447 160.703 373.28 161.091 374.044C162.3 373.402 163.431 372.629 164.463 371.74C167.038 369.109 169.456 366.335 171.706 363.432C172.882 361.365 173.864 359.199 174.641 356.959L174.681 357.012ZM168.914 348.606C166.934 348.886 165.11 349.816 163.742 351.245C162.679 352.471 161.726 353.797 160.663 355.023C159.915 355.916 159.384 356.963 159.108 358.086C158.833 359.209 158.821 360.379 159.073 361.508C159.357 363.103 159.635 364.669 159.92 366.265C160.082 366.695 160.309 367.099 160.591 367.466C163.795 361.357 166.562 355.038 168.874 348.553L168.914 348.606ZM139.295 262.935C139.099 261.832 138.636 260.775 138.185 259.268C137.625 260.94 137.577 262.736 138.047 264.435C138.518 266.134 139.486 267.662 140.833 268.83C141.062 266.52 140.657 264.587 140.675 262.462L139.295 262.935ZM156.69 254.939C154.335 256.968 152.298 259.327 150.647 261.939C150.647 261.939 150.724 262.374 150.807 262.838C153.492 260.62 156.92 259.143 156.719 254.934L156.69 254.939ZM145.148 268.398C143.246 268.511 142.409 270.146 141.662 271.259C141.332 271.904 141.149 272.611 141.125 273.332C141.1 274.053 141.236 274.771 141.521 275.436C141.993 272.782 143.267 270.329 145.177 268.393L145.148 268.398ZM156.998 379.489C157.256 380.939 158.529 381.411 159.883 381.988L160.728 378.857C159.18 378.043 158.198 378.867 156.998 379.489ZM179.234 590.026C178.299 592.307 178.242 594.843 179.072 597.165C179.322 594.971 179.555 593.199 179.67 591.446C179.61 590.952 179.462 590.471 179.234 590.026ZM178.613 424.832C177.115 424.994 175.695 425.566 174.515 426.482C174.219 426.532 174.334 427.35 174.201 428.149C175.981 427.537 177.533 426.421 178.663 424.943L178.613 424.832ZM169.977 398.087C168.909 397.91 168.109 398.045 168.073 399.037C168.16 399.53 168.506 400.1 168.883 401.022L169.977 398.087ZM180.965 576.107C181.213 575.617 181.346 575.505 181.355 575.384L181.453 573.365C181.453 573.365 181.422 573.191 181.406 573.104C181.391 573.017 181.2 573.319 181.186 573.411C181.075 574.326 181.056 575.076 181.015 576.218L180.965 576.107ZM140.767 347.427C141.992 349.341 142.016 349.307 143.296 349.986C143.107 349.417 142.784 348.899 142.354 348.474C141.923 348.048 141.397 347.728 140.817 347.538L140.767 347.427ZM177.578 325.834L177.146 325.638L176.242 327.584L176.703 327.775L177.578 325.834ZM148.657 292.216C148.298 292.759 148.084 293.381 148.034 294.026C147.984 294.672 148.099 295.319 148.369 295.91C148.797 295.398 149.054 294.769 149.106 294.108C149.157 293.448 149 292.787 148.657 292.216ZM145.099 291.593L145.366 291.548L145.411 289.748L145.174 289.788C145.159 290.388 145.149 291.017 145.099 291.593ZM164.302 429.078C164.113 428.871 163.929 428.693 163.769 428.481C163.609 428.269 163.382 428.876 163.432 428.987C163.482 429.098 163.746 429.382 163.901 429.565L164.302 429.078ZM155.039 317.101L155.276 317.061C155.274 316.962 155.257 316.864 155.225 316.771C155.225 316.771 155.047 316.801 155.017 316.806C154.988 316.811 155.045 317.13 155.06 317.217L155.039 317.101ZM159.528 252.725L159.262 252.77L159.5 252.909L159.528 252.725ZM158.395 400.527L158.107 400.277C157.972 400.469 157.866 400.678 157.79 400.898C157.79 400.898 157.832 401.13 158.054 401.182L158.395 400.527ZM168.662 410.74L168.395 410.786L168.452 411.105L168.662 410.74Z" fill="#343E5C"/>
<path fill-rule="evenodd" clip-rule="evenodd" d="M179.933 612.617C180.766 610.444 178.837 612.803 178.868 612.289C177.82 609.658 179.731 608.229 180.529 606.032C181.223 607.929 181.355 609.978 180.911 611.943C180.952 612.176 180.242 612.296 179.907 612.472L179.933 612.617Z" fill="#343E5C"/>
<path fill-rule="evenodd" clip-rule="evenodd" d="M182.024 549.334C181.725 551.596 181.392 553.834 181.093 556.095L180.886 556.131C180.879 555.235 180.812 554.35 180.84 553.479C180.828 552.531 180.915 551.586 181.1 550.656C181.195 550.162 181.706 549.776 181.994 549.339L182.024 549.334Z" fill="#343E5C"/>
<path fill-rule="evenodd" clip-rule="evenodd" d="M179.927 612.588C180.01 614.426 180.128 616.289 180.187 618.161C180.104 618.977 179.973 619.787 179.796 620.588C179.446 619.818 179.218 619 179.12 618.163C179.313 616.337 179.655 614.487 179.937 612.646L179.927 612.588Z" fill="#343E5C"/>
<path fill-rule="evenodd" clip-rule="evenodd" d="M182.358 561.32L182.442 558.706L182.823 558.791L182.278 561.214L182.358 561.32Z" fill="#343E5C"/>
<path fill-rule="evenodd" clip-rule="evenodd" d="M181.994 549.339L182.077 547.234L182.225 547.209C182.161 547.877 182.102 548.574 182.014 549.276L181.994 549.339Z" fill="#343E5C"/>
<path fill-rule="evenodd" clip-rule="evenodd" d="M174.812 386.183L179 381.44C179.038 382.509 179.068 383.191 179.068 383.878L177.733 385.628L177.288 386.212L176.116 388.024L175.509 388.724L174.583 390.375C173.055 390.186 173.055 390.186 172.988 388.613L173.014 388.758C174.152 388.297 174.485 387.254 174.852 386.236L174.812 386.183Z" fill="#343E5C"/>
<path fill-rule="evenodd" clip-rule="evenodd" d="M161.963 340.908L161.73 339.603L162.086 339.543L162.046 340.864L161.963 340.908Z" fill="#343E5C"/>
<path fill-rule="evenodd" clip-rule="evenodd" d="M120.267 211.564C120.249 211.302 120.263 211.039 120.31 210.781C120.31 210.781 120.576 210.736 120.683 210.479C120.79 210.222 120.735 210.769 120.75 210.856L120.281 211.472L120.267 211.564Z" fill="#343E5C"/>
<path fill-rule="evenodd" clip-rule="evenodd" d="M139.226 217.498L138.572 217.25C139.131 216.797 138.895 217.524 139.123 217.604L139.226 217.498Z" fill="#343E5C"/>
<path fill-rule="evenodd" clip-rule="evenodd" d="M129.715 319.269C129.617 320.092 129.141 320.501 128.353 320.186C127.866 319.931 127.454 319.559 127.154 319.105C126.356 318.045 125.876 316.721 124.21 316.615C123.825 316.68 123.414 315.913 123.124 315.484L116.851 306.118C117.6 305.185 118.006 305.923 118.235 306.183C118.933 307.021 119.494 307.942 120.143 308.848L123.744 313.826C124.391 313.178 124.827 312.716 125.377 312.204C126.189 314.942 127.682 317.441 129.721 319.477L129.715 319.269Z" fill="#343E5C"/>
<path fill-rule="evenodd" clip-rule="evenodd" d="M129.795 319.374C129.815 318.116 128.619 316.884 129.519 315.596C129.844 315.541 130.259 315.471 130.349 315.635C131.827 317.575 132.992 319.726 133.802 322.012C132.842 321.757 132.269 321.794 131.946 321.52C131.155 320.847 130.457 320.009 129.715 319.268L129.795 319.374Z" fill="#343E5C"/>
<path fill-rule="evenodd" clip-rule="evenodd" d="M159.334 332.658C159.257 332.223 159.357 331.758 159.386 331.066C160.108 331.87 159.973 332.31 159.23 332.586L159.334 332.658Z" fill="#343E5C"/>
<path fill-rule="evenodd" clip-rule="evenodd" d="M178.242 419.666C178.304 416.999 179.131 414.404 180.63 412.18C181.4 410.65 182.328 409.201 183.399 407.856C184.303 406.597 185.002 405.045 186.919 405.019C185.67 407.083 184.599 409.117 183.197 411.177C181.795 413.237 180.224 415.894 178.726 418.269C178.479 418.732 178.258 419.209 178.065 419.696L178.242 419.666Z" fill="#343E5C"/>
<path fill-rule="evenodd" clip-rule="evenodd" d="M178.266 419.632C176.64 418.891 176.516 420.765 175.256 421.397C175.222 420.694 175.25 419.989 175.339 419.291C176.116 415.89 177.453 412.636 179.296 409.657C179.413 409.457 179.739 409.402 179.96 409.275C179.836 410.181 179.66 411.078 179.433 411.964C178.942 413.479 178.362 414.964 177.693 416.412C177.43 416.96 177.345 417.574 177.452 418.171C177.558 418.768 177.85 419.319 178.287 419.748L178.266 419.632Z" fill="#343E5C"/>
<path fill-rule="evenodd" clip-rule="evenodd" d="M179.961 409.275C179.739 408.028 180.623 407.34 181.627 406.812C181.567 407.321 181.389 407.81 181.107 408.241C180.824 408.673 180.444 409.034 179.996 409.299L179.961 409.275Z" fill="#343E5C"/>
<path fill-rule="evenodd" clip-rule="evenodd" d="M187.008 405.003C186.992 404.827 186.96 404.653 186.915 404.482C186.915 404.482 186.915 404.482 186.956 404.713C187.022 404.799 187.097 404.876 187.18 404.944L187.008 405.003Z" fill="#343E5C"/>
<path fill-rule="evenodd" clip-rule="evenodd" d="M181.627 406.811L182.125 406.19L182.177 406.479L181.526 406.589L181.627 406.811Z" fill="#343E5C"/>
<path fill-rule="evenodd" clip-rule="evenodd" d="M147.518 247.618C146.407 248.404 145.931 250.008 144.301 250.105C145.062 248.9 145.669 247.513 147.518 247.618Z" fill="#343E5C"/>
<path fill-rule="evenodd" clip-rule="evenodd" d="M143.748 252.828L144.38 250.211C144.615 250.653 144.681 251.163 144.566 251.648C144.451 252.133 144.163 252.562 143.753 252.857L143.748 252.828Z" fill="#343E5C"/>
<path fill-rule="evenodd" clip-rule="evenodd" d="M149.943 242.396L150.245 241.867C150.245 241.867 150.281 242.07 150.286 242.099C150.171 242.135 150.052 242.156 149.931 242.159L149.943 242.396Z" fill="#343E5C"/>
<path fill-rule="evenodd" clip-rule="evenodd" d="M149.006 243.988L149.947 242.426L149.006 243.988Z" fill="#343E5C"/>
<path fill-rule="evenodd" clip-rule="evenodd" d="M143.168 245.455L143.494 244.893C143.494 244.893 143.535 245.125 143.546 245.183L143.161 245.248L143.168 245.455Z" fill="#343E5C"/>
<path fill-rule="evenodd" clip-rule="evenodd" d="M148.896 243.888L147.995 245.504L148.896 243.888Z" fill="#343E5C"/>
<path fill-rule="evenodd" clip-rule="evenodd" d="M142.645 247.487C142.312 246.647 142.178 245.893 143.262 245.47C143.074 246.129 142.857 246.794 142.674 247.482L142.645 247.487Z" fill="#343E5C"/>
<path fill-rule="evenodd" clip-rule="evenodd" d="M147.995 245.505C147.842 246.188 147.66 246.877 147.482 247.594C147.155 246.783 146.986 246.005 147.995 245.505Z" fill="#343E5C"/>
<path fill-rule="evenodd" clip-rule="evenodd" d="M143.584 252.766L143.263 253.358L143.659 252.843L143.584 252.766Z" fill="#343E5C"/>
<path fill-rule="evenodd" clip-rule="evenodd" d="M151.592 251.828L151.495 251.456L151.777 251.498L151.592 251.828Z" fill="#343E5C"/>
<path fill-rule="evenodd" clip-rule="evenodd" d="M157.495 449.086C159.486 450.697 160.777 452.989 161.107 455.496C160.035 456.156 159.686 455.737 159.499 455.201C158.888 453.482 158.331 451.723 157.495 449.086Z" fill="#343E5C"/>
<path fill-rule="evenodd" clip-rule="evenodd" d="M156.757 452.647C155.867 452.619 155.188 452.913 154.938 452.537C154.276 451.836 153.819 450.974 153.615 450.041C153.411 449.108 153.468 448.138 153.78 447.235L156.757 452.647Z" fill="#343E5C"/>
<path fill-rule="evenodd" clip-rule="evenodd" d="M148.63 442.639C150.069 444.039 149.67 446.078 150.621 447.65C149.81 448.236 149.494 447.662 149.377 447.174C149.103 445.637 148.829 444.099 148.556 442.562L148.63 442.639Z" fill="#343E5C"/>
<path fill-rule="evenodd" clip-rule="evenodd" d="M135.692 369.113C134.449 369.324 133.815 368.505 133.333 367.51C134.209 367.888 134.981 368.464 135.584 369.191L135.692 369.113Z" fill="#343E5C"/>
<path fill-rule="evenodd" clip-rule="evenodd" d="M129.447 365.389L129.71 364.986L129.112 364.879L129.372 365.312L129.447 365.389Z" fill="#343E5C"/>
<path fill-rule="evenodd" clip-rule="evenodd" d="M129.388 365.399L129.922 365.488L129.865 365.169L129.463 365.476L129.388 365.399Z" fill="#343E5C"/>
<path fill-rule="evenodd" clip-rule="evenodd" d="M165.913 269.393C165.177 271.132 164.243 272.783 163.129 274.317C161.673 276.416 160.699 278.822 159.425 280.92C158.899 281.906 158.672 283.199 156.893 283.829C157.578 281.967 158.374 280.146 159.277 278.375C161.028 275.36 162.976 272.43 164.89 269.476C164.859 269.302 165.601 269.356 165.986 269.291L165.913 269.393Z" fill="#343E5C"/>
<path fill-rule="evenodd" clip-rule="evenodd" d="M166.002 269.556C165.96 269.324 165.747 269.151 165.681 268.954C165.647 268.914 165.625 268.866 165.616 268.816C165.607 268.765 165.611 268.712 165.629 268.664C165.629 268.664 165.836 268.629 165.925 268.614C165.976 268.804 166.011 268.998 166.028 269.193C166.058 269.297 166.077 269.404 166.085 269.512L166.002 269.556Z" fill="#343E5C"/>
<path fill-rule="evenodd" clip-rule="evenodd" d="M151.363 416.359C153.069 417.893 154.752 419.461 156.463 421.023L157.776 422.743C157.48 422.794 157.032 423.019 156.858 422.899C154.693 421.316 152.867 419.33 151.487 417.056C151.451 416.852 151.399 416.562 151.353 416.301L151.363 416.359Z" fill="#343E5C"/>
<path fill-rule="evenodd" clip-rule="evenodd" d="M151.352 416.301C151.052 416.114 150.77 415.902 150.508 415.667C150.508 415.667 150.618 415.26 150.671 415.042C150.724 414.824 151.022 415.132 151.038 415.219C151.053 415.306 151.177 416.002 151.244 416.379L151.352 416.301Z" fill="#343E5C"/>
<path fill-rule="evenodd" clip-rule="evenodd" d="M159.894 416.139C159.894 416.139 159.858 415.936 159.842 415.85L159.576 415.895L159.997 416.032L159.894 416.139Z" fill="#343E5C"/>
<path fill-rule="evenodd" clip-rule="evenodd" d="M159.958 416.159L160.051 416.68C160.051 416.68 160.025 416.535 160.187 416.418C160.182 416.31 160.163 416.203 160.131 416.1L159.958 416.159Z" fill="#343E5C"/>
<path fill-rule="evenodd" clip-rule="evenodd" d="M162.318 420.331L162.238 420.911C162.238 420.911 162.36 420.741 162.345 420.654C162.337 420.527 162.315 420.4 162.278 420.278L162.318 420.331Z" fill="#343E5C"/>
<path fill-rule="evenodd" clip-rule="evenodd" d="M167.384 396.196C167.003 394.59 167.019 392.92 167.429 391.322C167.84 389.725 168.633 388.247 169.744 387.011C169.59 390.772 167.668 393.339 167.409 396.162L167.384 396.196Z" fill="#343E5C"/>
<path fill-rule="evenodd" clip-rule="evenodd" d="M173.169 388.433C171.941 389.582 171.022 391.01 170.494 392.591C170.427 392.214 169.924 391.791 170.036 391.563C170.898 389.894 171.382 387.989 173.207 386.933L173.152 388.675L173.169 388.433Z" fill="#343E5C"/>
<path fill-rule="evenodd" clip-rule="evenodd" d="M173.207 386.933C173.184 386.304 173.368 385.684 173.731 385.166C174.095 384.647 174.618 384.256 175.225 384.051L174.886 386.26L173.104 387.04L173.207 386.933Z" fill="#343E5C"/>
<path fill-rule="evenodd" clip-rule="evenodd" d="M175.225 384.05C175.148 383.615 175.065 383.152 174.983 382.688L175.428 382.792L174.997 383.969L175.225 384.05Z" fill="#343E5C"/>
<path fill-rule="evenodd" clip-rule="evenodd" d="M154.56 307.56C154.544 307.384 154.513 307.21 154.468 307.038C154.468 307.038 154.29 307.069 154.356 307.266C154.422 307.464 154.392 307.469 154.59 307.555L154.56 307.56Z" fill="#343E5C"/>
<path fill-rule="evenodd" clip-rule="evenodd" d="M155.385 297.291L156.334 297.31C156.245 298.012 156.296 298.81 155.33 299.033L155.385 297.291Z" fill="#343E5C"/>
<path fill-rule="evenodd" clip-rule="evenodd" d="M156.236 297.445C156.133 296.865 156.267 296.245 156.311 295.641C157.091 296.255 157.106 296.85 156.236 297.445Z" fill="#343E5C"/>
<path fill-rule="evenodd" clip-rule="evenodd" d="M165.093 366.883C166.476 363.355 168.119 359.931 170.009 356.638C170.009 356.638 170.216 356.603 170.483 356.557C170.428 360.361 167.84 363.13 166.433 366.357C166.326 366.614 165.783 366.646 165.093 366.883Z" fill="#343E5C"/>
<path fill-rule="evenodd" clip-rule="evenodd" d="M176.696 463.225C176.898 463.584 177.04 463.974 177.114 464.378C177.156 464.61 176.738 464.83 176.532 465.044C176.326 465.258 176.213 464.62 176.236 464.407C176.359 464.003 176.513 463.607 176.696 463.225Z" fill="#343E5C"/>
<path fill-rule="evenodd" clip-rule="evenodd" d="M179.66 464.634L178.758 464.19L179.25 463.36C179.402 463.552 179.531 463.76 179.635 463.981C179.643 464.224 179.625 464.468 179.582 464.707L179.66 464.634Z" fill="#343E5C"/>
</g>
<defs>
<clipPath id="clip0_168_814">
<rect width="172.152" height="648.166" fill="white" transform="matrix(0.98596 -0.166981 0.175294 0.984516 0 28.7461)"/>
</clipPath>
</defs>
</svg>
