<svg width="285" height="667" viewBox="0 0 285 667" fill="none" xmlns="http://www.w3.org/2000/svg">
<g clip-path="url(#clip0_168_955)">
<path fill-rule="evenodd" clip-rule="evenodd" d="M102.066 561.307C102.248 564.411 102.243 567.523 102.054 570.627C101.722 575.92 102.056 581.235 102.272 586.531C102.255 587.085 102.389 587.634 102.66 588.12C103.26 589.5 103.475 591.01 103.283 592.499C103.326 594.577 103.645 596.64 104.234 598.636C104.193 598.868 104.526 599.223 104.436 599.387C103.031 602.137 105.923 603.882 105.554 606.3C107.056 606.255 106.334 604.998 106.882 604.493C107.907 608.128 108.459 611.876 108.525 615.648C108.673 617.555 108.669 619.467 108.817 621.374C108.8 623.017 109.204 624.636 109.991 626.085C110.434 625.409 110.761 624.667 110.962 623.889C110.984 620.337 111.001 616.814 110.747 613.275C110.493 609.736 109.9 606.558 109.491 603.202C109.167 600.906 108.75 598.624 108.639 596.334C108.216 585.466 107.844 574.596 107.522 563.725C107.446 561.411 107.671 559.118 107.808 556.811C107.947 556.028 108.092 555.216 107.965 554.387C107.678 544.866 108.576 535.367 107.864 525.834C107.833 523.854 107.92 521.873 108.127 519.903C108.22 519.381 108.318 518.829 108.411 518.307C108.471 511.804 108.595 505.281 108.532 498.786C108.416 494.833 108.711 490.878 109.413 486.983C109.647 484.043 110.086 481.123 110.726 478.241C111.759 475.451 112.623 472.604 113.311 469.715C113.441 468.503 113.922 467.352 114.697 466.398C115.472 465.444 116.509 464.726 117.686 464.33C118.82 463.955 119.563 462.527 120.862 461.223C122.601 461.032 124.317 460.683 125.989 460.179C132.086 458.211 137.19 454.043 140.264 448.523C141.669 445.772 142.919 443.205 144.111 440.449C145.962 436.221 148.266 432.188 150.373 428.063C150.5 427.813 150.675 427.589 150.887 427.403C155.496 423.612 158.437 418.403 162.403 414.114C163.393 412.98 164.274 411.759 165.035 410.467C165.865 409.233 166.41 407.711 167.313 406.579C173.384 399.032 177.099 390.159 181.502 381.702C185.619 373.741 189.238 365.542 192.339 357.152C193.006 355.293 193.904 353.503 195.07 350.892C193.51 351.983 192.262 353.449 191.445 355.148C190.939 356.108 190.516 357.113 190.093 358.117C184.207 371.821 176.785 384.727 169.555 397.756C169.063 398.58 168.524 399.377 167.941 400.142C167.296 401.019 166.515 401.813 165.944 402.792C162.623 408.122 158.904 413.205 154.818 417.999C152.922 420.333 150.895 422.564 148.749 424.68C148.113 425.43 147.297 426.013 146.375 426.379C145.453 426.744 144.454 426.88 143.466 426.774C142.639 426.724 141.809 426.743 140.985 426.832C140.484 425.193 141.833 424.465 142.315 423.471C143.818 419.962 145.556 416.553 147.518 413.267C149.633 409.95 152.27 406.96 154.72 403.819C154.879 403.6 155.089 403.42 155.332 403.295C159.934 401.087 162.406 396.455 165.924 393.137C166.7 392.179 167.305 391.099 167.713 389.944C168.993 387.382 170.159 384.771 171.439 382.208C174.556 375.834 177.728 369.499 180.939 363.11C181.857 360.988 182.66 358.82 183.346 356.615C184.556 352.996 186.011 349.459 187.701 346.028C189.326 342.618 190.613 339.064 191.543 335.414C190.096 337.284 188.911 339.334 188.018 341.51C187.248 343.262 186.341 344.931 185.542 346.678C184.286 349.454 182.881 352.204 181.891 355.024C179.063 362.641 175.704 370.059 171.838 377.226C169.527 381.261 167.48 385.436 165.709 389.724C165.466 390.503 165.047 391.219 164.482 391.817C160.669 395.362 156.377 398.375 151.725 400.772C151.168 401.179 150.523 401.455 149.839 401.577C149.156 401.7 148.454 401.667 147.786 401.48C147.135 401.369 146.213 401.751 145.432 401.858C144.65 401.964 144.082 401.898 143.01 401.926C144.213 400.489 145.609 399.217 147.16 398.146C149.228 396.536 150.935 394.527 152.176 392.243C153.248 390.333 154.399 388.496 155.525 386.625C157.35 383.415 159.542 380.418 162.056 377.691C164.858 374.68 167.462 371.498 169.852 368.165C170.761 366.8 171.557 365.366 172.232 363.877C174.017 360.533 175.89 357.205 177.567 353.784C178.5 351.97 179.093 350.009 179.873 348.198C180.98 345.577 182.063 342.922 183.259 340.316C184.414 337.707 185.4 335.03 186.211 332.3C187.778 327.097 189.695 321.983 191.582 316.865C193.689 311.257 196.229 305.813 199.179 300.581C199.566 299.664 199.877 298.717 200.11 297.751C198.679 298.077 198.547 299.16 198.053 299.883C193.546 307.066 189.844 314.704 187.012 322.664C185.115 329.05 182.779 335.303 180.02 341.381C179.482 342.64 179.019 343.928 178.631 345.239C177.774 348.102 176.518 350.835 174.897 353.362C174.633 353.686 174.442 354.061 174.335 354.462C173.178 357.636 171.616 360.654 169.686 363.445C167.557 367.866 163.7 370.858 160.8 374.64C160.538 374.959 160.241 375.249 159.914 375.506C157.59 377.592 157.061 377.652 153.641 376.475C153.781 375.283 154.38 374.188 155.315 373.412C157.328 370.934 158.985 368.199 160.24 365.282C161.626 362.034 163.561 359.038 165.965 356.421C167.589 354.557 168.918 352.466 169.907 350.216C172.968 344.733 175.577 339.02 177.707 333.13C178.298 331.45 179.046 329.826 179.943 328.28C181.504 325.564 182.762 322.692 183.695 319.712C184.136 318.422 184.734 317.189 185.477 316.04C188.863 310.418 191.813 304.555 194.303 298.501C194.722 297.347 195.427 296.301 195.959 295.196C198.192 290.534 200.397 285.858 202.574 281.166C202.786 280.661 202.883 280.117 202.859 279.571C202.774 279.103 202.63 278.647 202.429 278.214C201.285 278.647 201.597 279.806 201.083 280.466C200.595 281.12 200.175 281.819 199.827 282.554C198.627 285.01 197.624 287.559 196.257 289.927C191.834 297.634 188.653 305.91 184.226 313.647C180.856 319.733 177.901 326.03 175.379 332.497C173.344 337.591 171.092 342.528 168.782 347.455C168.422 348.413 167.829 349.269 167.053 349.951C166.278 350.632 165.345 351.117 164.334 351.364C163.409 351.595 162.516 351.982 161.58 352.272C160.171 352.716 158.647 352.659 157.278 352.111C157.487 351.58 157.781 351.085 158.149 350.645C161.142 347.811 163.842 344.696 166.21 341.343C168.079 338.786 169.689 336.056 171.016 333.192C172.507 330.128 173.54 326.897 174.864 323.744C175.709 321.736 176.614 319.738 177.573 317.779C178.459 316.095 178.994 314.256 179.146 312.368C179.339 310.757 179.814 309.189 180.551 307.735C182.706 303.17 185.028 298.693 187.183 294.127C188.056 292.303 188.649 290.342 189.429 288.532C191.12 284.515 193.014 280.563 194.616 276.532C196.772 271.376 198.246 265.972 199.004 260.452C199.267 258.973 199.267 258.973 197.94 256.836C197.718 258.083 197.276 259.024 197.1 260.01C195.968 265.855 194.205 271.566 191.84 277.048C189.782 281.928 188.004 286.946 185.773 291.767C183.896 297.01 181.69 302.135 179.167 307.113C178.059 309.302 177.125 311.571 176.373 313.9C175.442 316.729 174.181 319.443 172.614 321.989C171.491 323.726 169.831 325.068 167.876 325.818C166.365 326.429 165.002 327.572 163.292 327.582C160.008 327.853 156.704 327.823 153.426 327.494C153.483 327.175 153.519 326.972 153.529 326.914C154.686 326.507 155.867 326.168 157.065 325.899C160.257 325.426 163.146 323.778 165.144 321.292C165.307 321.073 165.496 320.874 165.707 320.7C168.695 318.033 170.826 314.573 171.841 310.743C172.808 307.201 174.207 303.793 175.292 300.271C176.447 296.604 178.007 293.071 179.943 289.734C184.419 280.98 187.88 271.764 190.264 262.259C190.671 260.834 190.929 259.383 191.488 257.954C192.758 254.795 193.727 251.528 194.385 248.196C194.676 246.722 195.087 245.272 195.614 243.862C198.771 234.865 201.864 225.887 205.1 216.963C204.178 216.149 203.709 216.727 203.447 217.34C201.68 221.612 199.913 225.885 198.111 230.181C196.309 234.478 194.569 239.621 192.834 244.228C192.725 244.475 192.629 244.729 192.547 244.986C191.251 250.271 189.632 255.474 187.698 260.569C185.653 266.916 183.721 273.312 181.45 279.561C180.235 282.655 178.783 285.656 177.107 288.537C176.674 289.547 175.931 290.4 174.981 290.978C174.03 291.556 172.92 291.83 171.805 291.762C171.598 291.727 171.392 291.513 171.008 291.269C171.483 290.623 171.991 290.001 172.53 289.405C175.551 286.172 177.479 282.105 178.049 277.76C178.86 273.206 179.345 268.597 180.477 264.127C181.144 260.139 182.632 256.325 184.852 252.916C185.31 252.24 185.712 251.528 186.054 250.789C190.995 240.292 195.11 229.441 198.36 218.331C200.055 211.895 201.661 205.444 203.243 198.959C203.573 197.102 203.761 195.192 204.062 193.331C204.537 190.662 205.017 187.964 205.493 185.296C205.657 184.343 205.58 183.365 205.267 182.449C204.339 185.609 203.109 188.747 202.506 191.962C201.444 197.842 199.953 203.641 198.044 209.313C196.639 213.438 195.786 217.716 194.582 221.904C192.203 229.301 189.345 236.541 186.026 243.583C185.813 243.932 185.551 244.25 185.248 244.527C184.446 244.062 184.847 243.353 184.851 242.816C184.889 240.372 184.958 237.934 184.996 235.49C184.935 234.4 184.977 233.307 185.12 232.224C185.689 228.732 185.788 225.182 185.414 221.666C185.284 219.542 185.468 217.409 185.962 215.335C186.626 212.459 187.35 209.594 187.985 206.713C188.62 203.833 189.373 200.972 189.89 198.072C190.033 197.272 190.264 196.49 190.58 195.738C193.585 188.449 193.765 180.591 195.266 173.016C195.431 172.088 195.271 171.105 195.368 170.045C195.572 166.673 195.687 163.287 196.073 159.916C196.421 157.885 196.247 155.801 195.567 153.854C195.229 154.036 194.878 154.126 194.857 154.242C194.263 157.577 193.669 160.913 193.406 164.275C193.024 166.421 193.21 168.634 192.951 170.771C192.555 174.021 191.987 177.212 191.503 180.447C190.951 185.345 189.836 190.168 188.18 194.824C187.617 196.222 187.253 197.688 187.099 199.183C186.779 202.825 185.794 206.383 184.192 209.687C182.744 213.649 180.812 217.425 178.438 220.933C177.98 221.453 177.687 222.24 177.127 222.474C175.252 223.173 173.532 224.221 172.063 225.561C170.317 226.849 168.415 227.922 166.401 228.755C166.536 228.001 166.831 227.543 167.002 227.094C167.92 224.68 169.01 222.325 169.726 219.846C170.088 218.403 170.169 216.906 169.963 215.434C169.643 212.601 169.107 209.791 168.417 206.985C167.91 204.591 167.034 202.287 165.821 200.151C164.786 198.25 163.978 196.238 163.412 194.155C162.143 189.842 161.409 185.394 161.226 180.907C161.146 179.552 161.305 178.195 161.697 176.893C163.722 171.254 165.216 165.445 166.159 159.541C167.474 153.011 168.647 146.426 169.661 139.875C170.942 132.634 171.352 125.272 170.882 117.94C170.869 116.13 170.47 114.342 169.712 112.692C169.141 114.673 168.959 116.741 169.176 118.787C169.262 125.453 168.73 132.113 167.585 138.687C165.726 149.129 163.718 159.546 161.568 169.909C160.809 172.616 159.868 175.272 158.75 177.858C158.347 179.013 157.861 180.139 157.296 181.227C156.6 182.541 155.834 183.817 154.999 185.051C153.844 186.738 152.606 188.381 151.428 190.034C150.539 191.258 149.709 192.492 148.85 193.721C148.567 194.022 148.315 194.35 148.096 194.699C146.706 198.736 143.594 201.825 141.737 205.574C139.561 210.08 137.92 214.815 136.846 219.686C136.59 221.655 136.512 223.641 136.612 225.623C135.934 225.47 135.291 225.199 134.711 224.823C133.655 223.76 132.708 222.598 131.882 221.355C129.561 218.142 128.008 214.458 127.336 210.575C127.167 209.37 127.118 208.151 127.191 206.935C127.952 197.861 128.867 188.783 128.779 179.684C128.724 173.998 127.997 168.317 127.547 162.623C127.583 162.42 127.278 162.249 126.95 161.865C126.911 163.8 126.808 165.576 126.834 167.313C126.848 178.737 126.24 190.154 125.014 201.517C124.746 204.22 124.537 206.934 124.299 209.643C124.47 211.64 124.05 213.643 123.089 215.414C122.799 217.813 122.375 220.195 121.818 222.549C121.227 225.329 120.798 228.14 120.533 230.967C120.423 232.325 119.97 233.634 119.214 234.778C118.077 236.971 117.636 239.446 117.949 241.884C117.867 244.737 118.246 247.584 119.069 250.321C119.337 251.329 119.511 252.358 119.589 253.397C118.932 252.756 118.416 251.99 118.073 251.145C117.73 250.301 117.568 249.397 117.596 248.488C117.499 244.408 117.308 240.341 117.211 236.261C117.142 235.182 117.191 234.098 117.36 233.029C118.715 225.659 119.2 218.161 118.807 210.685C118.036 202.337 117.757 193.625 117.474 184.941C117.463 182.893 116.989 180.874 116.086 179.029C115.86 178.731 115.602 178.457 115.317 178.211C114.294 178.815 114.663 179.654 114.742 180.415C114.899 182.443 115.18 184.463 115.248 186.476C115.527 195.189 115.628 203.871 116.03 212.575C116.292 218.51 115.928 224.456 114.945 230.32C114.458 233.405 114.29 236.53 114.443 239.647C114.577 241.93 114.314 244.22 113.664 246.418C111.939 251.427 110.56 256.544 109.534 261.734C109.498 261.937 109.255 262.105 108.821 262.659C108.522 260.397 108.562 258.462 108.462 256.622C108.363 254.783 108.212 252.546 108.311 250.62C108.536 246.445 108.919 242.237 109.267 238.053C109.616 233.869 109.947 229.951 110.3 225.917C110.413 221.977 109.943 218.043 108.903 214.236C108.555 215.714 108.429 217.232 108.527 218.745C108.486 221.865 108.277 224.981 107.901 228.081C107.105 233.922 107.021 239.705 106.236 245.488C105.652 251.019 105.589 256.589 106.048 262.13C106.222 265.775 106.797 269.398 107.155 273.044C107.231 273.983 107.367 274.933 107.385 275.862C107.579 284.022 107.748 292.149 107.924 300.754C107.327 299.996 106.762 299.571 106.613 299.038C105.657 296.082 104.869 293.075 104.252 290.033C103.489 285.75 102.083 281.657 101.42 277.332C100.667 272.321 100.284 267.263 100.272 262.197C100.201 258.248 100.556 254.302 101.331 250.424C102.025 245.6 101.781 240.693 100.612 235.96C100.282 238.317 100.104 240.692 100.078 243.071C99.9326 245.368 99.6676 247.657 99.2841 249.928C98.3714 254.598 97.9048 259.341 97.8903 264.095C97.9629 265.571 97.966 267.096 98.009 268.567C98.2726 274.381 99.1352 280.153 100.584 285.796C101.877 290.639 102.803 295.57 103.355 300.548C103.7 304.611 103.866 308.643 103.836 312.582C103.768 315.02 104.001 317.48 104.026 319.905C103.778 323.563 104.298 327.231 105.554 330.682C105.761 331.184 105.873 331.719 105.883 332.261C105.99 334.427 106.535 336.551 107.485 338.509C107.792 338.949 107.953 339.471 107.945 340.005C107.938 340.538 107.762 341.057 107.442 341.489C106.72 342.293 105.861 342.148 104.024 341.329C103.055 340.962 102.233 340.297 101.683 339.433C101.133 338.57 100.884 337.554 100.973 336.539C100.86 329.468 100.44 322.405 100.266 315.503C100.219 313.882 100.602 312.243 100.585 310.627C100.668 310.163 99.9702 309.626 99.3887 308.781C99.0293 309.311 98.7425 309.886 98.5356 310.489C98.045 312.896 97.8535 315.352 97.9653 317.803C98.2024 324.865 98.1975 331.916 98.6136 338.829C98.9682 341.692 99.5881 344.518 100.466 347.27C101.341 350.406 102.347 353.834 103.137 357.105C103.452 358.414 103.981 359.664 104.704 360.807C105.359 362.03 105.876 363.32 106.246 364.653C105.654 364.553 105.358 364.503 105.21 364.478C103.121 362.331 100.894 360.281 98.9846 357.985C96.7243 355.209 95.3114 351.862 94.9087 348.331C93.8999 342.164 93.3683 335.931 93.3183 329.685C93.3823 327.784 93.5056 325.892 93.5993 323.996C93.7645 323.067 93.6582 322.123 93.7309 321.03C93.7911 318.978 93.9055 316.966 93.9052 315.083C93.9016 314.256 93.7368 313.437 93.4198 312.67C92.4744 314.201 91.9344 315.938 91.8492 317.723C91.9545 320.729 91.3168 323.968 91.1646 327.049C90.9819 331.815 91.1515 336.588 91.6721 341.329C92.0986 345.614 93.197 349.894 93.8707 354.161C94.099 354.937 94.1617 355.751 94.0548 356.553C93.5475 359.643 93.4188 362.781 93.6715 365.9C93.4603 371.203 93.9189 376.509 95.0369 381.699C95.1637 382.353 95.2396 383.015 95.2637 383.68C95.2637 383.68 95.2224 383.912 95.0034 384.114C92.0668 383.04 89.5712 381.054 87.8976 378.458C87.3956 377.65 87.0883 376.739 86.9991 375.796C85.8115 369.619 84.208 363.551 83.6436 357.3C82.7725 350.033 82.6784 342.697 83.3627 335.409C83.885 331.105 84.2001 326.766 84.5152 322.427C84.5442 321.205 84.4343 319.984 84.1875 318.786C84.2392 318.496 83.7076 318.227 83.4477 317.974C83.1888 318.229 82.9158 318.391 82.9093 318.599C82.3619 321.674 82.0809 324.794 81.7407 327.904C81.2914 330.427 81.375 333.041 81.0389 335.613C80.3111 342.651 80.3674 349.744 81.2069 356.767C81.8923 362.707 83.0161 368.59 84.5693 374.369C85.999 379.476 86.7831 384.737 86.9041 390.033C86.9079 392.753 87.0648 395.469 87.0389 398.184C86.8117 402.942 87.6188 407.693 89.4069 412.12C89.5049 412.647 89.5324 413.184 89.4884 413.718C88.9993 413.4 88.5317 413.051 88.0883 412.674C87.8221 412.364 87.6065 412.015 87.4491 411.639C85.5536 407.554 83.6234 403.492 81.7872 399.416C81.2592 398.156 80.8379 396.855 80.5276 395.527C79.9905 393.137 79.1986 390.81 78.165 388.583C77.2506 386.454 76.7359 384.181 76.6456 381.871C76.4666 379.451 76.0752 377.024 75.7778 374.583C75.814 374.38 75.4897 374.146 75.1231 373.636C74.7711 379.552 74.1992 385.162 76.6179 390.592C77.2245 392.254 77.7165 393.955 78.0905 395.682C79.0538 399.207 80.3644 402.631 82.0039 405.907C84.8855 412.057 87.1975 418.448 88.9123 425.005C88.937 427.973 88.7855 430.941 88.4584 433.892C87.9562 436.569 88.0275 439.319 88.6679 441.965C88.903 442.872 88.9102 443.859 89.1453 444.765C89.3011 445.706 89.6615 446.603 90.2021 447.395C91.6268 449.511 93.3372 451.429 95.2868 453.096C96.1455 453.809 96.9124 454.621 97.5706 455.515C97.457 456.153 97.6126 456.478 97.364 456.675C96.6099 457.92 96.3827 459.403 96.7311 460.808C97.0795 462.213 97.9758 463.428 99.2281 464.192C100.401 465.234 101.495 466.359 102.503 467.556C102.599 468.13 102.608 468.716 102.529 469.293C101.914 472.745 101.305 476.167 100.69 479.619C100.076 483.071 99.8618 485.814 99.4032 488.903C98.9446 491.993 98.2102 495.604 97.8827 498.984C97.6851 500.461 97.5631 501.946 97.5174 503.434C97.2408 507.9 97.3003 512.362 96.6878 516.83C96.1621 524.009 96.1428 531.214 96.6302 538.394C96.634 541.114 96.4253 543.827 96.429 546.547C96.5715 557.966 96.7454 569.38 96.9506 580.789C97.0194 582.005 97.1602 583.216 97.3722 584.416C97.5533 585.762 97.6584 587.116 97.6868 588.473C97.4133 597.033 98.1182 605.578 98.1807 614.135C98.2739 615.336 98.6038 616.508 99.1522 617.586C99.3759 618.042 100.155 618.294 101.084 618.899C100.386 614.59 100.03 610.234 100.018 605.87C99.7294 601.668 99.4111 597.461 99.2163 593.244C99.1581 591.486 99.358 589.729 99.8099 588.026C100.22 586.732 100.296 585.359 100.033 584.03C99.0705 577.433 98.6148 570.773 98.6702 564.108C98.4709 558.546 98.3013 552.99 98.5862 547.45C98.766 540.787 98.2146 534.12 98.088 527.465C98.042 524.47 98.3099 521.766 98.2032 518.939C98.0563 514.283 99.1387 509.745 99.3767 505.154C99.3808 504.887 99.4279 504.623 99.5161 504.371C100.329 500.662 100.906 496.907 101.243 493.129C101.51 492.097 101.863 491.087 102.299 490.111C102.723 489.27 103.026 488.376 103.199 487.454C103.302 483.109 104.723 478.898 104.702 474.561C104.74 473.982 104.842 473.408 105.006 472.85C105.437 473.341 105.88 473.596 105.922 473.872C106.205 476.908 106.429 479.934 106.649 482.81C106.744 484.707 106.55 486.607 106.072 488.449C105.961 490.464 105.746 492.472 105.428 494.465C104.904 496.282 104.661 498.165 104.708 500.051C104.72 501.696 104.737 503.313 104.66 504.943C104.594 505.406 104.452 505.857 104.24 506.276C102.996 506.066 103.404 505.149 102.978 504.628C102.947 504.802 102.59 504.921 102.594 505.071C102.705 505.986 102.841 506.936 103.042 507.866C103.661 510.539 103.451 513.334 102.436 515.891C102.175 515.13 101.976 514.708 101.895 514.305C101.819 513.804 101.67 513.316 101.452 512.856C101.149 514.697 101.187 516.575 101.562 518.402C102.391 521.566 102.378 524.887 101.522 528.047C101.163 529.644 101.087 531.288 101.297 532.909C101.468 536.404 101.821 539.901 102.153 543.692C103.433 542.325 102.876 540.826 103.039 539.569C103.202 538.312 103.337 536.87 103.456 535.516C103.575 534.162 103.647 532.56 103.797 531.032C103.836 529.683 104.145 528.355 104.707 527.122C104.79 527.853 104.992 528.605 105.005 529.384C105.069 533.309 105.157 537.268 105.132 541.178C105.107 545.088 105.151 548.263 104.951 551.785C104.373 562.056 104.585 572.341 104.521 582.639C104.445 580.325 104.245 578.02 104.287 575.727C104.211 571.411 103.805 567.107 103.072 562.851C102.993 562.27 102.379 561.778 102.012 561.268L102.066 561.307ZM109.041 303.902L109.788 304.506L109.39 304.857C109.446 304.538 109.207 304.169 109.146 303.83C108.937 303.693 108.74 303.539 108.556 303.371C108.556 303.371 108.592 303.168 108.613 303.052C108.634 302.936 108.945 303.586 109.041 303.902ZM117.459 274.61C117.26 274.475 117.072 274.323 116.899 274.157C116.899 274.157 116.951 273.867 116.982 273.693L117.098 274.071L117.404 274.75C117.431 274.978 117.472 275.205 117.527 275.428C117.519 275.155 117.496 274.881 117.459 274.61ZM128.884 297.461C129.831 297.622 130.479 298.269 130.336 299.411L128.858 298.981C130.175 303.746 130.175 303.746 131.437 304.706C131.68 303.343 130.303 301.825 132.201 300.414C132.851 302.077 134.821 302.829 134.94 304.732C135.358 307.716 135.444 310.736 135.197 313.74C134.794 316.002 134.899 318.321 134.733 320.623C134.64 321.145 135.089 321.879 134.439 322.277C133.797 321.412 133.257 320.479 132.83 319.494C132.58 318.608 132.507 317.682 132.614 316.768C132.8 315.724 132.991 314.651 132.999 313.577C133.145 311.671 132.596 309.778 131.449 308.234C131.229 307.928 130.472 308.069 130.005 307.781C130.7 308.675 131.682 309.499 130.456 311.413C129.622 308.526 127.694 306.062 125.065 304.524L126.466 307.271C127.404 309.372 128.406 311.454 129.253 313.719C129.345 313.876 129.399 314.051 129.411 314.232C129.423 314.412 129.392 314.593 129.321 314.76C129.25 314.928 129.141 315.076 129.002 315.196C128.862 315.315 128.697 315.401 128.518 315.447L126.022 312.335C126.16 311.592 126.193 310.833 126.119 310.081C125.838 309.169 125.365 308.325 124.73 307.604C122.641 304.944 120.957 302.002 119.728 298.869C119.523 298.922 119.334 299.019 119.173 299.153C119.011 299.287 118.883 299.454 118.797 299.643C118.71 299.832 118.668 300.037 118.674 300.244C118.679 300.451 118.732 300.654 118.828 300.838C119.543 302.593 120.358 304.307 121.269 305.972C121.95 307.283 122.796 308.532 123.477 309.842C123.602 310.508 123.635 311.187 123.575 311.861C122.7 311.122 121.895 310.306 121.173 309.422C119.615 307.037 118.167 304.551 116.644 302.141C116.644 302.141 116.17 302.061 115.933 302.021C115.697 301.981 115.533 302.73 115.122 303.497C114.599 301.466 114.141 299.925 113.807 298.374C113.473 296.824 114.046 294.978 112.637 293.126C112.302 295.766 112.257 298.433 112.502 301.081C111.495 300.911 111.308 300.252 111.233 299.641C110.742 297.193 110.511 294.7 110.545 292.204C110.832 289.237 110.904 286.253 110.762 283.277C110.865 282.696 110.486 281.915 111.541 281.466L114.64 283.933C114.982 284.269 115.421 284.493 115.899 284.574C116.376 284.654 116.867 284.588 117.305 284.385C117.516 284.26 117.751 284.179 117.995 284.147C118.239 284.115 118.487 284.132 118.724 284.197C118.961 284.263 119.182 284.375 119.373 284.527C119.564 284.679 119.721 284.868 119.834 285.082C121.749 287.211 123.921 289.104 126.303 290.719C128.296 291.109 130.095 292.148 131.409 293.667C132.722 295.185 133.471 297.095 133.536 299.086C133.151 299.021 132.855 298.97 132.677 298.94C130.55 296.668 128.424 294.395 126.366 292.075C126.19 291.866 126.49 291.379 126.35 290.966C125.427 291.527 124.843 292.235 125.576 293.256C126.31 294.276 127.114 295.07 127.897 295.98L128.884 297.461ZM118.606 406.577L122.031 404.468C122.231 404.306 122.466 404.191 122.719 404.132C122.971 404.074 123.234 404.073 123.486 404.13C123.739 404.188 123.975 404.301 124.175 404.462C124.375 404.624 124.534 404.828 124.64 405.06C122.974 406.181 121.162 407.08 119.254 407.733L118.661 406.437C118.424 406.397 118.068 406.516 117.98 406.322C117.333 405.675 117.767 405.121 118.28 404.64C118.792 404.159 119.425 403.519 120.405 404.522L118.606 406.577ZM109.635 390.327L108.709 388.676L108.102 387.976L106.93 386.164L106.485 385.58L105.223 383.932C104.624 383.741 104.078 383.419 103.626 382.991C103.174 382.562 102.827 382.038 102.613 381.459C102 380.279 101.282 379.171 100.524 378.117C100.175 378.536 99.8969 378.728 99.8659 378.902C99.7675 379.437 99.8057 379.987 99.9771 380.504C100.693 382.267 101.713 383.895 102.993 385.318C103.742 386.118 104.393 387 104.935 387.947C104.909 388.092 104.852 388.411 104.759 388.934C102.65 386.903 101.054 384.392 97.8099 384.111C97.2533 381.983 96.8229 379.825 96.5207 377.648C96.1387 372.085 95.9691 366.529 95.7402 360.962C95.8539 360.324 95.6225 359.567 96.7607 359.342C97.7862 360.263 98.9546 361.237 100.019 362.284C101.083 363.331 101.389 364.01 102.209 364.717C104.162 366.422 106.15 368.103 108.218 369.679C109.295 370.533 110.462 371.271 111.699 371.882C115.124 373.568 117.857 376.35 119.445 379.767C120.404 381.399 120.805 383.288 120.589 385.16C120.253 387.046 119.923 388.902 119.765 390.818C119.664 391.88 119.344 392.912 118.826 393.851C118.307 394.79 117.601 395.617 116.748 396.283C116.665 396.56 116.566 396.833 116.45 397.099C114.645 396.106 113.217 394.878 113.724 392.543L112.335 393.832C111.054 392.947 110.036 391.744 109.388 390.345L109.635 390.327ZM147.216 347.299C147.261 347.459 147.272 347.626 147.247 347.79C147.222 347.953 147.162 348.11 147.071 348.25C146.98 348.39 146.86 348.509 146.718 348.6C146.577 348.691 146.418 348.752 146.251 348.779C146.044 348.744 145.583 348.248 144.817 347.58L147.319 347.406C148.548 345.959 150.216 344.933 152.08 344.477C153.952 343.898 154.67 341.749 156.924 341.593C156.623 342.91 156.004 344.137 155.119 345.173C154.234 346.208 153.109 347.021 151.839 347.544L147.216 347.299ZM104.738 464.767C104.06 464.619 103.436 464.293 102.934 463.824C102.431 463.354 102.07 462.759 101.888 462.103C101.782 461.161 101.931 460.208 102.321 459.34C102.712 458.473 103.328 457.721 104.11 457.16C105.614 456.85 107.182 457.115 108.491 457.902C109.066 458.272 109.711 458.522 110.389 458.637C111.066 458.751 111.761 458.728 112.429 458.569C112.942 458.411 113.491 458.405 114.008 458.551C114.524 458.697 114.985 458.988 115.333 459.39C115.662 459.64 115.896 459.992 115.997 460.388C116.098 460.784 116.06 461.203 115.889 461.576C115.63 461.954 115.259 462.247 114.826 462.414C114.393 462.581 113.918 462.614 113.466 462.51C113.011 462.305 112.596 462.022 112.242 461.675C111.389 462.444 110.735 463.4 110.333 464.465C109.931 465.529 109.794 466.672 109.932 467.798C110.028 469.665 109.373 471.495 108.109 472.897C106.707 470.33 105.51 467.66 104.529 464.911L104.738 464.767ZM148.707 369.245C147.752 369.98 146.788 370.773 145.779 371.468C145.24 372.003 144.591 372.419 143.875 372.689C143.159 372.96 142.393 373.078 141.627 373.036C139.971 372.846 138.303 373.279 136.958 374.247C134.667 375.463 132.087 376.058 129.484 375.97C129.836 375.192 129.941 374.433 130.383 374.179C132.24 373 134.262 372.088 136.119 370.908C139.529 368.886 142.594 366.746 145.813 364.601C146.313 364.136 146.762 363.622 147.154 363.066C142.616 363.373 139.888 366.018 136.839 367.892C135.655 367.692 134.441 368.174 133.447 367.587C133.726 366.021 135.553 365.523 135.257 363.591C134.568 363.862 133.98 363.912 133.676 364.249C132.668 365.354 131.736 366.524 130.887 367.751C129.722 369.496 128.66 371.348 127.485 373.151C126.468 371.156 126.527 371.166 127.062 369.703C128.247 367.109 128.683 364.247 128.322 361.43C128.513 360.357 127.577 359.272 128.217 357.737C128.244 359.295 128.295 360.38 128.317 361.459C129.172 360.767 130.027 360.075 130.823 359.374C132.477 358.011 134.391 356.984 136.454 356.353C139.862 355.265 143.411 354.659 146.992 354.552C150.848 354.309 154.624 355.367 158.489 354.557C160.272 354.418 162.022 354.009 163.677 353.344C164.278 353.193 164.896 353.117 165.517 353.118C165.194 353.9 165.258 354.568 164.782 354.846C162.76 357.074 161.055 359.559 159.715 362.235C158.684 364.095 157.548 365.898 156.313 367.635C154.629 369.942 152.609 371.996 150.318 373.731C146.792 376.259 142.395 377.328 138.076 376.707C138.326 376.331 138.438 375.872 138.711 375.709C140.15 374.88 141.637 374.134 143.165 373.476C144.34 373.132 145.434 372.562 146.382 371.799C147.33 371.036 148.112 370.095 148.684 369.032L148.707 369.245ZM119.064 432.95L122.216 432.378C126.297 431.725 130.403 431.105 134.465 430.389C136.378 430.02 138.357 430.189 140.173 430.878C142.54 428.888 142.54 428.888 145.14 429.358C143.694 430.427 141.899 430.941 140.095 430.805L140.813 432.42L144.929 431.743C144.618 433.921 143.799 436.001 142.536 437.821C142.162 438.206 142.142 438.831 141.901 439.328C141.122 441.793 139.905 444.106 138.306 446.159C136.208 450.338 132.812 453.759 128.606 455.931C127.345 456.844 125.883 457.454 124.338 457.712C122.792 457.969 121.207 457.867 119.711 457.412C118.207 455.753 120.678 455.066 120.408 453.496L116.526 454.572C117.188 452.45 118.512 450.584 120.312 449.237C121.648 448.25 122.871 447.125 123.96 445.881C124.149 445.674 124.084 445.185 124.136 444.895C124.187 444.604 123.698 444.611 123.603 444.804C121.137 446.15 118.231 446.883 116.648 449.603C116.388 450.037 115.823 450.3 115.395 450.645C114.877 450.982 114.439 451.423 114.11 451.94C113.781 452.456 113.57 453.036 113.49 453.639C113.376 454.278 112.818 454.84 112.018 454.197C112.306 451.611 113.411 449.176 115.18 447.232C115.702 446.605 116.142 445.917 116.49 445.183C116.558 444.935 116.568 444.675 116.517 444.423C116.467 444.171 116.358 443.934 116.2 443.73C115.788 443.302 115.252 443.569 114.858 444.07C114.464 444.571 113.612 445.413 112.646 446.385C112.521 445.378 112.199 444.785 112.39 444.399C113.737 441.46 115.167 438.565 116.657 435.68C116.968 435.135 117.726 434.815 118.179 434.324C118.527 433.926 118.838 433.499 119.108 433.047L114.494 434.297C115.146 432.346 115.667 430.791 116.228 429.183C117.057 429.323 117.815 429.003 118.228 429.94C117.952 430.461 117.647 430.977 117.321 431.609C117.63 432.034 117.965 432.44 118.324 432.825C118.467 432.879 118.803 432.876 119.04 432.916L119.064 432.95ZM141.705 247.551C141.824 248.747 142.01 249.935 142.261 251.111C142.534 252.144 143.184 253.12 143.343 254.282C143.502 255.445 144.125 256.058 142.858 257.009C142.256 257.475 142.511 258.952 142.341 259.91C142.171 260.867 142.658 261.726 141.825 262.81L140.139 260.284C139.964 261.27 139.987 262.17 139.891 263.05C140.542 263.161 140.832 263.419 140.19 263.938L139.995 262.978C139.609 262.748 139.236 262.495 138.879 262.222C138.33 261.71 137.845 261.18 137.36 260.65C137.5 261.64 137.87 262.585 138.442 263.412C139.014 264.239 139.772 264.927 140.658 265.421C141.746 265.994 141.658 266.487 140.693 267.967C137.229 266.693 136.918 263.473 135.641 260.538L137.447 260.844C136.189 258.659 135.751 255.985 133.506 254.2C132.531 255.738 134.352 257.331 133.321 259.009C131.301 256.994 129.426 255.362 127.747 253.315C127.254 252.685 126.985 251.916 126.978 251.123C126.899 249.854 127.433 248.57 126.657 247.273C125.407 247.958 126.851 250.294 124.595 250.121C124.468 247.919 126.434 245.443 123.729 243.162C123.622 244.966 123.571 246.452 123.406 247.888C123.329 248.323 122.955 248.708 122.475 249.523C122.191 248.901 121.969 248.253 121.813 247.588C121.5 244.547 121.192 241.656 120.928 238.683C120.797 238.154 120.812 237.6 120.97 237.077C122.493 234.357 123.278 231.301 123.252 228.201C124.496 225.632 125.276 222.873 125.558 220.045C125.733 219.433 125.943 218.83 126.185 218.239C126.547 218.599 126.882 218.775 126.905 218.989C127.574 222.003 129.233 224.719 131.628 226.721C132.49 227.59 133.283 228.523 133.998 229.513C136.081 232.375 138.059 235.31 140.147 238.144C142.153 240.743 143.585 243.722 144.354 246.894C144.747 248.454 145.288 250.04 145.78 251.558C146.376 253.338 146.479 255.243 146.078 257.076C145.782 257.026 145.546 256.986 145.516 256.981L142.616 248.602C142.642 248.472 142.638 248.337 142.604 248.209C142.569 248.081 142.506 247.962 142.419 247.861C142.331 247.76 142.222 247.68 142.098 247.626C141.975 247.573 141.84 247.547 141.705 247.551ZM109.602 399.764C111.199 400.214 111.614 401.479 111.702 402.868C112.098 409.21 112.494 415.552 112.825 421.913C112.926 423.574 111.656 424.195 110.118 424.443C109.632 424.248 109.175 423.99 108.76 423.675C105.57 420.864 102.415 418.029 99.2652 415.165C98.7951 414.68 98.3893 414.14 98.0572 413.556C96.7142 411.505 95.4408 409.407 94.0979 407.357C93.5437 406.824 92.9328 406.35 92.2757 405.943C92.8864 407.481 93.0496 408.106 93.3467 408.664C95.3678 413.271 98.4212 417.373 102.281 420.665C102.605 420.9 103.259 421.339 102.468 422.012C97.8257 419.872 94.0622 416.254 91.7913 411.747C90.0595 408.496 89.104 404.902 88.9967 401.234C88.6446 394.989 88.3518 388.754 88.059 382.52C88.118 381.943 88.2199 381.371 88.3637 380.808C89.6144 382.006 90.5858 382.888 91.5174 383.822L96.116 388.486C96.5689 388.988 97.0555 389.459 97.5726 389.898C101.063 392.352 104.209 395.246 106.928 398.504C107.549 399.225 108.3 399.828 109.143 400.284C109.729 400.592 109.63 399.948 109.544 399.575C109.458 399.201 109.621 399.14 109.663 398.907C109.689 399.271 109.657 399.624 109.69 399.779L109.602 399.764ZM125.015 332.723C124.976 333.132 124.985 333.544 125.04 333.952C126.216 339.479 128.135 344.828 130.748 349.859C131.027 350.233 131.206 350.669 131.268 351.129C131.331 351.588 131.274 352.056 131.103 352.489C131.057 352.75 130.522 352.839 129.882 353.178C129.908 351.838 129.935 350.827 129.953 350.382C128.536 348.408 127.509 346.98 126.366 345.352C126.081 345.083 125.764 344.849 125.422 344.654C125.283 347.32 127.701 348.984 128.737 351.729C128.076 351.582 127.428 351.383 126.8 351.132C126.281 350.954 125.811 350.66 125.428 350.273C124.686 349.486 124.031 348.624 123.477 347.701C122.741 346.707 122.175 345.602 121.802 344.429L125.474 345.051C124.525 342.5 124.064 342.004 122.257 341.19C120.372 339.585 118.902 337.565 117.97 335.294C117.301 333.339 116.058 331.621 114.396 330.356C115.031 333.811 117.44 336.041 117.648 339.154C116.732 338.677 115.79 338.248 114.827 337.87C114.176 337.646 113.583 337.283 113.093 336.807C112.603 336.331 112.227 335.755 111.992 335.119C111.557 333.969 111.121 332.82 110.779 331.656C110.472 329.914 110 328.204 109.371 326.547C107.409 322.659 107.779 318.359 106.699 314.142C106.471 312.796 106.387 311.43 106.449 310.066C106.37 308.798 106.355 307.51 106.291 305.647C107.402 306.9 108.64 308.041 109.985 309.051C111.309 309.712 112.695 310.247 114.123 310.649C118.358 312.148 122.11 314.722 124.995 318.107C125.646 318.81 126.387 319.427 127.199 319.945C128.93 321.225 130.279 322.935 131.109 324.899C131.939 326.862 132.219 329.007 131.92 331.113C131.544 333.884 131.516 336.689 131.836 339.465C131.926 342.125 131.748 344.787 131.305 347.413C130.02 346.202 129.159 344.623 128.845 342.903C128.067 340.59 127.547 338.201 126.71 335.878C126.186 334.714 126.434 333.321 125.015 332.723ZM164.083 211.629L164.465 219.762C164.554 221.949 163.913 224.106 162.638 225.907C162.394 226.254 161.903 226.44 161.342 226.853C160.518 223.426 161.41 219.962 158.848 217.048C158.76 217.535 158.723 218.029 158.738 218.523C159.378 221.908 159.654 225.35 159.563 228.792C159.63 229.041 159.639 229.3 159.591 229.553C159.543 229.806 159.438 230.045 159.284 230.253C159.131 230.461 158.932 230.634 158.702 230.758C158.472 230.882 158.217 230.954 157.955 230.97L156.95 226.168C156.655 226.959 156.507 227.793 156.511 228.634C156.366 229.446 156.552 230.284 156.502 231.083C156.304 234.246 155.522 235.04 151.901 235.682C151.328 233.167 151.242 230.567 151.648 228.02C152.389 225.575 153.282 223.127 154.082 220.693C154.734 218.741 155.352 216.814 155.91 214.877C155.921 214.107 155.832 213.339 155.646 212.591C155.027 214.01 154.741 214.589 154.514 215.178C153.993 216.734 153.561 218.304 153.016 219.825C150.766 224.628 149.52 229.822 149.351 235.101C149.322 235.562 149.24 236.02 149.108 236.464L146.384 233.433C147.123 235.62 147.868 237.778 148.641 239.941C149.232 241.594 148.428 242.683 146.646 244.294C145.804 240.751 145.721 237.074 146.404 233.496C146.744 231.582 144.542 231.448 143.959 230.094C144.038 226.223 144.51 222.37 145.367 218.589C145.429 218.241 145.324 217.805 145.302 217.413C144.034 218.815 143.269 220.585 143.124 222.452C142.556 225.643 142.461 228.914 142.13 232.145C142.022 232.572 141.866 232.986 141.666 233.381C141.142 232.899 140.728 232.314 140.449 231.665C140.171 231.015 140.035 230.316 140.05 229.611C139.931 227.021 139.808 224.461 139.749 221.881C139.726 221.071 139.809 220.262 139.995 219.472C141.396 212.539 144.332 205.988 148.596 200.282C149.057 199.604 149.432 198.875 149.715 198.111C149.983 197.346 150.309 196.602 150.691 195.885C153.185 192.154 155.733 188.462 158.257 184.736C158.547 184.307 158.769 183.747 159.621 184.101C159.746 185.108 159.862 186.174 160.022 187.157C160.342 192.592 161.759 197.91 164.19 202.803C165.754 205.61 166.254 208.87 165.601 212.006L164.083 211.629ZM182.95 221.458C183.441 224.561 183.373 227.725 182.75 230.807C182.541 232.415 182.436 234.034 182.436 235.654C182.397 242.174 181.438 248.658 179.584 254.922C179.281 256.383 178.631 257.753 177.686 258.922C176.741 260.091 175.529 261.026 174.147 261.651C173.036 262.216 171.972 262.865 170.965 263.592C170.49 263.804 169.991 263.96 169.479 264.057C169.259 263.534 169.176 262.964 169.239 262.4C169.302 261.837 169.509 261.297 169.84 260.832C170.506 259.66 171.231 258.498 171.981 257.37C171.981 257.37 172.427 257.266 172.956 257.206L172.439 260.107C174.069 260.203 174.803 259.85 174.876 258.756C174.653 256.729 175.212 254.693 176.442 253.045C176.77 252.742 176.627 252.001 176.72 251.479C177.477 247.21 177.449 242.844 176.637 238.586C176.007 242.125 176.721 244.965 176.065 247.454C175.035 247.757 174.458 247.57 174.207 246.751C173.957 245.931 174.154 244.65 173.024 243.293C173 245.65 173.027 247.387 172.938 249.255C172.927 250.242 172.753 251.222 172.422 252.155C171.842 253.701 170.313 254.577 169.419 255.83C168.525 257.083 168.589 258.947 167.394 260.178C166.196 261.783 164.604 263.066 162.765 263.907C162.361 264.626 161.782 265.237 161.08 265.686C160.377 266.135 159.573 266.408 158.739 266.482C156.99 266.711 155.395 267.584 154.278 268.923C153.969 269.289 153.33 269.45 152.738 268.663C153.941 266.984 155.389 265.487 157.037 264.221C160.527 261.285 163.4 257.712 165.497 253.702C165.706 253.083 165.82 252.438 165.838 251.787C165.138 252.255 164.482 252.784 163.879 253.368C163.043 254.201 162.264 255.087 161.547 256.021C160.808 257.171 159.991 258.27 159.1 259.312C156.202 262.227 153.201 265.036 150.195 267.873C149.867 268.176 149.403 268.725 148.604 267.903C149.342 267.012 150.115 266.097 150.808 265.288C152.285 263.327 153.763 261.366 155.187 259.366C155.466 258.995 155.974 258.543 155.177 258.05C153.086 259.518 151.935 262.042 149.037 263.584C149.47 261.763 150.222 260.03 151.261 258.462C151.984 256.971 152.731 255.514 153.478 254.057C154.481 252.43 154.826 250.494 154.444 248.633C153.471 250.5 152.818 251.943 152.056 253.308C151.295 254.673 150.415 256.018 149.284 257.918C148.894 254.625 148.563 252.029 148.181 249.036C148.492 248.575 148.736 248.073 148.904 247.545C149.829 244.241 152.003 241.405 154.983 239.61C157.296 237.667 159.77 235.917 162.38 234.379C163.071 233.936 163.669 233.368 164.142 232.705C165.468 231.257 167.086 229.708 168.919 229.69C170.289 229.617 171.629 229.264 172.851 228.653C174.074 228.041 175.152 227.186 176.017 226.141C177.162 225.02 178.464 224.045 179.628 222.987C180.024 223.503 180.318 223.911 180.679 224.45L182.95 221.458ZM150.403 316.554C148.99 317.121 147.95 317.483 147.101 317.967C146.476 318.197 145.911 318.561 145.448 319.032C143.908 320.766 142.55 322.649 141.397 324.65C140.931 325.557 140.786 326.37 139.6 326.348C138.415 326.327 138.117 325.26 137.678 324.469C137.511 323.956 137.442 323.418 137.473 322.88C137.308 321.122 137.246 319.355 137.286 317.59C137.166 313.108 138.208 308.669 140.316 304.686C140.751 303.856 141.351 303.118 142.081 302.518C142.811 301.918 143.657 301.468 144.567 301.193C147.842 300.088 151.182 299.176 154.569 298.465C157.938 297.87 161.383 297.706 164.767 297.204C167.507 296.955 170.169 296.165 172.591 294.883C172.899 294.696 173.313 294.767 174.036 294.65C173.936 295.489 173.787 296.322 173.592 297.144C171.893 301.548 169.903 305.872 168.193 310.334C166.918 313.94 164.758 317.186 161.905 319.787C160.625 321.036 159.023 321.922 157.27 322.349C155.375 322.715 153.466 322.989 151.551 323.292L146.229 324.064L144.241 324.265C144.317 322.127 145.833 320.979 146.763 319.523C146.885 319.403 147.051 319.334 147.224 319.332C147.224 319.332 147.402 319.362 147.52 319.382C148.013 320.213 146.449 321.114 147.584 321.933C150.092 320.356 150.451 319.879 150.551 316.579L150.403 316.554ZM148.373 295.921L147.919 295.217C148.873 294.482 149.857 293.752 150.787 292.984C151.83 292.245 152.796 291.408 153.672 290.484C154.711 289.061 156.014 287.842 157.514 286.892C157.741 286.783 157.939 286.624 158.091 286.426C158.243 286.229 158.344 285.998 158.388 285.755C158.431 285.511 158.415 285.261 158.34 285.025C158.265 284.789 158.135 284.574 157.958 284.397C156.813 286.205 154.564 286.332 153.36 287.951C150.446 291.641 146.225 293.765 142.502 296.69C142.319 296.759 142.121 296.778 141.928 296.746C141.735 296.713 141.555 296.63 141.407 296.504C141.167 296.135 140.961 295.413 141.16 295.148C142.179 293.707 143.335 292.528 144.493 290.991C145.875 289.624 146.776 287.861 147.066 285.959L145.173 288.029C144.53 288.727 143.961 289.527 143.269 290.156C142.577 290.786 142.462 291.604 141.185 291.238C141.382 290.136 141.568 289.091 142.015 288.121C142.462 287.151 142.842 286.558 142.794 285.803C142.991 282.967 143.878 280.218 145.38 277.785C145.976 276.432 146.888 275.234 148.041 274.288C149.195 273.342 150.559 272.673 152.023 272.336C154.894 271.627 157.631 269.79 160.841 270.603C160.975 270.628 161.113 270.62 161.243 270.579C161.373 270.539 161.49 270.467 161.584 270.37C162.471 268.817 163.901 269.178 165.269 269.201C165.951 269.25 166.633 269.106 167.234 268.787C169.874 267.546 172.325 265.95 174.514 264.044C175.521 262.85 176.916 262.031 178.465 261.725C177.556 266.83 176.704 271.616 175.615 276.362C175.191 278.74 174.289 281.067 173.599 283.401C173.383 283.828 173.108 284.224 172.779 284.577L172.306 284.496L173.256 279.159C171.717 280.766 170.376 282.545 169.262 284.459C167.841 286.788 166.504 289.161 164.969 291.441C164.29 292.489 163.369 293.366 162.281 294.001C161.193 294.637 159.969 295.014 158.706 295.102C167.234 284.205 167.234 284.205 167.029 281.242C166.712 281.52 166.414 281.819 166.138 282.137C163.529 285.311 161.034 288.534 158.347 291.634C157.391 292.768 156.186 293.678 154.823 294.295C152.759 294.971 150.654 295.523 148.521 295.946L148.373 295.921ZM132.065 289.873C130.268 290.375 130.263 290.404 129.519 289.441C125.621 284.855 122.149 279.937 119.143 274.746C117.908 272.298 116.04 270.209 113.725 268.689C113.86 271.7 115.407 274.143 115.479 276.994C112.398 274.769 111.753 273.942 111.481 271.357C110.827 266.226 111.534 261.015 113.534 256.226C113.727 255.584 113.845 254.922 113.886 254.254C113.999 253.616 114.123 252.92 115.124 252.611L119.196 256.289C121.566 258.393 123.907 260.493 126.333 262.457C127.205 263.038 128.143 263.517 129.128 263.887C131.57 265.077 134.311 265.781 135.296 268.816C135.643 269.561 136.179 270.207 136.853 270.693C138.134 272.002 138.909 273.707 139.044 275.517C139.507 279.863 138.725 284.252 136.787 288.192C136.756 288.366 136.345 288.446 136.107 288.585C134.802 288.035 135.014 286.846 134.863 285.805C134.557 283.243 134.345 280.667 133.88 278.138C133.754 277.068 133.411 276.033 132.871 275.095C132.331 274.157 131.605 273.334 130.735 272.675C132.919 279.768 133.041 280.625 132.408 282.64C130.963 281.186 129.808 279.48 129.003 277.611C128.69 277.14 128.453 276.412 127.284 276.812L132.065 289.873ZM140.119 398.807C142.708 396.257 145.43 395.015 145.105 391.703C144.751 391.962 144.415 392.245 144.1 392.548C141.847 395.652 138.909 398.219 135.504 400.057C134.475 400.535 133.388 400.883 132.27 401.093C131.369 401.359 130.449 402.069 129.18 401.317L133.3 398.219C134.91 397.39 136.21 396.083 137.015 394.486C133.442 395.883 131.333 398.992 126.976 399.479C128.407 397.779 129.449 396.551 130.462 395.318C130.821 394.841 130.815 394.362 129.994 393.835C129.355 394.253 128.752 394.72 128.19 395.232C126.661 396.796 125.181 398.428 123.676 400.026C123.153 400.565 122.593 400.799 121.942 400.001C123.08 397.206 125.516 395.347 126.811 392.011C125.834 392.533 125.294 392.65 125.015 393.021C124.132 394.037 123.377 395.194 122.495 396.21C122.146 396.629 121.754 397.459 120.846 396.738C122.26 393.105 123.997 389.599 126.035 386.262C126.885 384.779 128.053 383.493 129.458 382.493C130.862 381.493 132.471 380.803 134.173 380.469C137.278 380.158 140.15 379.449 143.157 379.002C143.698 378.873 144.266 378.907 144.787 379.099C147.275 379.963 149.952 380.169 152.549 379.697C153.35 379.653 154.149 379.788 155.058 379.823C154.498 385.196 150.647 388.667 148.14 392.814C146.015 395.444 143.246 397.504 140.089 398.802L140.119 398.807ZM134.181 343.598C134.082 341.485 134.457 339.376 135.281 337.419C135.668 336.94 135.893 336.354 135.925 335.744C135.957 335.133 135.795 334.529 135.46 334.013C135.242 333.582 135.17 333.094 135.255 332.619C135.339 332.144 135.576 331.708 135.93 331.374C136.302 330.814 136.803 330.347 137.393 330.011C137.983 329.675 138.644 329.479 139.325 329.439C142.383 329.389 145.142 329.139 148.053 329.064C149.061 329.045 150.067 329.156 151.045 329.392C153.328 329.928 155.591 330.58 157.88 331.087C158.907 331.441 159.988 331.624 161.077 331.629C163.563 331.505 165.986 330.809 168.149 329.599C168.566 329.311 169.082 328.98 169.597 329.516C168.04 334.139 165.691 338.471 162.65 342.323C160.867 344.738 158.835 346.968 156.586 348.976C155.945 349.624 155.164 350.123 154.3 350.437C153.437 350.751 152.513 350.872 151.596 350.79C151.854 349.34 153.151 349.081 153.917 348.374C154.684 347.667 155.525 346.884 156.272 346.114C157.019 345.344 157.99 344.343 158.772 343.549C159.628 342.829 160.293 341.916 160.709 340.889C160.354 340.829 160.206 340.804 160.088 340.784C158.321 341.112 158.075 340.951 158.516 339.502C158.584 339.125 158.646 338.777 159.112 337.87L157.08 339.348C155.344 340.673 153.519 341.882 151.617 342.965C148.688 344.827 145.346 345.972 141.873 346.305C141.488 346.239 141.085 346.619 140.703 346.704C140.45 346.721 140.196 346.678 139.963 346.579C140.38 345.783 140.82 345.021 141.287 344.114C138.679 343.343 137.985 345.527 136.772 346.516C136.772 346.516 136.684 347.01 136.627 347.329L138.631 348.236C138.389 349.599 137.328 350.077 136.442 349.568C133.923 348.126 133.612 346.28 136.008 344.296L134.181 343.598ZM124.651 408.767C127.42 407.635 130.345 406.912 133.329 406.621C134.151 406.487 134.933 406.181 135.624 405.725C138.299 404.622 141.254 404.351 144.089 404.947C145.423 406.189 146.992 405.767 148.335 405.248C148.931 405.216 149.528 405.257 150.113 405.37C149.665 406.054 149.172 406.71 148.636 407.331C145.929 410.217 143.699 413.499 142.024 417.057C140.262 420.81 138.016 424.326 135.342 427.52C132.827 427.601 130.372 429.397 127.495 428.252C128.004 426.934 129.308 426.976 130.192 426.468C131.075 425.96 132.036 425.705 132.555 425.016C135.35 421.306 138.013 417.484 140.671 413.691C140.713 413.459 140.78 413.082 140.651 412.433C140.108 412.807 139.604 413.232 139.144 413.701C136.75 416.702 134.276 419.63 132.044 422.748C131.641 423.425 131.104 424.016 130.465 424.488C129.826 424.959 129.097 425.301 128.322 425.494C127.243 425.73 126.197 426.12 125.124 426.327C123.041 426.721 120.978 426.999 118.846 427.325C118.685 425.834 119.836 424.505 118.841 422.902C118.247 423.668 117.703 424.323 117.224 424.959C115.856 424.249 115.363 423.419 115.644 422.182C116.223 419.945 117.302 417.862 118.804 416.083C120.709 413.776 122.501 411.42 124.632 408.704L124.651 408.767ZM92.2823 420.466L105.659 429.275C106.012 429.514 106.342 429.72 106.661 429.983C108.133 431.32 109.179 433.046 109.673 434.953C110.167 436.86 110.087 438.867 109.444 440.733C109.346 441.284 108.994 442.061 108.055 442.022C107.087 441.249 106.464 440.136 106.32 438.919C106.352 437.692 106.1 436.475 105.582 435.358C105.032 436.221 104.617 436.838 104.157 437.537L101.18 434.045C101.756 435.836 102.464 437.583 103.299 439.274C104.074 441.174 104.747 443.114 105.314 445.084C105.943 447.105 106.381 449.18 106.62 451.281C106.765 452.764 106.425 454.255 105.649 455.539C104.68 453.612 105.858 452.138 105.216 450.774C104.574 449.41 104.193 447.613 103.527 446.215C102.861 444.817 102.227 443.754 101.559 442.535C101.379 443.36 101.404 444.215 101.634 445.028C101.874 445.905 102.149 446.759 102.598 448.179C101.113 446.648 100.051 444.772 99.5122 442.726C99.3283 442.217 99.2258 441.423 98.1816 441.635C98.1389 444.615 100.076 447.095 100.227 450.019C99.6476 449.686 99.1742 449.202 98.859 448.622C98.407 447.592 98.0353 446.53 97.7471 445.445C97.3526 444.064 96.0003 445.15 95.3775 444.536C94.1823 441.096 93.4864 437.508 93.3104 433.877C92.7131 438.796 93.2314 443.781 94.8283 448.477C93.143 447.231 91.9886 445.418 91.5868 443.386C91.1349 438.559 91.0293 433.67 90.8001 428.791C91.6043 426.931 91.7896 424.871 91.3297 422.904C91.4358 421.966 91.2805 420.954 92.2631 420.403L92.2823 420.466ZM109.669 357.076C109.273 358.464 109.23 359.925 109.543 361.332C109.855 362.739 110.515 364.05 111.464 365.149C112.316 366.189 113.262 367.216 113.965 368.232C114.669 369.247 114.467 369.87 113.878 369.92C113.38 370.018 112.863 369.93 112.428 369.674C111.756 369 111.204 368.219 110.795 367.366C109.716 365.032 108.583 362.659 107.727 360.273C105.893 355.331 104.806 350.127 102.486 345.341C102.282 344.948 102.469 344.412 102.508 343.851L113.631 348.185C113.737 348.953 113.93 349.708 114.206 350.434C116.597 354.992 117.209 360.295 120.293 364.552C120.521 364.901 120.689 365.282 120.794 365.683C120.958 366.432 121.296 367.134 121.781 367.734C122.267 368.334 122.887 368.817 123.593 369.145C123.876 369.952 123.992 370.807 123.934 371.659C123.877 372.511 123.647 373.344 123.258 374.108C122.05 373.466 120.919 372.693 119.887 371.804C117.312 369.173 114.893 366.399 112.643 363.496C111.468 361.429 110.486 359.263 109.709 357.023L109.669 357.076ZM115.435 348.67C117.416 348.95 119.24 349.88 120.608 351.309C121.671 352.535 122.624 353.861 123.687 355.087C124.434 355.98 124.966 357.027 125.241 358.15C125.517 359.273 125.529 360.443 125.277 361.572C124.993 363.167 124.714 364.733 124.43 366.329C124.267 366.759 124.041 367.163 123.759 367.53C120.555 361.421 117.787 355.102 115.475 348.617L115.435 348.67ZM145.054 262.999C145.251 261.896 145.713 260.839 146.165 259.332C146.725 261.004 146.773 262.8 146.302 264.499C145.832 266.198 144.863 267.726 143.517 268.894C143.288 266.584 143.693 264.651 143.675 262.526L145.054 262.999ZM127.66 255.003C130.015 257.032 132.051 259.391 133.703 262.003C133.703 262.003 133.626 262.438 133.543 262.902C130.857 260.684 127.43 259.207 127.63 254.998L127.66 255.003ZM139.202 268.462C141.103 268.575 141.94 270.21 142.688 271.323C143.017 271.968 143.201 272.675 143.225 273.396C143.249 274.117 143.114 274.835 142.829 275.5C142.356 272.846 141.083 270.393 139.172 268.457L139.202 268.462ZM127.352 379.553C127.094 381.003 125.82 381.475 124.467 382.052L123.621 378.921C125.169 378.107 126.151 378.931 127.352 379.553ZM105.115 590.09C106.05 592.371 106.108 594.907 105.278 597.229C105.028 595.035 104.794 593.263 104.679 591.51C104.74 591.016 104.887 590.535 105.115 590.09ZM105.737 424.896C107.235 425.058 108.655 425.63 109.835 426.546C110.131 426.596 110.016 427.414 110.148 428.213C108.369 427.601 106.816 426.485 105.687 425.007L105.737 424.896ZM114.372 398.151C115.441 397.974 116.24 398.109 116.277 399.101C116.189 399.594 115.844 400.163 115.466 401.086L114.372 398.151ZM103.385 576.171C103.136 575.681 103.004 575.569 102.995 575.448L102.897 573.429C102.897 573.429 102.928 573.255 102.943 573.168C102.959 573.081 103.149 573.382 103.163 573.475C103.275 574.39 103.294 575.14 103.334 576.282L103.385 576.171ZM143.583 347.491C142.358 349.405 142.333 349.371 141.053 350.05C141.242 349.481 141.565 348.963 141.996 348.538C142.427 348.112 142.953 347.792 143.533 347.602L143.583 347.491ZM106.772 325.898L107.203 325.702L108.107 327.648L107.646 327.839L106.772 325.898ZM135.693 292.28C136.051 292.823 136.265 293.445 136.316 294.09C136.366 294.736 136.251 295.383 135.981 295.974C135.553 295.462 135.295 294.833 135.244 294.172C135.193 293.512 135.349 292.851 135.693 292.28ZM139.25 291.657L138.984 291.612L138.938 289.812L139.175 289.852C139.19 290.452 139.2 291.081 139.25 291.657ZM120.047 429.142C120.237 428.935 120.421 428.757 120.581 428.545C120.74 428.333 120.968 428.94 120.918 429.051C120.867 429.162 120.603 429.446 120.449 429.629L120.047 429.142ZM129.31 317.165L129.073 317.125C129.075 317.026 129.093 316.928 129.125 316.835C129.125 316.835 129.303 316.865 129.332 316.87C129.362 316.875 129.305 317.194 129.29 317.281L129.31 317.165ZM124.821 252.789L125.088 252.834L124.849 252.973L124.821 252.789ZM125.955 400.591L126.243 400.341C126.377 400.533 126.484 400.742 126.559 400.962C126.559 400.962 126.518 401.194 126.295 401.246L125.955 400.591ZM115.688 410.804L115.954 410.849L115.897 411.169L115.688 410.804Z" fill="#343E5C"/>
<path fill-rule="evenodd" clip-rule="evenodd" d="M104.417 612.681C103.584 610.508 105.512 612.867 105.482 612.353C106.53 609.722 104.619 608.293 103.82 606.096C103.127 607.993 102.995 610.042 103.439 612.007C103.397 612.239 104.108 612.36 104.443 612.536L104.417 612.681Z" fill="#343E5C"/>
<path fill-rule="evenodd" clip-rule="evenodd" d="M102.326 549.398C102.625 551.66 102.958 553.898 103.257 556.16L103.464 556.195C103.471 555.299 103.537 554.414 103.509 553.543C103.521 552.596 103.434 551.65 103.249 550.72C103.154 550.226 102.644 549.84 102.355 549.403L102.326 549.398Z" fill="#343E5C"/>
<path fill-rule="evenodd" clip-rule="evenodd" d="M104.423 612.652C104.339 614.49 104.221 616.353 104.162 618.225C104.245 619.041 104.376 619.851 104.554 620.652C104.903 619.882 105.131 619.064 105.23 618.227C105.036 616.401 104.695 614.551 104.412 612.71L104.423 612.652Z" fill="#343E5C"/>
<path fill-rule="evenodd" clip-rule="evenodd" d="M101.991 561.384L101.908 558.77L101.527 558.855L102.071 561.277L101.991 561.384Z" fill="#343E5C"/>
<path fill-rule="evenodd" clip-rule="evenodd" d="M102.355 549.403L102.273 547.298L102.125 547.273C102.189 547.941 102.248 548.638 102.336 549.34L102.355 549.403Z" fill="#343E5C"/>
<path fill-rule="evenodd" clip-rule="evenodd" d="M109.537 386.247L105.349 381.504C105.311 382.573 105.282 383.255 105.281 383.942L106.617 385.692L107.062 386.276L108.233 388.088L108.841 388.788L109.767 390.439C111.295 390.25 111.295 390.25 111.361 388.677L111.336 388.822C110.198 388.361 109.865 387.318 109.497 386.3L109.537 386.247Z" fill="#343E5C"/>
<path fill-rule="evenodd" clip-rule="evenodd" d="M122.387 340.972L122.619 339.667L122.264 339.607L122.303 340.928L122.387 340.972Z" fill="#343E5C"/>
<path fill-rule="evenodd" clip-rule="evenodd" d="M164.083 211.628C164.101 211.366 164.086 211.103 164.039 210.845C164.039 210.845 163.773 210.8 163.667 210.543C163.56 210.286 163.615 210.833 163.6 210.92L164.069 211.536L164.083 211.628Z" fill="#343E5C"/>
<path fill-rule="evenodd" clip-rule="evenodd" d="M145.124 217.562L145.777 217.314C145.218 216.861 145.454 217.588 145.227 217.668L145.124 217.562Z" fill="#343E5C"/>
<path fill-rule="evenodd" clip-rule="evenodd" d="M154.635 319.332C154.732 320.156 155.208 320.565 155.996 320.25C156.483 319.995 156.896 319.623 157.195 319.169C157.994 318.109 158.474 316.785 160.14 316.679C160.524 316.744 160.935 315.977 161.225 315.548L167.498 306.182C166.75 305.249 166.344 305.987 166.114 306.247C165.416 307.085 164.856 308.006 164.206 308.912L160.606 313.89C159.959 313.242 159.522 312.78 158.973 312.268C158.161 315.006 156.668 317.505 154.628 319.541L154.635 319.332Z" fill="#343E5C"/>
<path fill-rule="evenodd" clip-rule="evenodd" d="M154.555 319.438C154.535 318.18 155.73 316.948 154.831 315.66C154.505 315.605 154.091 315.535 154.001 315.699C152.522 317.639 151.357 319.79 150.547 322.076C151.508 321.821 152.081 321.858 152.404 321.584C153.195 320.911 153.893 320.073 154.635 319.332L154.555 319.438Z" fill="#343E5C"/>
<path fill-rule="evenodd" clip-rule="evenodd" d="M125.016 332.722C125.093 332.287 124.993 331.822 124.964 331.13C124.241 331.933 124.376 332.374 125.12 332.65L125.016 332.722Z" fill="#343E5C"/>
<path fill-rule="evenodd" clip-rule="evenodd" d="M106.107 419.73C106.046 417.063 105.218 414.468 103.719 412.243C102.949 410.714 102.022 409.265 100.951 407.92C100.047 406.661 99.3472 405.109 97.4303 405.083C98.6793 407.147 99.7506 409.181 101.153 411.241C102.555 413.301 104.125 415.958 105.624 418.333C105.871 418.796 106.091 419.273 106.285 419.76L106.107 419.73Z" fill="#343E5C"/>
<path fill-rule="evenodd" clip-rule="evenodd" d="M106.083 419.696C107.71 418.955 107.833 420.829 109.093 421.46C109.127 420.758 109.1 420.053 109.011 419.355C108.234 415.954 106.897 412.7 105.053 409.72C104.936 409.521 104.611 409.466 104.389 409.339C104.513 410.245 104.689 411.142 104.917 412.028C105.407 413.543 105.988 415.028 106.656 416.476C106.92 417.024 107.004 417.638 106.898 418.235C106.792 418.832 106.5 419.383 106.063 419.812L106.083 419.696Z" fill="#343E5C"/>
<path fill-rule="evenodd" clip-rule="evenodd" d="M104.389 409.339C104.611 408.092 103.727 407.404 102.723 406.876C102.782 407.385 102.96 407.874 103.243 408.305C103.526 408.737 103.906 409.098 104.354 409.363L104.389 409.339Z" fill="#343E5C"/>
<path fill-rule="evenodd" clip-rule="evenodd" d="M97.3417 405.067C97.3581 404.891 97.3891 404.717 97.4346 404.546C97.4346 404.546 97.4346 404.546 97.3933 404.777C97.328 404.862 97.2529 404.94 97.1695 405.008L97.3417 405.067Z" fill="#343E5C"/>
<path fill-rule="evenodd" clip-rule="evenodd" d="M102.723 406.875L102.224 406.253L102.173 406.543L102.823 406.653L102.723 406.875Z" fill="#343E5C"/>
<path fill-rule="evenodd" clip-rule="evenodd" d="M136.832 247.682C137.942 248.467 138.419 250.072 140.049 250.169C139.287 248.964 138.68 247.577 136.832 247.682Z" fill="#343E5C"/>
<path fill-rule="evenodd" clip-rule="evenodd" d="M140.601 252.892L139.969 250.275C139.735 250.717 139.669 251.227 139.784 251.712C139.899 252.197 140.187 252.626 140.596 252.921L140.601 252.892Z" fill="#343E5C"/>
<path fill-rule="evenodd" clip-rule="evenodd" d="M134.407 242.46L134.105 241.931C134.105 241.931 134.069 242.134 134.064 242.163C134.178 242.199 134.298 242.22 134.418 242.223L134.407 242.46Z" fill="#343E5C"/>
<path fill-rule="evenodd" clip-rule="evenodd" d="M135.343 244.052L134.402 242.489L135.343 244.052Z" fill="#343E5C"/>
<path fill-rule="evenodd" clip-rule="evenodd" d="M141.182 245.519L140.856 244.957C140.856 244.957 140.814 245.189 140.804 245.247L141.188 245.312L141.182 245.519Z" fill="#343E5C"/>
<path fill-rule="evenodd" clip-rule="evenodd" d="M135.453 243.952L136.355 245.568L135.453 243.952Z" fill="#343E5C"/>
<path fill-rule="evenodd" clip-rule="evenodd" d="M141.705 247.551C142.037 246.711 142.172 245.957 141.088 245.534C141.276 246.193 141.493 246.858 141.675 247.546L141.705 247.551Z" fill="#343E5C"/>
<path fill-rule="evenodd" clip-rule="evenodd" d="M136.355 245.569C136.508 246.252 136.69 246.94 136.867 247.658C137.195 246.847 137.364 246.069 136.355 245.569Z" fill="#343E5C"/>
<path fill-rule="evenodd" clip-rule="evenodd" d="M140.766 252.83L141.087 253.422L140.691 252.907L140.766 252.83Z" fill="#343E5C"/>
<path fill-rule="evenodd" clip-rule="evenodd" d="M132.758 251.892L132.854 251.52L132.573 251.562L132.758 251.892Z" fill="#343E5C"/>
<path fill-rule="evenodd" clip-rule="evenodd" d="M126.854 449.15C124.864 450.761 123.572 453.053 123.243 455.56C124.315 456.22 124.664 455.801 124.851 455.265C125.462 453.545 126.019 451.787 126.854 449.15Z" fill="#343E5C"/>
<path fill-rule="evenodd" clip-rule="evenodd" d="M127.593 452.711C128.482 452.683 129.162 452.977 129.412 452.601C130.074 451.9 130.531 451.038 130.735 450.105C130.939 449.172 130.881 448.202 130.569 447.299L127.593 452.711Z" fill="#343E5C"/>
<path fill-rule="evenodd" clip-rule="evenodd" d="M135.719 442.703C134.281 444.103 134.68 446.142 133.729 447.714C134.54 448.3 134.855 447.726 134.973 447.238C135.247 445.7 135.52 444.163 135.794 442.626L135.719 442.703Z" fill="#343E5C"/>
<path fill-rule="evenodd" clip-rule="evenodd" d="M148.657 369.177C149.901 369.387 150.535 368.569 151.017 367.574C150.141 367.951 149.369 368.528 148.765 369.255L148.657 369.177Z" fill="#343E5C"/>
<path fill-rule="evenodd" clip-rule="evenodd" d="M154.903 365.453L154.639 365.05L155.237 364.943L154.977 365.376L154.903 365.453Z" fill="#343E5C"/>
<path fill-rule="evenodd" clip-rule="evenodd" d="M154.962 365.463L154.428 365.552L154.485 365.233L154.887 365.54L154.962 365.463Z" fill="#343E5C"/>
<path fill-rule="evenodd" clip-rule="evenodd" d="M118.437 269.457C119.173 271.196 120.107 272.847 121.22 274.381C122.676 276.48 123.651 278.886 124.924 280.984C125.45 281.969 125.678 283.263 127.456 283.893C126.772 282.031 125.976 280.21 125.073 278.439C123.322 275.424 121.373 272.494 119.459 269.54C119.49 269.366 118.749 269.42 118.364 269.355L118.437 269.457Z" fill="#343E5C"/>
<path fill-rule="evenodd" clip-rule="evenodd" d="M118.348 269.62C118.389 269.388 118.603 269.215 118.669 269.018C118.702 268.978 118.725 268.93 118.734 268.879C118.743 268.829 118.738 268.776 118.72 268.728C118.72 268.728 118.513 268.693 118.424 268.678C118.373 268.868 118.339 269.062 118.321 269.257C118.291 269.361 118.272 269.468 118.265 269.576L118.348 269.62Z" fill="#343E5C"/>
<path fill-rule="evenodd" clip-rule="evenodd" d="M132.987 416.423C131.28 417.957 129.598 419.525 127.886 421.087L126.574 422.807C126.87 422.858 127.318 423.083 127.491 422.963C129.657 421.38 131.482 419.394 132.863 417.119C132.899 416.916 132.951 416.626 132.997 416.365L132.987 416.423Z" fill="#343E5C"/>
<path fill-rule="evenodd" clip-rule="evenodd" d="M132.997 416.365C133.297 416.178 133.58 415.966 133.842 415.731C133.842 415.731 133.731 415.324 133.679 415.106C133.626 414.888 133.327 415.196 133.312 415.283C133.296 415.37 133.172 416.066 133.105 416.443L132.997 416.365Z" fill="#343E5C"/>
<path fill-rule="evenodd" clip-rule="evenodd" d="M124.456 416.203C124.456 416.203 124.492 416 124.507 415.914L124.773 415.959L124.353 416.096L124.456 416.203Z" fill="#343E5C"/>
<path fill-rule="evenodd" clip-rule="evenodd" d="M124.391 416.223L124.298 416.744C124.298 416.744 124.324 416.599 124.162 416.482C124.168 416.374 124.187 416.267 124.219 416.164L124.391 416.223Z" fill="#343E5C"/>
<path fill-rule="evenodd" clip-rule="evenodd" d="M122.032 420.395L122.111 420.975C122.111 420.975 121.989 420.805 122.005 420.718C122.012 420.591 122.035 420.464 122.072 420.342L122.032 420.395Z" fill="#343E5C"/>
<path fill-rule="evenodd" clip-rule="evenodd" d="M116.965 396.26C117.346 394.654 117.331 392.984 116.92 391.386C116.51 389.789 115.716 388.311 114.605 387.075C114.759 390.836 116.681 393.403 116.941 396.226L116.965 396.26Z" fill="#343E5C"/>
<path fill-rule="evenodd" clip-rule="evenodd" d="M111.18 388.497C112.409 389.645 113.328 391.074 113.856 392.655C113.923 392.278 114.425 391.855 114.313 391.627C113.452 389.957 112.967 388.053 111.142 386.997L111.198 388.739L111.18 388.497Z" fill="#343E5C"/>
<path fill-rule="evenodd" clip-rule="evenodd" d="M111.143 386.997C111.165 386.368 110.982 385.748 110.618 385.23C110.255 384.711 109.732 384.32 109.124 384.115L109.463 386.324L111.246 387.104L111.143 386.997Z" fill="#343E5C"/>
<path fill-rule="evenodd" clip-rule="evenodd" d="M109.124 384.114C109.202 383.679 109.285 383.216 109.367 382.752L108.922 382.856L109.352 384.033L109.124 384.114Z" fill="#343E5C"/>
<path fill-rule="evenodd" clip-rule="evenodd" d="M129.789 307.624C129.806 307.448 129.837 307.274 129.882 307.102C129.882 307.102 130.059 307.132 129.994 307.33C129.928 307.528 129.958 307.533 129.76 307.619L129.789 307.624Z" fill="#343E5C"/>
<path fill-rule="evenodd" clip-rule="evenodd" d="M128.964 297.355L128.016 297.374C128.104 298.076 128.054 298.874 129.02 299.097L128.964 297.355Z" fill="#343E5C"/>
<path fill-rule="evenodd" clip-rule="evenodd" d="M128.113 297.509C128.216 296.929 128.083 296.309 128.038 295.705C127.258 296.319 127.244 296.914 128.113 297.509Z" fill="#343E5C"/>
<path fill-rule="evenodd" clip-rule="evenodd" d="M119.257 366.947C117.874 363.419 116.231 359.995 114.341 356.702C114.341 356.702 114.133 356.666 113.867 356.621C113.922 360.425 116.509 363.194 117.917 366.421C118.024 366.678 118.567 366.71 119.257 366.947Z" fill="#343E5C"/>
<path fill-rule="evenodd" clip-rule="evenodd" d="M107.654 463.289C107.451 463.648 107.31 464.038 107.235 464.442C107.194 464.674 107.612 464.894 107.818 465.108C108.024 465.322 108.137 464.684 108.114 464.471C107.991 464.066 107.837 463.671 107.654 463.289Z" fill="#343E5C"/>
<path fill-rule="evenodd" clip-rule="evenodd" d="M104.69 464.698L105.592 464.254L105.099 463.424C104.947 463.616 104.818 463.824 104.714 464.045C104.707 464.288 104.725 464.532 104.768 464.771L104.69 464.698Z" fill="#343E5C"/>
</g>
<defs>
<clipPath id="clip0_168_955">
<rect width="172.152" height="648.166" fill="white" transform="matrix(-0.98596 -0.166981 -0.175294 0.984516 284.35 28.8101)"/>
</clipPath>
</defs>
</svg>
